SplineFontDB: 3.0
FontName: PonomarUnicode
FullName: Ponomar Unicode
FamilyName: Ponomar Unicode
Weight: Book
Copyright: Copyright 2011-2015 Aleksandr Andreev, Yuri Shardt and Nikita Simmons.\n\nPreviously known as HirmosPonomar. This font is part of the Ponomar Project and is licensed under the same license as Ponomar itself or under the SIL Open Font License, at your choosing. See http://www.ponomar.net/ for details.
FontLog: "Based on Hirmos UCS. Copyright (c) Vladislav V. Dorosh, Calmius Software, 2007-2008. All rights reserved. Used with permission.+AAoACgAK-Converted to Unicode 5.1 Yuri Shardt, as part of the Ponomar Project. +AAoACgAA-Additional characters, including the Typicon Symbols, added by Yuri Shardt in 2009 to 2011.+AAoACgAA-Additional help in correcting some of the characters was provided by Nikita Simmons in 2011, 2012.+AAoACgAA-Additional revisions by Aleksandr Andreev in 2012, including kerning support and other fine tuning.+AAoACgAA-Additional revisions by Nikita Simmons.+AAoACgAA-Renamed to Ponomar Unicode in 2015 and released." 
Version: 1.0
DefaultBaseFilename: PonomarUnicode
ItalicAngle: 0
UnderlinePosition: -39
UnderlineWidth: 7
Ascent: 800
Descent: 200
woffMajor: 1
woffMinor: 0
LayerCount: 3
Layer: 0 0 "Back"  1
Layer: 1 0 "Fore"  0
Layer: 2 1 "TTFLayer"  0
XUID: [1021 300 1517649419 16006353]
FSType: 0
OS2Version: 2
OS2_WeightWidthSlopeOnly: 0
OS2_UseTypoMetrics: 1
CreationTime: 1187031600
ModificationTime: 1429784798
PfmFamily: 17
TTFWeight: 400
TTFWidth: 5
LineGap: 23
VLineGap: 0
Panose: 2 0 5 0 9 0 0 2 0 3
OS2TypoAscent: 155
OS2TypoAOffset: 1
OS2TypoDescent: -260
OS2TypoDOffset: 1
OS2TypoLinegap: 45
OS2WinAscent: 30
OS2WinAOffset: 1
OS2WinDescent: -6
OS2WinDOffset: 1
HheadAscent: 30
HheadAOffset: 1
HheadDescent: 6
HheadDOffset: 1
OS2SubXSize: 203
OS2SubYSize: 203
OS2SubXOff: 0
OS2SubYOff: 286
OS2SupXSize: 203
OS2SupYSize: 203
OS2SupXOff: 0
OS2SupYOff: 286
OS2StrikeYSize: 50
OS2StrikeYPos: 250
OS2Vendor: 'calm'

StartChar: .notdef
Encoding: 1114112 -1 0
Width: 427
GlyphClass: 2
Flags: W
HStem: 0 19<29 398> 748 22<29 398>
VStem: 0 22<34 733> 405 22<34 733>
DStem2: 29 748 22 733 0.465951 -0.884811<10.0105 395.419 421.078 806.952> 22 34 29 19 0.465951 0.884811<0 385.408 411.068 796.942>
LayerCount: 3
Fore
SplineSet
0 770 m 1
 427 770 l 1
 427 0 l 1
 0 0 l 1
 0 770 l 1
29 748 m 1
 213 398 l 1
 398 748 l 1
 29 748 l 1
221 383 m 1
 405 34 l 1
 405 733 l 1
 221 383 l 1
398 19 m 1
 213 369 l 1
 29 19 l 1
 398 19 l 1
22 733 m 1
 22 34 l 1
 206 383 l 1
 22 733 l 1
EndSplineSet
Validated: 1
Layer: 2
SplineSet
0 770 m 1,0,-1
 427 770 l 1,1,-1
 427 0 l 1,2,-1
 0 0 l 1,3,-1
 0 770 l 1,0,-1
29 748 m 1,4,-1
 213 398 l 1,5,-1
 398 748 l 1,6,-1
 29 748 l 1,4,-1
221 383 m 1,7,-1
 405 34 l 1,8,-1
 405 733 l 1,9,-1
 221 383 l 1,7,-1
398 19 m 1,10,-1
 213 369 l 1,11,-1
 29 19 l 1,12,-1
 398 19 l 1,10,-1
22 733 m 1,13,-1
 22 34 l 1,14,-1
 206 383 l 1,15,-1
 22 733 l 1,13,-1
EndSplineSet
Validated: 19457
Colour: ff00
EndChar

StartChar: uni0021
Encoding: 33 33 2
Width: 222
GlyphClass: 2
Flags: W
HStem: -8 139<60.1589 159.955>
VStem: 40 140<11.6823 110.841>
LayerCount: 3
Fore
SplineSet
117 178 m 0
 117 176 115 175 111 175 c 0
 107 175 105 176 105 178 c 0
 91 324 75 477 57 618 c 0
 51 668 40 707 40 737 c 0
 40 744 46 752 52 752 c 0
 53 752 53 752 54 752 c 0
 84 750 127 746 156 744 c 1
 161 742 168 735 166 728 c 1
 164 713 162 691 159 664 c 2
 150 572 l 2
 144 505 137 424 131 355 c 0
 126 296 119 230 117 178 c 0
40 63 m 0
 40 101 73 131 112 131 c 0
 150 131 180 98 180 59 c 0
 180 21 147 -8 109 -8 c 0
 70 -8 40 24 40 63 c 0
EndSplineSet
Validated: 1
Layer: 2
SplineSet
117 178 m 0,0,1
 117 175 117 175 111 175 c 128,-1,2
 105 175 105 175 105 178 c 0,3,4
 80 435 80 435 57 618 c 0,5,6
 55 638 55 638 47.5 679 c 128,-1,7
 40 720 40 720 40 737 c 0,8,9
 40 742 40 742 44 747 c 128,-1,10
 48 752 48 752 52 752 c 2,11,-1
 54 752 l 1,12,13
 70 751 70 751 106 748 c 128,-1,14
 142 745 142 745 156 744 c 1,15,16
 169 739 169 739 166 728 c 0,17,18
 165 721 165 721 164 711.5 c 128,-1,19
 163 702 163 702 161.5 688 c 128,-1,20
 160 674 160 674 159 664 c 2,21,-1
 150 572 l 2,22,23
 146 522 146 522 131 355 c 0,24,25
 118 200 118 200 117 178 c 0,0,1
40 63 m 0,26,27
 40 91 40 91 61.5 111 c 128,-1,28
 83 131 83 131 112 131 c 0,29,30
 140 131 140 131 160 109.5 c 128,-1,31
 180 88 180 88 180 59 c 0,32,33
 180 31 180 31 159 11.5 c 128,-1,34
 138 -8 138 -8 109 -8 c 128,-1,35
 80 -8 80 -8 60 13 c 128,-1,36
 40 34 40 34 40 63 c 0,26,27
EndSplineSet
Validated: 19457
Colour: ff00
EndChar

StartChar: uni0022
Encoding: 34 34 3
Width: 404
GlyphClass: 2
Flags: W
HStem: 656 77<78.943 152 284.943 358>
VStem: 132 56<550.646 649.599> 338 56<550.646 649.599>
LayerCount: 3
Fore
SplineSet
132 733 m 0
 172 733 188 682 188 641 c 0
 188 551 129 487 72 453 c 0
 70 452 69 452 67 452 c 0
 63 452 64 457 68 463 c 0
 85 485 100 508 113 531 c 0
 126 554 132 577 132 598 c 0
 132 622 128 648 98 655 c 0
 94 656 93 656 88 656 c 0
 59 656 35 636 22 619 c 0
 17 613 8 616 14 625 c 1
 32 669 68 714 113 730 c 0
 119 732 126 733 132 733 c 0
338 733 m 0
 378 733 394 682 394 641 c 0
 394 551 335 487 278 453 c 0
 276 452 275 452 273 452 c 0
 269 452 270 457 274 463 c 0
 291 485 306 508 319 531 c 0
 332 554 338 577 338 598 c 0
 338 622 334 648 304 655 c 0
 300 656 299 656 294 656 c 0
 265 656 241 636 228 619 c 0
 223 613 214 616 220 625 c 1
 238 669 274 714 319 730 c 0
 325 732 332 733 338 733 c 0
EndSplineSet
Validated: 1
Layer: 2
SplineSet
132 733 m 0,0,1
 160 733 160 733 174 705 c 128,-1,2
 188 677 188 677 188 641 c 0,3,4
 188 579 188 579 154 530 c 0,5,6
 116 475 116 475 72 453 c 0,7,8
 70 452 70 452 67 452 c 0,9,10
 61 452 61 452 68 463 c 0,11,12
 92 495 92 495 113 531 c 0,13,14
 132 565 132 565 132 598 c 0,15,16
 132 647 132 647 98 655 c 0,17,18
 94 656 94 656 88 656 c 0,19,20
 50 656 50 656 22 619 c 0,21,22
 18 614 18 614 14 616.5 c 128,-1,23
 10 619 10 619 14 625 c 1,24,25
 28 660 28 660 54.5 689.5 c 128,-1,26
 81 719 81 719 113 730 c 0,27,28
 122 733 122 733 132 733 c 0,0,1
338 733 m 0,29,30
 366 733 366 733 380 705 c 128,-1,31
 394 677 394 677 394 641 c 0,32,33
 394 579 394 579 360 530 c 0,34,35
 322 475 322 475 278 453 c 0,36,37
 276 452 276 452 273 452 c 0,38,39
 267 452 267 452 274 463 c 0,40,41
 298 495 298 495 319 531 c 0,42,43
 338 565 338 565 338 598 c 0,44,45
 338 647 338 647 304 655 c 0,46,47
 300 656 300 656 294 656 c 0,48,49
 256 656 256 656 228 619 c 0,50,51
 224 614 224 614 220 616.5 c 128,-1,52
 216 619 216 619 220 625 c 1,53,54
 234 660 234 660 260.5 689.5 c 128,-1,55
 287 719 287 719 319 730 c 0,56,57
 328 733 328 733 338 733 c 0,29,30
EndSplineSet
Validated: 3073
Colour: ff00
EndChar

StartChar: uni0027
Encoding: 39 39 4
Width: 199
GlyphClass: 2
Flags: W
HStem: 656 77<78.943 152>
VStem: 132 56<550.646 649.599>
LayerCount: 3
Fore
SplineSet
132 733 m 0
 172 733 188 682 188 641 c 0
 188 551 129 487 72 453 c 0
 70 452 69 452 67 452 c 0
 63 452 64 457 68 463 c 0
 85 485 100 508 113 531 c 0
 126 554 132 577 132 598 c 0
 132 622 128 648 98 655 c 0
 94 656 93 656 88 656 c 0
 59 656 35 636 22 619 c 0
 17 613 8 616 14 625 c 1
 32 669 68 714 113 730 c 0
 119 732 126 733 132 733 c 0
EndSplineSet
Validated: 1
Layer: 2
SplineSet
132 733 m 0,0,1
 160 733 160 733 174 705 c 128,-1,2
 188 677 188 677 188 641 c 0,3,4
 188 579 188 579 154 530 c 0,5,6
 116 475 116 475 72 453 c 0,7,8
 70 452 70 452 67 452 c 0,9,10
 61 452 61 452 68 463 c 0,11,12
 92 495 92 495 113 531 c 0,13,14
 132 565 132 565 132 598 c 0,15,16
 132 647 132 647 98 655 c 0,17,18
 94 656 94 656 88 656 c 0,19,20
 50 656 50 656 22 619 c 0,21,22
 18 614 18 614 14 616.5 c 128,-1,23
 10 619 10 619 14 625 c 1,24,25
 28 660 28 660 54.5 689.5 c 128,-1,26
 81 719 81 719 113 730 c 0,27,28
 122 733 122 733 132 733 c 0,0,1
EndSplineSet
Validated: 3073
Colour: ff00
EndChar

StartChar: uni0028
Encoding: 40 40 5
Width: 319
GlyphClass: 2
Flags: W
HStem: 1000 23<337.869 363>
VStem: 51 115<46.7982 531.883>
LayerCount: 3
Fore
SplineSet
363 -434 m 1
 332 -429 302 -416 275 -393 c 0
 180 -316 125 -177 90 -37 c 0
 66 57 51 172 51 285 c 0
 51 292 51 298 51 305 c 0
 51 474 86 629 134 755 c 0
 168 843 212 920 273 975 c 0
 301 1000 331 1016 363 1023 c 1
 363 1000 l 1
 300 980 262 924 236 862 c 0
 175 719 166 520 166 319 c 2
 166 285 l 2
 166 133 179 -19 206 -144 c 0
 216 -189 228 -229 242 -264 c 0
 267 -327 303 -384 363 -404 c 1
 363 -434 l 1
EndSplineSet
Validated: 1
Layer: 2
SplineSet
363 -434 m 1,0,1
 314 -426 314 -426 275 -393 c 0,2,3
 155 -295 155 -295 90 -37 c 0,4,5
 51 116 51 116 51 285 c 2,6,7
 51 305 l 2,8,9
 51 540 51 540 134 755 c 0,10,11
 190 900 190 900 273 975 c 0,12,13
 315 1012 315 1012 363 1023 c 1,14,-1
 363 1000 l 1,15,16
 283 975 283 975 236 862 c 1,17,18
 194 764 194 764 180 631 c 128,-1,19
 166 498 166 498 166 319 c 2,20,-1
 166 285 l 2,21,22
 166 41 166 41 206 -144 c 0,23,24
 221 -212 221 -212 242 -264 c 0,25,26
 289 -379 289 -379 363 -404 c 1,27,-1
 363 -434 l 1,0,1
EndSplineSet
Validated: 19457
Colour: ff00
EndChar

StartChar: uni0029
Encoding: 41 41 6
Width: 319
GlyphClass: 2
Flags: W
HStem: -434 30<-44 -14.6914>
VStem: 153 115<50.8388 530.198>
LayerCount: 3
Fore
SplineSet
268 285 m 0
 268 111 231 -50 182 -179 c 0
 149 -264 104 -342 44 -393 c 0
 17 -416 -13 -429 -44 -434 c 1
 -44 -404 l 1
 17 -384 53 -326 78 -265 c 0
 123 -153 141 -9 149 140 c 0
 152 190 152 238 153 285 c 1
 153 331 l 2
 153 479 144 628 118 750 c 0
 101 829 73 903 29 951 c 0
 8 974 -16 991 -44 1000 c 1
 -44 1023 l 1
 -12 1016 18 1000 46 975 c 0
 141 890 195 752 231 606 c 0
 253 515 268 413 268 305 c 0
 268 298 268 292 268 285 c 0
EndSplineSet
Validated: 1
Layer: 2
SplineSet
268 285 m 2,0,1
 268 47 268 47 182 -179 c 1,2,3
 126 -323 126 -323 44 -393 c 0,4,5
 5 -426 5 -426 -44 -434 c 1,6,-1
 -44 -404 l 1,7,8
 31 -379 31 -379 78 -265 c 0,9,10
 135 -124 135 -124 149 140 c 0,11,12
 150 164 150 164 153 285 c 1,13,-1
 153 331 l 2,14,15
 153 586 153 586 118 750 c 0,16,17
 89 886 89 886 29 951 c 0,18,19
 -4 987 -4 987 -44 1000 c 1,20,-1
 -44 1023 l 1,21,22
 4 1012 4 1012 46 975 c 0,23,24
 167 869 167 869 231 606 c 0,25,26
 268 453 268 453 268 305 c 2,27,28
 268 285 l 2,0,1
EndSplineSet
Validated: 19457
Colour: ff00
EndChar

StartChar: uniA673
Encoding: 42611 42611 7
Width: 387
GlyphClass: 2
Flags: W
DStem2: 233 620 223 600 0.900159 0.435561<0 58.3361> 68 539 21 539 0.942627 -0.333847<0 57.5395> 105 631 71 665 0.431455 -0.902134<0 56.6383> 73 412 105 445 0.427668 0.903936<43.5153 102.883> 71 665 105 631 0.900159 -0.435561<45.4145 103.315> 105 445 73 412 0.896389 0.443269<0 58.2062> 164 620 173 599 0.333847 0.942627<0 57.5395> 173 478 164 457 0.333847 -0.942627<16.7905 74.3301> 198 716 198 669 0.342529 -0.939507<44.1568 102.181> 280 573 258 564 0.942627 -0.333847<0 57.5395> 258 564 280 573 0.447214 0.894427<17.8885 76.0263> 223 478 233 457 0.900159 -0.435561<18.1484 76.4845> 280 505 258 513 0.443354 -0.896347<0 59.101> 258 513 280 505 0.942627 0.333847<18.067 75.6066>
LayerCount: 3
Fore
SplineSet
280 505 m 1
 326 412 l 1
 233 457 l 1
 198 361 l 1
 164 457 l 1
 73 412 l 1
 117 505 l 1
 21 539 l 1
 115 573 l 1
 71 665 l 1
 164 620 l 1
 198 716 l 1
 233 620 l 1
 326 665 l 1
 280 573 l 1
 376 539 l 1
 280 505 l 1
258 564 m 1
 292 632 l 1
 223 600 l 1
 198 669 l 1
 173 599 l 1
 105 631 l 1
 137 564 l 1
 68 539 l 1
 138 513 l 1
 105 445 l 1
 173 478 l 1
 198 408 l 1
 223 478 l 1
 292 445 l 1
 258 513 l 1
 329 539 l 1
 258 564 l 1
EndSplineSet
Validated: 1
Layer: 2
SplineSet
280 505 m 1,0,-1
 326 412 l 1,1,-1
 233 457 l 1,2,-1
 198 361 l 1,3,-1
 164 457 l 1,4,-1
 73 412 l 1,5,-1
 117 505 l 1,6,-1
 21 539 l 1,7,-1
 115 573 l 1,8,-1
 71 665 l 1,9,-1
 164 620 l 1,10,-1
 198 716 l 1,11,-1
 233 620 l 1,12,-1
 326 665 l 1,13,-1
 280 573 l 1,14,-1
 376 539 l 1,15,-1
 280 505 l 1,0,-1
258 564 m 1,16,-1
 292 632 l 1,17,-1
 223 600 l 1,18,-1
 198 669 l 1,19,-1
 173 599 l 1,20,-1
 105 631 l 1,21,-1
 137 564 l 1,22,-1
 68 539 l 1,23,-1
 138 513 l 1,24,-1
 105 445 l 1,25,-1
 173 478 l 1,26,-1
 198 408 l 1,27,-1
 223 478 l 1,28,-1
 292 445 l 1,29,-1
 258 513 l 1,30,-1
 329 539 l 1,31,-1
 258 564 l 1,16,-1
EndSplineSet
Validated: 19457
Colour: ff00
EndChar

StartChar: uni002B
Encoding: 43 43 8
Width: 453
GlyphClass: 2
Flags: W
HStem: 299 138<0 158 295 456> 576 20G<158 295>
VStem: 158 137<152 299 437 596>
LayerCount: 3
Fore
SplineSet
0 437 m 1
 158 437 l 1
 158 596 l 1
 295 596 l 1
 295 437 l 1
 456 437 l 1
 456 299 l 1
 295 299 l 1
 295 152 l 1
 158 152 l 1
 158 299 l 1
 0 299 l 1
 0 437 l 1
EndSplineSet
Validated: 1
Layer: 2
SplineSet
0 437 m 1,0,-1
 158 437 l 1,1,-1
 158 596 l 1,2,-1
 295 596 l 1,3,-1
 295 437 l 1,4,-1
 456 437 l 1,5,-1
 456 299 l 1,6,-1
 295 299 l 1,7,-1
 295 152 l 1,8,-1
 158 152 l 1,9,-1
 158 299 l 1,10,-1
 0 299 l 1,11,-1
 0 437 l 1,0,-1
EndSplineSet
Validated: 19457
Colour: ff00
EndChar

StartChar: uni002C
Encoding: 44 44 9
Width: 304
GlyphClass: 2
Flags: W
HStem: 51 96<118.603 207.5>
VStem: 181 73<-48.6288 70>
LayerCount: 3
Fore
SplineSet
181 -22 m 0
 181 17 158 51 122 51 c 0
 97 51 73 37 49 10 c 0
 43 3 33 6 33 13 c 0
 33 14 33 16 34 17 c 0
 53 60 69 79 100 110 c 0
 117 127 149 147 181 147 c 0
 234 147 254 97 254 43 c 0
 254 -31 215 -87 175 -120 c 0
 170 -125 117 -169 100 -169 c 0
 91 -169 95 -159 101 -155 c 0
 137 -134 164 -101 176 -57 c 0
 179 -45 181 -33 181 -22 c 0
EndSplineSet
Validated: 1
Layer: 2
SplineSet
181 -22 m 0,0,1
 181 8 181 8 164.5 29.5 c 128,-1,2
 148 51 148 51 122 51 c 0,3,4
 85 51 85 51 49 10 c 0,5,6
 44 5 44 5 38.5 6.5 c 128,-1,7
 33 8 33 8 33 13 c 0,8,9
 33 16 33 16 34 17 c 0,10,11
 55 65 55 65 100 110 c 0,12,13
 137 147 137 147 181 147 c 0,14,15
 218 147 218 147 236 117.5 c 128,-1,16
 254 88 254 88 254 43 c 0,17,18
 254 -55 254 -55 175 -120 c 1,19,20
 166 -129 166 -129 138.5 -149 c 128,-1,21
 111 -169 111 -169 100 -169 c 0,22,23
 90 -169 90 -169 97 -160 c 0,24,25
 99 -157 99 -157 101 -155 c 0,26,27
 167 -89 167 -89 176 -57 c 0,28,29
 181 -37 181 -37 181 -22 c 0,0,1
EndSplineSet
Validated: 19457
Substitution2: "'locl' Localized Forms in Latin lookup 19-1" uni002C.latin
Colour: ff00
EndChar

StartChar: uni002D
Encoding: 45 45 10
Width: 459
GlyphClass: 2
Flags: W
HStem: 219 137<6 453>
LayerCount: 3
Fore
SplineSet
6 356 m 1
 453 356 l 1
 453 219 l 1
 6 219 l 1
 6 356 l 1
EndSplineSet
Validated: 1
Layer: 2
SplineSet
6 356 m 1,0,-1
 453 356 l 1,1,-1
 453 219 l 1,2,-1
 6 219 l 1,3,-1
 6 356 l 1,0,-1
EndSplineSet
Validated: 19457
Colour: ff00
EndChar

StartChar: uni002E
Encoding: 46 46 11
Width: 216
GlyphClass: 2
Flags: W
HStem: -18 142<55.25 154.75>
VStem: 34 142<3.25 102.75>
LayerCount: 3
Fore
SplineSet
34 53 m 0
 34 91 67 124 105 124 c 0
 143 124 176 91 176 53 c 0
 176 15 143 -18 105 -18 c 0
 67 -18 34 15 34 53 c 0
EndSplineSet
Validated: 1
Layer: 2
SplineSet
34 53 m 128,-1,1
 34 82 34 82 55 103 c 128,-1,2
 76 124 76 124 105 124 c 128,-1,3
 134 124 134 124 155 103 c 128,-1,4
 176 82 176 82 176 53 c 128,-1,5
 176 24 176 24 155 3 c 128,-1,6
 134 -18 134 -18 105 -18 c 128,-1,7
 76 -18 76 -18 55 3 c 128,-1,0
 34 24 34 24 34 53 c 128,-1,1
EndSplineSet
Validated: 19457
Substitution2: "'locl' Localized Forms in Latin lookup 19-1" uni002E.latin
Colour: ff00
EndChar

StartChar: uni002F
Encoding: 47 47 12
Width: 405
GlyphClass: 2
Flags: W
HStem: -283 21G<-53 12.4241>
VStem: -53 59<-283 -224> 362 59<950 1009>
DStem2: -53 -283 6 -283 0.305818 0.95209<18.0433 1357.01>
LayerCount: 3
Fore
SplineSet
6 -283 m 1
 -53 -283 l 1
 362 1009 l 1
 421 1009 l 1
 6 -283 l 1
EndSplineSet
Validated: 1
Layer: 2
SplineSet
6 -283 m 1,0,-1
 -53 -283 l 1,1,-1
 362 1009 l 1,2,-1
 421 1009 l 1,3,-1
 6 -283 l 1,0,-1
EndSplineSet
Validated: 19457
Colour: ff00
EndChar

StartChar: uni0030
Encoding: 48 48 13
Width: 532
GlyphClass: 2
Flags: W
HStem: -4 21G<267 310.5> 620 141<173 300.5>
VStem: 19 69<360.275 511.294> 436 76<229.5 394>
LayerCount: 3
Fore
SplineSet
441 144 m 0
 389 45 337 -4 284 -4 c 0
 250 -4 208 24 157 81 c 1
 120 124 88 169 63 214 c 1
 34 269 19 329 19 392 c 0
 19 492 60 579 141 653 c 1
 218 725 263 761 276 761 c 0
 325 761 377 707 433 598 c 1
 486 499 512 422 512 366 c 0
 512 309 488 235 441 144 c 0
344 461 m 0
 279 567 227 620 186 620 c 0
 160 620 137 602 116 565 c 0
 97 532 88 502 88 476 c 0
 88 425 120 355 185 264 c 0
 252 171 308 124 355 124 c 1
 367 126 l 1
 385 134 401 150 415 174 c 0
 429 198 436 220 436 239 c 0
 436 286 405 360 344 461 c 0
EndSplineSet
Validated: 1
Layer: 2
SplineSet
441 144 m 1,0,1
 363 -4 363 -4 284 -4 c 0,2,3
 233 -4 233 -4 157 81 c 1,4,5
 100 147 100 147 63 214 c 1,6,7
 19 297 19 297 19 392 c 0,8,9
 19 542 19 542 141 653 c 1,10,11
 256 761 256 761 276 761 c 0,12,13
 349 761 349 761 433 598 c 1,14,15
 512 450 512 450 512 366 c 0,16,17
 512 281 512 281 441 144 c 1,0,1
344 461 m 1,18,19
 246 620 246 620 186 620 c 0,20,21
 147 620 147 620 116 565 c 0,22,23
 88 516 88 516 88 476 c 0,24,25
 88 400 88 400 185 264 c 0,26,27
 286 124 286 124 355 124 c 1,28,-1
 367 126 l 1,29,30
 394 138 394 138 415 174 c 128,-1,31
 436 210 436 210 436 239 c 0,32,33
 436 309 436 309 344 461 c 1,18,19
EndSplineSet
Validated: 19457
Colour: ff00
EndChar

StartChar: uni0031
Encoding: 49 49 14
Width: 419
GlyphClass: 2
Flags: MW
HStem: 0 32<82 161 315 394>
LayerCount: 3
Fore
SplineSet
82 0 m 1
 82 32 l 1
 161 32 l 1
 161 555 l 2
 161 600 148 623 122 623 c 0
 97 623 78 620 64 613 c 1
 57 652 l 1
 144 667 230 702 315 756 c 1
 315 32 l 1
 394 32 l 1
 394 0 l 1
 82 0 l 1
EndSplineSet
Validated: 1
Layer: 2
SplineSet
82 0 m 1,0,-1
 82 32 l 1,1,-1
 161 32 l 1,2,-1
 161 555 l 2,3,4
 161 623 161 623 122 623 c 0,5,6
 84 623 84 623 64 613 c 1,7,-1
 57 652 l 1,8,9
 186 674 186 674 315 756 c 1,10,-1
 315 32 l 1,11,-1
 394 32 l 1,12,-1
 394 0 l 1,13,-1
 82 0 l 1,0,-1
EndSplineSet
Validated: 19457
Colour: ff00
EndChar

StartChar: uni0032
Encoding: 50 50 15
Width: 529
GlyphClass: 2
Flags: W
HStem: -11 20G<51.3333 82.5 433.5 447.342> 16 112<195.175 410.037> 607 144<183.224 309.717>
VStem: 350 128<430 634>
LayerCount: 3
Fore
SplineSet
283 128 m 0
 308 128 392 116 417 116 c 0
 443 116 466 131 485 161 c 1
 509 140 l 1
 438 -12 l 1
 429 -9 385 0 311 10 c 0
 270 15 238 16 216 16 c 0
 201 16 191 16 187 16 c 0
 134 16 95 7 70 -11 c 1
 42 19 l 1
 247 233 350 385 350 475 c 0
 350 563 312 607 237 607 c 0
 209 607 174 589 152 572 c 1
 104 525 l 1
 40 588 l 1
 99 697 183 751 291 751 c 0
 390 751 478 683 478 585 c 0
 478 486 383 327 194 109 c 1
 219 122 248 128 283 128 c 0
EndSplineSet
Validated: 1
Layer: 2
SplineSet
283 128 m 0,0,1
 296 128 296 128 350 122 c 128,-1,2
 404 116 404 116 417 116 c 0,3,4
 456 116 456 116 485 161 c 1,5,-1
 509 140 l 1,6,-1
 438 -12 l 1,7,8
 414 -4 414 -4 311 10 c 0,9,10
 262 16 262 16 216 16 c 2,11,-1
 187 16 l 2,12,13
 108 16 108 16 70 -11 c 1,14,-1
 42 19 l 1,15,16
 350 341 350 341 350 475 c 0,17,18
 350 607 350 607 237 607 c 0,19,20
 197 607 197 607 152 572 c 1,21,-1
 104 525 l 1,22,-1
 40 588 l 1,23,24
 128 751 128 751 291 751 c 0,25,26
 367 751 367 751 422.5 704 c 128,-1,27
 478 657 478 657 478 585 c 0,28,29
 478 437 478 437 194 109 c 1,30,31
 231 128 231 128 283 128 c 0,0,1
EndSplineSet
Validated: 19457
Colour: ff00
EndChar

StartChar: uni0033
Encoding: 51 51 16
Width: 553
GlyphClass: 2
Flags: W
HStem: -49 55<110.818 160.383> 640 111<193.773 356>
VStem: 333 153<542.57 662.5> 362 165<203.931 309.441>
LayerCount: 3
Fore
SplineSet
311 751 m 0xe0
 401 751 486 705 486 620 c 0xe0
 486 586 474 553 450 521 c 1
 379 441 l 1
 383 434 l 1
 425 434 459 417 485 394 c 0
 513 369 527 337 527 297 c 0
 527 212 477 135 377 64 c 0
 294 6 207 -32 114 -49 c 1
 89 6 l 1
 271 52 362 131 362 244 c 0xd0
 362 311 312 350 244 350 c 0
 222 350 194 341 159 324 c 1
 138 364 l 1
 214 389 333 479 333 568 c 0
 333 614 286 640 237 640 c 0
 174 640 125 608 89 544 c 1
 36 581 l 1
 96 694 188 751 311 751 c 0xe0
EndSplineSet
Validated: 1
Layer: 2
SplineSet
311 751 m 0,0,1
 383 751 383 751 434.5 716 c 128,-1,2
 486 681 486 681 486 620 c 0,3,4
 486 569 486 569 450 521 c 1,5,-1
 379 441 l 1,6,-1
 383 434 l 1,7,8
 440 434 440 434 485 394 c 0,9,10
 527 357 527 357 527 297 c 0,11,12
 527 170 527 170 377 64 c 0,13,14
 251 -24 251 -24 114 -49 c 1,15,-1
 89 6 l 1,16,17
 362 75 362 75 362 244 c 0,18,19
 362 293 362 293 329 321.5 c 128,-1,20
 296 350 296 350 244 350 c 0,21,22
 213 350 213 350 159 324 c 1,23,-1
 138 364 l 1,24,25
 204 386 204 386 268.5 446.5 c 128,-1,26
 333 507 333 507 333 568 c 0,27,28
 333 601 333 601 304.5 620.5 c 128,-1,29
 276 640 276 640 237 640 c 0,30,31
 143 640 143 640 89 544 c 1,32,-1
 36 581 l 1,33,34
 126 751 126 751 311 751 c 0,0,1
EndSplineSet
Validated: 19457
Colour: ff00
EndChar

StartChar: uni0034
Encoding: 52 52 17
Width: 655
GlyphClass: 2
Flags: MW
HStem: 0 32<275 359 498 572> 195 115<499.728 583> 210 96<127.188 359>
LayerCount: 3
Fore
SplineSet
583 195 m 1xc0
 563 195 535 203 498 210 c 1
 498 32 l 1
 572 32 l 1
 572 0 l 1
 275 0 l 1
 275 32 l 1
 359 32 l 1
 359 210 l 1
 268 210 l 2xa0
 158 210 81 198 38 175 c 1
 21 246 l 1
 166 459 301 610 424 700 c 1
 424 700 447 716 460 727 c 0
 469 735 478 737 488 756 c 1
 537 736 l 1
 511 678 498 617 498 558 c 2
 498 310 l 1
 502 310 l 2
 543 310 582 319 619 337 c 1
 583 195 l 1xc0
139 298 m 2
 180 298 318 306 359 306 c 1
 359 576 l 1
 282 513 205 420 127 298 c 1
 139 298 l 2
EndSplineSet
Validated: 1
Layer: 2
SplineSet
583 195 m 1,0,1
 577 195 577 195 498 210 c 1,2,-1
 498 32 l 1,3,-1
 572 32 l 1,4,-1
 572 0 l 1,5,-1
 275 0 l 1,6,-1
 275 32 l 1,7,-1
 359 32 l 1,8,-1
 359 210 l 1,9,-1
 268 210 l 2,10,11
 103 210 103 210 38 175 c 1,12,-1
 21 246 l 1,13,14
 237 563 237 563 424 700 c 0,15,16
 447 716 447 716 460 727 c 0,17,18
 462 729 462 729 468.5 733.5 c 128,-1,19
 475 738 475 738 479 742.5 c 128,-1,20
 483 747 483 747 488 756 c 1,21,-1
 537 736 l 1,22,23
 498 649 498 649 498 558 c 2,24,-1
 498 310 l 1,25,-1
 502 310 l 2,26,27
 564 310 564 310 619 337 c 1,28,-1
 583 195 l 1,0,1
139 298 m 2,29,30
 160 298 160 298 249 302 c 128,-1,31
 338 306 338 306 359 306 c 1,32,-1
 359 576 l 1,33,34
 245 483 245 483 127 298 c 1,35,-1
 139 298 l 2,29,30
EndSplineSet
Validated: 19457
Colour: ff00
EndChar

StartChar: uni0035
Encoding: 53 53 18
Width: 470
GlyphClass: 2
Flags: W
HStem: -38 50<79.48 131.929> 609 122<130.939 331.81> 609 102<130.939 396.964>
VStem: 31 81<476.5 590> 301 138<206.312 346>
LayerCount: 3
Fore
SplineSet
64 12 m 1xd8
 174 33 301 117 301 234 c 0
 301 279 277 315 230 341 c 1
 101 397 l 1
 54 421 31 455 31 498 c 0
 31 539 61 616 121 731 c 1xd8
 258 731 329 711 332 711 c 0xb8
 375 711 405 726 424 756 c 1
 452 749 l 1
 441 729 423 684 398 615 c 1
 376 611 347 609 311 609 c 2
 260 609 l 2
 235 609 191 615 128 627 c 1
 127 626 126 624 126 623 c 0
 117 608 112 595 112 585 c 0
 112 547 140 520 197 505 c 0
 293 480 345 465 354 461 c 0
 411 432 439 382 439 310 c 0
 439 224 400 146 323 76 c 1
 250 11 170 -27 82 -38 c 1
 64 12 l 1xd8
EndSplineSet
Validated: 1
Layer: 2
SplineSet
64 12 m 1,0,1
 155 29 155 29 228 90.5 c 128,-1,2
 301 152 301 152 301 234 c 0,3,4
 301 302 301 302 230 341 c 1,5,-1
 101 397 l 1,6,7
 31 433 31 433 31 498 c 0,8,9
 31 558 31 558 121 731 c 1,10,11
 159 731 159 731 194.5 729 c 128,-1,12
 230 727 230 727 254 724 c 128,-1,13
 278 721 278 721 295.5 718 c 128,-1,14
 313 715 313 715 322 713 c 2,15,-1
 332 711 l 1,16,17
 396 711 396 711 424 756 c 1,18,-1
 452 749 l 1,19,20
 436 720 436 720 398 615 c 1,21,22
 365 609 365 609 311 609 c 2,23,-1
 260 609 l 2,24,25
 222 609 222 609 128 627 c 1,26,27
 126 625 126 625 126 623 c 1,28,29
 112 600 112 600 112 585 c 0,30,31
 112 527 112 527 197 505 c 0,32,33
 337 469 337 469 354 461 c 0,34,35
 439 418 439 418 439 310 c 0,36,37
 439 181 439 181 323 76 c 1,38,39
 213 -22 213 -22 82 -38 c 1,40,-1
 64 12 l 1,0,1
EndSplineSet
Validated: 19457
Colour: ff00
EndChar

StartChar: uni0036
Encoding: 54 54 19
Width: 557
GlyphClass: 2
Flags: W
HStem: -14 21G<261.5 309> 406 124<278.265 359.083> 760 20G<272.5 412.379>
VStem: 35 127<266.091 394.423> 455 80<198.5 312>
LayerCount: 3
Fore
SplineSet
214 421 m 1
 235 450 310 530 348 530 c 0
 388 530 430 500 473 440 c 0
 514 383 535 333 535 291 c 0
 535 245 505 183 445 106 c 0
 382 26 330 -14 288 -14 c 0
 235 -14 179 25 120 102 c 0
 63 176 35 242 35 301 c 0
 35 422 154 581 391 780 c 1
 422 751 l 1
 257 576 l 1
 194 499 162 428 162 362 c 0
 162 301 185 246 230 199 c 0
 257 171 306 134 377 89 c 1
 430 143 l 1
 447 164 455 186 455 211 c 0
 455 253 433 296 388 340 c 0
 344 384 300 406 255 406 c 0
 248 406 241 405 234 403 c 1
 214 421 l 1
EndSplineSet
Validated: 1
Layer: 2
SplineSet
214 421 m 1,0,1
 236 452 236 452 279.5 491 c 128,-1,2
 323 530 323 530 348 530 c 0,3,4
 408 530 408 530 473 440 c 0,5,6
 535 354 535 354 535 291 c 0,7,8
 535 222 535 222 445 106 c 0,9,10
 351 -14 351 -14 288 -14 c 0,11,12
 209 -14 209 -14 120 102 c 0,13,14
 35 212 35 212 35 301 c 0,15,16
 35 481 35 481 391 780 c 1,17,-1
 422 751 l 1,18,-1
 257 576 l 1,19,20
 162 460 162 460 162 362 c 0,21,22
 162 270 162 270 230 199 c 0,23,24
 272 156 272 156 377 89 c 1,25,-1
 430 143 l 1,26,27
 455 174 455 174 455 211 c 0,28,29
 455 273 455 273 388 340 c 0,30,31
 322 406 322 406 255 406 c 0,32,33
 244 406 244 406 234 403 c 1,34,-1
 214 421 l 1,0,1
EndSplineSet
Validated: 19457
Colour: ff00
EndChar

StartChar: uni0037
Encoding: 55 55 20
Width: 551
GlyphClass: 2
Flags: W
HStem: 580 150<115.47 384.856>
LayerCount: 3
Fore
SplineSet
536 725 m 1
 507 689 459 600 394 458 c 0
 335 329 295 233 276 172 c 1
 255 110 245 46 245 -19 c 0
 245 -50 247 -75 251 -92 c 1
 206 -75 167 -67 132 -67 c 0
 127 -67 123 -67 118 -67 c 1
 151 119 292 416 385 580 c 1
 180 580 l 2
 139 580 116 569 109 548 c 1
 58 566 l 1
 69 607 88 666 114 744 c 1
 145 735 199 730 276 730 c 0
 381 730 455 739 498 756 c 1
 536 725 l 1
EndSplineSet
Validated: 1
Layer: 2
SplineSet
536 725 m 1,0,1
 490 668 490 668 394 458 c 0,2,3
 303 260 303 260 276 172 c 1,4,5
 245 80 245 80 245 -19 c 0,6,7
 245 -66 245 -66 251 -92 c 1,8,9
 185 -67 185 -67 132 -67 c 2,10,11
 118 -67 l 1,12,13
 141 60 141 60 221.5 247 c 128,-1,14
 302 434 302 434 385 580 c 1,15,-1
 180 580 l 2,16,17
 120 580 120 580 109 548 c 1,18,-1
 58 566 l 1,19,20
 72 617 72 617 114 744 c 1,21,22
 162 730 162 730 276 730 c 0,23,24
 432 730 432 730 498 756 c 1,25,-1
 536 725 l 1,0,1
EndSplineSet
Validated: 19457
Colour: ff00
EndChar

StartChar: uni0038
Encoding: 56 56 21
Width: 594
GlyphClass: 2
Flags: W
HStem: -14 87<271.5 381> 664 87<213.5 336.5>
VStem: 57 95<200.5 298.412> 81 87<500 617> 437 91<490.141 552.973> 457 104<141.459 219.566>
LayerCount: 3
Fore
SplineSet
457 60 m 1xc4
 390 11 337 -14 294 -14 c 0
 249 -14 198 14 141 70 c 0
 85 126 57 177 57 224 c 0xe4
 57 287 98 341 179 386 c 1
 114 429 81 475 81 525 c 0
 81 573 108 623 162 674 c 0
 216 725 267 751 315 751 c 0
 358 751 404 728 454 681 c 0
 503 634 528 590 528 547 c 0xd8
 528 507 490 459 413 402 c 1
 470 365 505 338 519 323 c 0
 547 292 561 251 561 201 c 0
 561 160 526 113 457 60 c 1xc4
227 664 m 0
 200 664 168 631 168 603 c 0
 168 566 195 530 250 495 c 1
 268 482 311 459 380 426 c 1
 418 443 437 468 437 501 c 0xd8
 437 533 410 568 357 606 c 0
 304 645 260 664 227 664 c 0
203 197 m 0
 227 174 323 73 378 73 c 0
 384 73 389 74 394 76 c 1
 428 99 l 1
 447 114 457 134 457 157 c 0
 457 189 444 216 417 239 c 0
 395 258 360 283 312 312 c 0
 258 345 224 362 209 362 c 0
 178 362 152 323 152 292 c 0xe4
 152 259 170 228 203 197 c 0
EndSplineSet
Validated: 1
Layer: 2
SplineSet
457 60 m 1,0,1
 356 -14 356 -14 294 -14 c 0,2,3
 226 -14 226 -14 141 70 c 1,4,5
 57 154 57 154 57 224 c 0,6,7
 57 318 57 318 179 386 c 1,8,9
 81 451 81 451 81 525 c 0,10,11
 81 598 81 598 162 674 c 0,12,13
 244 751 244 751 315 751 c 0,14,15
 380 751 380 751 454 681 c 0,16,17
 528 610 528 610 528 547 c 0,18,19
 528 487 528 487 413 402 c 1,20,21
 495 349 495 349 519 323 c 0,22,23
 561 277 561 277 561 201 c 0,24,25
 561 140 561 140 457 60 c 1,0,1
227 664 m 0,26,27
 207 664 207 664 187.5 644 c 128,-1,28
 168 624 168 624 168 603 c 0,29,30
 168 547 168 547 250 495 c 1,31,32
 278 475 278 475 380 426 c 1,33,34
 437 452 437 452 437 501 c 0,35,36
 437 549 437 549 357 606 c 1,37,38
 278 664 278 664 227 664 c 0,26,27
203 197 m 0,39,40
 204 196 204 196 217 183.5 c 128,-1,41
 230 171 230 171 239 162 c 128,-1,42
 248 153 248 153 264 138.5 c 128,-1,43
 280 124 280 124 294 114 c 128,-1,44
 308 104 308 104 323.5 94 c 128,-1,45
 339 84 339 84 353 78.5 c 128,-1,46
 367 73 367 73 378 73 c 0,47,48
 386 73 386 73 394 76 c 1,49,-1
 428 99 l 1,50,51
 457 122 457 122 457 157 c 0,52,53
 457 205 457 205 417 239 c 0,54,55
 380 271 380 271 312 312 c 0,56,57
 230 362 230 362 209 362 c 0,58,59
 187 362 187 362 169.5 339 c 128,-1,60
 152 316 152 316 152 292 c 0,61,62
 152 245 152 245 203 197 c 0,39,40
EndSplineSet
Validated: 19457
Colour: ff00
EndChar

StartChar: uni0039
Encoding: 57 57 22
Width: 570
GlyphClass: 2
Flags: W
HStem: 213 124<214.937 300.951>
VStem: 42 79<429.5 536.154> 412 128<347.16 481.255>
LayerCount: 3
Fore
SplineSet
363 321 m 1
 339 287 273 213 229 213 c 0
 188 213 146 243 103 302 c 0
 62 359 42 408 42 451 c 0
 42 524 92 604 193 689 c 1
 237 727 l 1
 258 743 275 751 290 751 c 0
 337 751 391 716 451 645 c 0
 510 574 540 511 540 454 c 0
 540 369 497 278 412 179 c 0
 381 142 306 69 185 -40 c 1
 151 0 l 1
 245 73 412 251 412 386 c 0
 412 447 389 500 343 545 c 0
 334 554 286 590 199 653 c 1
 147 609 121 568 121 529 c 0
 121 484 143 440 186 399 c 0
 229 358 275 337 322 337 c 0
 329 337 336 337 342 338 c 1
 363 321 l 1
EndSplineSet
Validated: 1
Layer: 2
SplineSet
363 321 m 1,0,1
 338 286 338 286 298 249.5 c 128,-1,2
 258 213 258 213 229 213 c 0,3,4
 168 213 168 213 103 302 c 0,5,6
 42 387 42 387 42 451 c 0,7,8
 42 562 42 562 193 689 c 1,9,-1
 237 727 l 1,10,11
 268 751 268 751 290 751 c 0,12,13
 361 751 361 751 451 645 c 1,14,15
 540 538 540 538 540 454 c 0,16,17
 540 328 540 328 412 179 c 0,18,19
 362 120 362 120 185 -40 c 1,20,-1
 151 0 l 1,21,22
 205 42 205 42 261 102 c 128,-1,23
 317 162 317 162 364.5 242.5 c 128,-1,24
 412 323 412 323 412 386 c 0,25,26
 412 478 412 478 343 545 c 0,27,28
 328 560 328 560 199 653 c 1,29,30
 121 587 121 587 121 529 c 0,31,32
 121 461 121 461 186 399 c 128,-1,33
 251 337 251 337 322 337 c 0,34,35
 336 337 336 337 342 338 c 1,36,-1
 363 321 l 1,0,1
EndSplineSet
Validated: 19457
Colour: ff00
EndChar

StartChar: uni003A
Encoding: 58 58 23
Width: 276
GlyphClass: 2
Flags: W
HStem: -14 21G<139.5 140.5>
VStem: 68 147
AnchorPoint: "left" 21.7778 509.2 basechar 0
AnchorPoint: "right" 275 512 basechar 0
LayerCount: 3
Fore
SplineSet
144 -12 m 2
 143 -14 141 -14 140 -14 c 0
 139 -14 137 -14 136 -12 c 2
 68 68 l 2
 67 70 68 71 68 73 c 0
 68 74 67 76 68 77 c 2
 136 156 l 2
 139 159 141 159 144 156 c 2
 215 77 l 2
 216 76 216 74 216 73 c 0
 216 72 216 71 215 70 c 2
 144 -12 l 2
144 254 m 2
 143 252 141 252 140 252 c 0
 139 252 137 252 136 254 c 2
 68 334 l 2
 67 336 68 337 68 339 c 0
 68 340 67 342 68 343 c 2
 136 422 l 2
 137 423 139 424 140 424 c 0
 141 424 143 423 144 422 c 2
 215 343 l 2
 216 342 216 340 216 339 c 0
 216 338 216 337 215 336 c 2
 144 254 l 2
EndSplineSet
Validated: 19457
Layer: 2
SplineSet
144 -12 m 2,0,1
 143 -14 143 -14 140 -14 c 128,-1,2
 137 -14 137 -14 136 -12 c 2,3,-1
 68 68 l 1,4,-1
 68 73 l 1,5,-1
 68 77 l 1,6,-1
 136 156 l 2,7,8
 140 160 140 160 144 156 c 2,9,-1
 215 77 l 2,10,11
 216 76 216 76 216 73 c 0,12,13
 216 71 216 71 215 70 c 2,14,-1
 144 -12 l 2,0,1
144 254 m 2,15,16
 143 252 143 252 140 252 c 128,-1,17
 137 252 137 252 136 254 c 2,18,-1
 68 334 l 1,19,-1
 68 339 l 1,20,-1
 68 343 l 1,21,-1
 136 422 l 2,22,23
 138 424 138 424 140 424 c 128,-1,24
 142 424 142 424 144 422 c 2,25,-1
 215 343 l 2,26,27
 216 342 216 342 216 339 c 0,28,29
 216 337 216 337 215 336 c 2,30,-1
 144 254 l 2,15,16
EndSplineSet
Validated: 19457
Substitution2: "'locl' Localized Forms in Latin lookup 19-1" uni003A.latin
Colour: ff00
EndChar

StartChar: uni003C
Encoding: 60 60 24
Width: 611
GlyphClass: 2
Flags: W
DStem2: 161 296 40 296 0.894756 -0.446554<0 471.81> 40 296 161 296 0.894098 0.447872<108.186 580.444>
LayerCount: 3
Fore
SplineSet
583 508 m 1
 161 296 l 1
 583 85 l 1
 583 25 l 1
 40 296 l 1
 583 568 l 1
 583 508 l 1
EndSplineSet
Validated: 1
Layer: 2
SplineSet
583 508 m 1,0,-1
 161 296 l 1,1,-1
 583 85 l 1,2,-1
 583 25 l 1,3,-1
 40 296 l 1,4,-1
 583 568 l 1,5,-1
 583 508 l 1,0,-1
EndSplineSet
Validated: 19457
Colour: ff00
EndChar

StartChar: uni003D
Encoding: 61 61 25
Width: 451
GlyphClass: 2
Flags: W
HStem: 202 137<0 448> 419 137<0 447>
LayerCount: 3
Fore
SplineSet
0 556 m 1
 447 556 l 1
 447 419 l 1
 0 419 l 1
 0 556 l 1
0 339 m 1
 448 339 l 1
 448 202 l 1
 0 202 l 1
 0 339 l 1
EndSplineSet
Validated: 1
Layer: 2
SplineSet
0 556 m 1,0,-1
 447 556 l 1,1,-1
 447 419 l 1,2,-1
 0 419 l 1,3,-1
 0 556 l 1,0,-1
0 339 m 1,4,-1
 448 339 l 1,5,-1
 448 202 l 1,6,-1
 0 202 l 1,7,-1
 0 339 l 1,4,-1
EndSplineSet
Validated: 19457
Colour: ff00
EndChar

StartChar: uni003E
Encoding: 62 62 26
Width: 600
GlyphClass: 2
Flags: W
DStem2: 40 568 40 508 0.894098 -0.447872<26.8723 500.025> 40 84 40 25 0.894756 0.446554<0 473.152>
LayerCount: 3
Fore
SplineSet
40 84 m 1
 463 296 l 1
 40 508 l 1
 40 568 l 1
 583 296 l 1
 40 25 l 1
 40 84 l 1
EndSplineSet
Validated: 1
Layer: 2
SplineSet
40 84 m 1,0,-1
 463 296 l 1,1,-1
 40 508 l 1,2,-1
 40 568 l 1,3,-1
 583 296 l 1,4,-1
 40 25 l 1,5,-1
 40 84 l 1,0,-1
EndSplineSet
Validated: 19457
Colour: ff00
EndChar

StartChar: uni003F
Encoding: 63 63 27
Width: 368
GlyphClass: 2
Flags: W
HStem: 702 79<43 177.133>
VStem: 243 98<556.137 648.508>
LayerCount: 3
Fore
SplineSet
129 781 m 0
 234 781 341 725 341 626 c 0
 341 579 312 533 254 487 c 1
 219 458 l 2
 173 421 150 391 150 367 c 0
 150 330 177 303 232 285 c 1
 205 268 181 242 161 209 c 1
 116 228 86 252 70 279 c 1
 79 328 108 385 157 448 c 1
 181 480 l 1
 222 532 243 570 243 594 c 0
 243 666 154 702 76 702 c 0
 69 702 58 701 43 700 c 1
 63 722 79 748 92 779 c 1
 105 780 117 781 129 781 c 0
220 84 m 1
 189 68 163 41 140 4 c 1
 117 41 91 67 60 84 c 1
 91 100 117 127 140 164 c 1
 163 127 189 100 220 84 c 1
EndSplineSet
Validated: 1
Layer: 2
SplineSet
129 781 m 0,0,1
 213 781 213 781 277 739 c 128,-1,2
 341 697 341 697 341 626 c 0,3,4
 341 556 341 556 254 487 c 1,5,-1
 219 458 l 2,6,7
 150 402 150 402 150 367 c 0,8,9
 150 312 150 312 232 285 c 1,10,11
 192 260 192 260 161 209 c 1,12,13
 95 237 95 237 70 279 c 1,14,15
 84 354 84 354 157 448 c 1,16,-1
 181 480 l 1,17,18
 243 559 243 559 243 594 c 0,19,20
 243 644 243 644 192 673 c 128,-1,21
 141 702 141 702 76 702 c 0,22,23
 73 702 73 702 43 700 c 1,24,25
 72 732 72 732 92 779 c 1,26,27
 118 781 118 781 129 781 c 0,0,1
220 84 m 1,28,29
 175 61 175 61 140 4 c 1,30,31
 106 59 106 59 60 84 c 1,32,33
 105 107 105 107 140 164 c 1,34,35
 175 107 175 107 220 84 c 1,28,29
EndSplineSet
Validated: 19457
Colour: ff00
EndChar

StartChar: uni005B
Encoding: 91 91 28
Width: 297
GlyphClass: 2
Flags: W
HStem: -200 19<120 261> 903 19<120 261>
VStem: 63 57<-181 903>
LayerCount: 3
Fore
SplineSet
63 -200 m 1
 63 922 l 1
 261 922 l 1
 261 903 l 1
 120 903 l 1
 120 -181 l 1
 261 -181 l 1
 261 -200 l 1
 63 -200 l 1
EndSplineSet
Validated: 1
Layer: 2
SplineSet
63 -200 m 1,0,-1
 63 922 l 1,1,-1
 261 922 l 1,2,-1
 261 903 l 1,3,-1
 120 903 l 1,4,-1
 120 -181 l 1,5,-1
 261 -181 l 1,6,-1
 261 -200 l 1,7,-1
 63 -200 l 1,0,-1
EndSplineSet
Validated: 19457
Colour: ff00
EndChar

StartChar: uni005C
Encoding: 92 92 29
Width: 555
GlyphClass: 2
Flags: W
VStem: 6 55<958 1013> 396 55<-202 -147>
DStem2: 61 1013 6 1013 0.305629 -0.952151<0 1259.25>
LayerCount: 3
Fore
SplineSet
451 -202 m 1
 396 -202 l 1
 6 1013 l 1
 61 1013 l 1
 451 -202 l 1
EndSplineSet
Validated: 1
Layer: 2
SplineSet
451 -202 m 1,0,-1
 396 -202 l 1,1,-1
 6 1013 l 1,2,-1
 61 1013 l 1,3,-1
 451 -202 l 1,0,-1
EndSplineSet
Validated: 19457
Colour: ff00
EndChar

StartChar: uni005D
Encoding: 93 93 30
Width: 297
GlyphClass: 2
Flags: W
HStem: -200 19<18 159> 903 19<18 159>
VStem: 159 57<-181 903>
LayerCount: 3
Fore
SplineSet
18 -200 m 1
 18 -181 l 1
 159 -181 l 1
 159 903 l 1
 18 903 l 1
 18 922 l 1
 216 922 l 1
 216 -200 l 1
 18 -200 l 1
EndSplineSet
Validated: 1
Layer: 2
SplineSet
18 -200 m 1,0,-1
 18 -181 l 1,1,-1
 159 -181 l 1,2,-1
 159 903 l 1,3,-1
 18 903 l 1,4,-1
 18 922 l 1,5,-1
 216 922 l 1,6,-1
 216 -200 l 1,7,-1
 18 -200 l 1,0,-1
EndSplineSet
Validated: 19457
Colour: ff00
EndChar

StartChar: uni005F
Encoding: 95 95 31
Width: 468
GlyphClass: 2
Flags: W
HStem: -48 96<0 438>
LayerCount: 3
Fore
SplineSet
0 48 m 1
 438 48 l 1
 438 -48 l 1
 0 -48 l 1
 0 48 l 1
EndSplineSet
Validated: 1
Layer: 2
SplineSet
0 48 m 1,0,-1
 438 48 l 1,1,-1
 438 -48 l 1,2,-1
 0 -48 l 1,3,-1
 0 48 l 1,0,-1
EndSplineSet
Validated: 19457
Colour: ff00
EndChar

StartChar: uni007B
Encoding: 123 123 32
Width: 320
GlyphClass: 2
Flags: W
HStem: -242 20<258.485 296> 343 20<15 50.6535> 932 20<258.485 296>
VStem: 115 65<-113.81 252.053 449.296 820.952>
LayerCount: 3
Fore
SplineSet
115 56 m 0
 115 247 84 343 21 343 c 0
 19 343 17 343 15 343 c 1
 15 363 l 1
 17 363 19 363 21 363 c 0
 84 363 115 459 115 652 c 0
 115 852 175 952 296 952 c 1
 296 932 l 1
 219 932 180 850 180 686 c 2
 180 646 l 2
 180 484 153 387 99 353 c 1
 153 312 180 213 180 56 c 2
 180 17 l 2
 180 -142 219 -222 296 -222 c 1
 296 -242 l 1
 175 -242 115 -143 115 56 c 0
EndSplineSet
Validated: 1
Layer: 2
SplineSet
115 56 m 0,0,1
 115 343 115 343 21 343 c 2,2,3
 15 343 l 1,4,-1
 15 363 l 1,5,6
 21 363 l 2,7,8
 115 363 115 363 115 652 c 0,9,10
 115 952 115 952 296 952 c 1,11,-1
 296 932 l 1,12,13
 180 932 180 932 180 686 c 2,14,-1
 180 646 l 2,15,16
 180 404 180 404 99 353 c 1,17,18
 180 292 180 292 180 56 c 2,19,-1
 180 17 l 2,20,21
 180 -222 180 -222 296 -222 c 1,22,-1
 296 -242 l 1,23,24
 115 -242 115 -242 115 56 c 0,0,1
EndSplineSet
Validated: 19457
Colour: ff00
EndChar

StartChar: uni007C
Encoding: 124 124 33
Width: 161
GlyphClass: 2
Flags: W
VStem: 54 56<-306 1032>
LayerCount: 3
Fore
SplineSet
110 -306 m 1
 54 -324 l 1
 54 1032 l 1
 110 1051 l 1
 110 -306 l 1
EndSplineSet
Validated: 1
Layer: 2
SplineSet
110 -306 m 1,0,-1
 54 -324 l 1,1,-1
 54 1032 l 1,2,-1
 110 1051 l 1,3,-1
 110 -306 l 1,0,-1
EndSplineSet
Validated: 19457
Colour: ff00
EndChar

StartChar: uni007D
Encoding: 125 125 34
Width: 302
GlyphClass: 2
Flags: W
HStem: -242 20<6 43.5152> 343 20<251.346 287> 932 20<6 43.5152>
VStem: 122 65<-113.81 252.053 449.296 820.952>
LayerCount: 3
Fore
SplineSet
6 -242 m 1
 6 -222 l 1
 83 -222 122 -142 122 17 c 2
 122 56 l 2
 122 213 149 312 203 353 c 1
 149 387 122 484 122 646 c 2
 122 686 l 2
 122 850 83 932 6 932 c 1
 6 952 l 1
 127 952 187 852 187 652 c 0
 187 459 218 363 281 363 c 0
 283 363 285 363 287 363 c 1
 287 343 l 1
 285 343 283 343 281 343 c 0
 218 343 187 247 187 56 c 0
 187 -143 127 -242 6 -242 c 1
EndSplineSet
Validated: 1
Layer: 2
SplineSet
6 -242 m 1,0,-1
 6 -222 l 1,1,2
 122 -222 122 -222 122 17 c 2,3,-1
 122 56 l 2,4,5
 122 292 122 292 203 353 c 1,6,7
 122 404 122 404 122 646 c 2,8,-1
 122 686 l 2,9,10
 122 932 122 932 6 932 c 1,11,-1
 6 952 l 1,12,13
 187 952 187 952 187 652 c 0,14,15
 187 363 187 363 281 363 c 2,16,17
 287 363 l 1,18,-1
 287 343 l 1,19,20
 281 343 l 2,21,22
 187 343 187 343 187 56 c 0,23,24
 187 -242 187 -242 6 -242 c 1,0,-1
EndSplineSet
Validated: 19457
Colour: ff00
EndChar

StartChar: uni00AB
Encoding: 171 171 36
Width: 480
GlyphClass: 2
Flags: W
HStem: -5 21G<212.767 255 422.498 467> 417 20G<212.47 255 422.196 467>
LayerCount: 3
Fore
SplineSet
229 -5 m 1
 48 218 l 1
 229 437 l 1
 255 437 l 1
 141 218 l 1
 255 -5 l 1
 229 -5 l 1
439 -5 m 1
 255 218 l 1
 439 437 l 1
 467 437 l 1
 354 218 l 1
 467 -5 l 1
 439 -5 l 1
EndSplineSet
Validated: 1
Layer: 2
SplineSet
229 -5 m 1,0,-1
 48 218 l 1,1,-1
 229 437 l 1,2,-1
 255 437 l 1,3,-1
 141 218 l 1,4,-1
 255 -5 l 1,5,-1
 229 -5 l 1,0,-1
439 -5 m 1,6,-1
 255 218 l 1,7,-1
 439 437 l 1,8,-1
 467 437 l 1,9,-1
 354 218 l 1,10,-1
 467 -5 l 1,11,-1
 439 -5 l 1,6,-1
EndSplineSet
Validated: 19457
Colour: ff00
EndChar

StartChar: uni00AC
Encoding: 172 172 37
Width: 399
GlyphClass: 2
Flags: W
HStem: 223 59<36 310>
VStem: 310 57<91 223>
LayerCount: 3
Fore
SplineSet
367 282 m 1
 367 91 l 1
 310 91 l 1
 310 223 l 1
 36 223 l 1
 36 282 l 1
 367 282 l 1
EndSplineSet
Validated: 1
Layer: 2
SplineSet
367 282 m 1,0,-1
 367 91 l 1,1,-1
 310 91 l 1,2,-1
 310 223 l 1,3,-1
 36 223 l 1,4,-1
 36 282 l 1,5,-1
 367 282 l 1,0,-1
EndSplineSet
Validated: 19457
Colour: ff00
EndChar

StartChar: uni00AD
Encoding: 173 173 38
Width: 449
GlyphClass: 2
Flags: W
HStem: 219 137<0 447>
LayerCount: 3
Fore
SplineSet
0 356 m 1
 447 356 l 1
 447 219 l 1
 0 219 l 1
 0 356 l 1
EndSplineSet
Validated: 1
Layer: 2
SplineSet
0 356 m 1,0,-1
 447 356 l 1,1,-1
 447 219 l 1,2,-1
 0 219 l 1,3,-1
 0 356 l 1,0,-1
EndSplineSet
Validated: 19457
Colour: ff00
EndChar

StartChar: uni00B6
Encoding: 182 182 39
Width: 512
GlyphClass: 2
Flags: W
HStem: 758 20G<203.5 315 396 477>
VStem: 34 281<480.402 665.516> 235 80<-256 373> 396 81<-256 778>
LayerCount: 3
Fore
SplineSet
34 579 m 0xd0
 34 631 60 683 89 716 c 0
 124 753 172 778 235 778 c 2
 315 778 l 1
 315 -256 l 1
 235 -256 l 1
 235 373 l 1xb0
 178 373 131 389 96 426 c 0
 63 461 34 503 34 579 c 0xd0
396 778 m 1
 477 778 l 1
 477 -256 l 1
 396 -256 l 1
 396 778 l 1
EndSplineSet
Validated: 1
Layer: 2
SplineSet
34 579 m 0,0,1
 34 653 34 653 89 716 c 1,2,3
 148 778 148 778 235 778 c 2,4,-1
 315 778 l 1,5,-1
 315 -256 l 1,6,-1
 235 -256 l 1,7,-1
 235 373 l 1,8,9
 146 373 146 373 96 426 c 0,10,11
 34 492 34 492 34 579 c 0,0,1
396 778 m 1,12,-1
 477 778 l 1,13,-1
 477 -256 l 1,14,-1
 396 -256 l 1,15,-1
 396 778 l 1,12,-1
EndSplineSet
Validated: 19457
Colour: ff00
EndChar

StartChar: uni00B7
Encoding: 183 183 40
Width: 149
GlyphClass: 2
Flags: W
HStem: 153 130<26.8503 122.603>
VStem: 10 129<169.85 266.15>
LayerCount: 3
Fore
SplineSet
10 218 m 260
 10 254 39 283 75 283 c 260
 111 283 139 254 139 218 c 260
 139 182 111 153 75 153 c 260
 39 153 10 182 10 218 c 260
EndSplineSet
Validated: 1
Layer: 2
SplineSet
10 218 m 260,0,1
 10 245 10 245 29 264 c 128,-1,2
 48 283 48 283 75 283 c 128,-1,3
 102 283 102 283 120.5 264 c 128,-1,4
 139 245 139 245 139 218 c 128,-1,5
 139 191 139 191 120.5 172 c 128,-1,6
 102 153 102 153 75 153 c 128,-1,7
 48 153 48 153 29 172 c 128,-1,8
 10 191 10 191 10 218 c 260,0,1
EndSplineSet
Validated: 19457
Colour: ff00
EndChar

StartChar: uni00BB
Encoding: 187 187 41
Width: 480
GlyphClass: 2
Flags: W
HStem: -5 21G<13 57.6516 225 267.38> 417 20G<13 57.6516 225 267.38>
VStem: 126 99<166.5 265.5> 339 93<169.5 262.5>
LayerCount: 3
Fore
SplineSet
251 437 m 1
 432 216 l 1
 251 -5 l 1
 225 -5 l 1
 339 216 l 1
 225 437 l 1
 251 437 l 1
41 437 m 1
 225 216 l 1
 41 -5 l 1
 13 -5 l 1
 126 216 l 1
 13 437 l 1
 41 437 l 1
EndSplineSet
Validated: 1
Layer: 2
SplineSet
251 437 m 1,0,-1
 432 216 l 1,1,-1
 251 -5 l 1,2,-1
 225 -5 l 1,3,-1
 339 216 l 1,4,-1
 225 437 l 1,5,-1
 251 437 l 1,0,-1
41 437 m 1,6,-1
 225 216 l 1,7,-1
 41 -5 l 1,8,-1
 13 -5 l 1,9,-1
 126 216 l 1,10,-1
 13 437 l 1,11,-1
 41 437 l 1,6,-1
EndSplineSet
Validated: 19457
Colour: ff00
EndChar

StartChar: uniA67E
Encoding: 42622 42622 42
Width: 334
GlyphClass: 2
Flags: W
HStem: 538 57<112.682 221.619>
VStem: 21 58<630.305 729> 253 58<627.75 729>
LayerCount: 3
Fore
SplineSet
166 538 m 0
 92 538 48 586 30 643 c 0
 24 662 21 682 21 701 c 2
 21 729 l 1
 79 729 l 1
 79 704 l 2
 79 659 97 624 126 606 c 1
 136 598 150 595 166 595 c 0
 225 595 253 646 253 704 c 2
 253 729 l 1
 311 729 l 1
 311 701 l 2
 311 630 276 578 229 552 c 0
 211 543 190 538 166 538 c 0
EndSplineSet
Validated: 1
Layer: 2
SplineSet
166 538 m 0,0,1
 114 538 114 538 79.5 567.5 c 128,-1,2
 45 597 45 597 30 643 c 0,3,4
 21 672 21 672 21 701 c 2,5,-1
 21 729 l 1,6,-1
 79 729 l 1,7,-1
 79 704 l 2,8,9
 79 635 79 635 126 606 c 1,10,11
 140 595 140 595 166 595 c 0,12,13
 208 595 208 595 230.5 626 c 128,-1,14
 253 657 253 657 253 704 c 2,15,-1
 253 729 l 1,16,-1
 311 729 l 1,17,-1
 311 701 l 2,18,19
 311 650 311 650 288.5 611 c 128,-1,20
 266 572 266 572 229 552 c 0,21,22
 201 538 201 538 166 538 c 0,0,1
EndSplineSet
Validated: 19457
Colour: ff00
EndChar

StartChar: uni0300
Encoding: 768 768 43
Width: 0
GlyphClass: 4
Flags: W
HStem: 539 227
VStem: -328 194
AnchorPoint: "stacking" -158.722 539 mark 0
AnchorPoint: "stacking" -280 788 basemark 0
AnchorPoint: "Diacritic" -161 539 mark 0
LayerCount: 3
Fore
SplineSet
-173 539 m 1
 -328 762 l 2
 -329 763 -328 763 -328 764 c 0
 -328 766 -327 766 -325 766 c 0
 -324 766 -323 766 -322 766 c 2
 -252 766 l 1
 -134 548 l 2
 -133 546 -133 545 -133 544 c 0
 -133 541 -135 539 -138 539 c 2
 -173 539 l 1
EndSplineSet
Validated: 19457
Layer: 2
SplineSet
-173 539 m 1,0,-1
 -328 762 l 1,1,2
 -328 764 l 2,3,4
 -328 766 -328 766 -325 766 c 2,5,6
 -322 766 l 1,7,-1
 -252 766 l 1,8,-1
 -134 548 l 2,9,10
 -133 546 -133 546 -133 544 c 0,11,12
 -133 539 -133 539 -138 539 c 2,13,-1
 -173 539 l 1,0,-1
EndSplineSet
Validated: 19457
Colour: ff00
EndChar

StartChar: uni0301
Encoding: 769 769 44
Width: 0
GlyphClass: 4
Flags: W
HStem: 539 222
VStem: -241 192
AnchorPoint: "stacking" -76.7222 788.2 basemark 0
AnchorPoint: "stacking" -223 539 mark 0
AnchorPoint: "Diacritic" -224 539 mark 0
LayerCount: 3
Fore
SplineSet
-236 539 m 2
 -238 539 -240 540 -241 543 c 0
 -241 544 -241 546 -240 548 c 2
 -122 761 l 1
 -56 761 l 2
 -53 761 -49 758 -49 754 c 0
 -49 753 -49 752 -50 751 c 2
 -203 539 l 1
 -236 539 l 2
EndSplineSet
Validated: 19457
Layer: 2
SplineSet
-236 539 m 2,0,1
 -240 539 -240 539 -241 543 c 0,2,3
 -242 545 -242 545 -240 548 c 2,4,-1
 -122 761 l 1,5,-1
 -56 761 l 2,6,7
 -49 761 -49 761 -49 754 c 0,8,9
 -49 752 -49 752 -50 751 c 2,10,-1
 -203 539 l 1,11,-1
 -236 539 l 2,0,1
EndSplineSet
Validated: 19457
Colour: ff00
EndChar

StartChar: uniA66F
Encoding: 42607 42607 45
Width: 0
GlyphClass: 4
Flags: W
HStem: 519 139<-456 -361 -157 -62> 623 35<-361 -157> 635 23<-484.813 -456 -62 -31.1874>
VStem: -456 95<519 623> -157 95<519 623>
AnchorPoint: "stacking" -252 718.2 basemark 0
AnchorPoint: "stacking" -256 525 mark 0
AnchorPoint: "Diacritic" -257 538.8 mark 0
LayerCount: 3
Fore
SplineSet
-226 623 m 1x58
 -361 623 l 1x58
 -361 519 l 1
 -456 519 l 1x98
 -456 635 l 1
 -477 638 l 2
 -483 639 -485 644 -485 649 c 0
 -485 654 -482 658 -475 658 c 2x38
 -226 658 l 1x58
 -41 658 l 2
 -34 658 -31 654 -31 649 c 0
 -31 644 -33 639 -39 638 c 2
 -62 635 l 1x38
 -62 519 l 1
 -157 519 l 1x98
 -157 623 l 1
 -226 623 l 1x58
EndSplineSet
Validated: 19457
Layer: 2
SplineSet
-226 623 m 1,0,-1
 -361 623 l 1,1,-1
 -361 519 l 1,2,-1
 -456 519 l 1,3,-1
 -456 635 l 1,4,-1
 -477 638 l 2,5,6
 -485 639 -485 639 -485 649 c 0,7,8
 -485 658 -485 658 -475 658 c 2,9,-1
 -226 658 l 1,10,-1
 -41 658 l 2,11,12
 -31 658 -31 658 -31 649 c 0,13,14
 -31 639 -31 639 -39 638 c 2,15,-1
 -62 635 l 1,16,-1
 -62 519 l 1,17,-1
 -157 519 l 1,18,-1
 -157 623 l 1,19,-1
 -226 623 l 1,0,-1
EndSplineSet
Validated: 19457
Colour: ff00ff
EndChar

StartChar: uni0306
Encoding: 774 774 46
Width: 0
GlyphClass: 4
Flags: W
HStem: 539 68<-228.077 -129.262>
VStem: -287 37<632.461 719.143> -90 30<658.809 750.237>
AnchorPoint: "stacking" -167.5 780.6 basemark 0
AnchorPoint: "stacking" -187.5 539.4 mark 0
AnchorPoint: "Diacritic" -187 539.1 mark 0
LayerCount: 3
Fore
SplineSet
-60 697 m 0
 -60 622 -108 539 -184 539 c 0
 -186 539 -188 539 -190 539 c 0
 -256 539 -287 586 -287 646 c 0
 -287 686 -269 730 -249 743 c 0
 -241 748 -232 741 -238 732 c 0
 -246 720 -250 706 -250 687 c 0
 -250 637 -216 607 -179 607 c 0
 -136 607 -99 653 -92 690 c 0
 -90 700 -90 705 -90 710 c 0
 -90 715 -90 722 -91 732 c 0
 -92 742 -92 752 -82 752 c 2
 -81 752 l 2
 -72 752 -66 739 -64 732 c 0
 -62 724 -60 711 -60 697 c 0
EndSplineSet
Validated: 19457
Layer: 2
SplineSet
-60 697 m 0,0,1
 -60 637 -60 637 -95 588 c 128,-1,2
 -130 539 -130 539 -184 539 c 2,3,-1
 -190 539 l 2,4,5
 -237 539 -237 539 -262 569 c 128,-1,6
 -287 599 -287 599 -287 646 c 0,7,8
 -287 676 -287 676 -275.5 704.5 c 128,-1,9
 -264 733 -264 733 -249 743 c 0,10,11
 -243 747 -243 747 -238.5 743 c 128,-1,12
 -234 739 -234 739 -238 732 c 0,13,14
 -250 714 -250 714 -250 687 c 0,15,16
 -250 651 -250 651 -229 629 c 128,-1,17
 -208 607 -208 607 -179 607 c 0,18,19
 -149 607 -149 607 -123.5 633.5 c 128,-1,20
 -98 660 -98 660 -92 690 c 0,21,22
 -90 700 -90 700 -90 710 c 0,23,24
 -90 722 -90 722 -91 732 c 0,25,26
 -93 752 -93 752 -82 752 c 2,27,-1
 -81 752 l 2,28,29
 -70 752 -70 752 -64 732 c 0,30,31
 -60 716 -60 716 -60 697 c 0,0,1
EndSplineSet
Validated: 19457
Colour: ff00
EndChar

StartChar: uni0307
Encoding: 775 775 47
Width: 0
GlyphClass: 4
Flags: W
HStem: 536 115<-106.875 -30.6455>
VStem: -117 85<543.691 649>
AnchorPoint: "stacking" -68.5 672.3 basemark 0
AnchorPoint: "stacking" -65.5 539.3 mark 0
AnchorPoint: "Diacritic" -69 539 mark 0
LayerCount: 3
Fore
SplineSet
-16 542 m 1
 -30 538 -47 536 -64 536 c 0
 -78 536 -90 537 -101 540 c 1
 -110 560 -114 595 -117 621 c 1
 -117 631 -117 640 -117 647 c 1
 -102 649 -85 651 -68 651 c 0
 -55 651 -43 649 -32 649 c 1
 -22 619 -20 578 -16 542 c 1
EndSplineSet
Validated: 1
Layer: 2
SplineSet
-16 542 m 1,0,1
 -37 536 -37 536 -64 536 c 0,2,3
 -86 536 -86 536 -101 540 c 1,4,5
 -110 560 -110 560 -117 621 c 1,6,7
 -117 647 l 1,8,9
 -87 651 -87 651 -68 651 c 0,10,11
 -61 651 -61 651 -49 650 c 128,-1,12
 -37 649 -37 649 -32 649 c 1,13,14
 -26 630 -26 630 -16 542 c 1,0,1
EndSplineSet
Validated: 19457
Colour: ff00
EndChar

StartChar: uni0308
Encoding: 776 776 48
Width: 0
GlyphClass: 4
Flags: W
HStem: 530 115<-283.934 -207.645> 536 115<-146.875 -70.6455>
VStem: -294 85<537.691 643> -157 85<543.691 649>
AnchorPoint: "stacking" -183 685.8 basemark 0
AnchorPoint: "stacking" -175 539.2 mark 0
AnchorPoint: "Diacritic" -176 539.3 mark 0
LayerCount: 3
Fore
SplineSet
-56 542 m 1x70
 -70 538 -87 536 -104 536 c 0
 -118 536 -130 537 -141 540 c 1
 -150 560 -154 595 -157 621 c 1
 -157 631 -157 640 -157 647 c 1
 -142 649 -125 651 -108 651 c 0
 -95 651 -83 649 -72 649 c 1
 -62 619 -60 578 -56 542 c 1x70
-193 536 m 1
 -207 532 -224 530 -241 530 c 0xb0
 -255 530 -267 533 -278 536 c 1x70
 -287 556 -294 589 -294 615 c 0
 -294 625 -294 634 -294 641 c 1
 -279 644 -262 645 -245 645 c 0xb0
 -232 645 -220 643 -209 643 c 1
 -199 613 -197 572 -193 536 c 1
EndSplineSet
Validated: 19457
Layer: 2
SplineSet
-56 542 m 1,0,1
 -77 536 -77 536 -104 536 c 0,2,3
 -126 536 -126 536 -141 540 c 1,4,5
 -150 560 -150 560 -157 621 c 1,6,7
 -157 647 l 1,8,9
 -127 651 -127 651 -108 651 c 0,10,11
 -101 651 -101 651 -89 650 c 128,-1,12
 -77 649 -77 649 -72 649 c 1,13,14
 -66 630 -66 630 -56 542 c 1,0,1
-193 536 m 1,15,16
 -214 530 -214 530 -241 530 c 0,17,18
 -256 530 -256 530 -278 536 c 1,19,20
 -294 572 -294 572 -294 615 c 2,21,-1
 -294 641 l 1,22,23
 -274 645 -274 645 -245 645 c 0,24,25
 -238 645 -238 645 -226 644 c 128,-1,26
 -214 643 -214 643 -209 643 c 1,27,28
 -203 624 -203 624 -193 536 c 1,15,16
EndSplineSet
Validated: 19457
Colour: ff00
EndChar

StartChar: uni0311
Encoding: 785 785 49
Width: 0
GlyphClass: 4
Flags: W
HStem: 672 58<-295.262 -192.712>
VStem: -383 58<539 639.601> -161 58<539 638.221>
AnchorPoint: "stacking" -244 772.6 basemark 0
AnchorPoint: "stacking" -232 539 mark 0
AnchorPoint: "Diacritic" -231 539 mark 0
LayerCount: 3
Fore
SplineSet
-243 672 m 0
 -302 672 -325 615 -325 556 c 2
 -325 539 l 1
 -383 539 l 1
 -383 554 l 2
 -383 630 -352 688 -303 715 c 0
 -286 725 -266 730 -243 730 c 0
 -169 730 -128 678 -112 620 c 0
 -106 599 -103 577 -103 554 c 2
 -103 539 l 1
 -161 539 l 1
 -161 556 l 2
 -161 604 -176 642 -206 662 c 0
 -216 668 -228 672 -243 672 c 0
EndSplineSet
Validated: 1
Layer: 2
SplineSet
-243 672 m 0,0,1
 -284 672 -284 672 -304.5 638.5 c 128,-1,2
 -325 605 -325 605 -325 556 c 2,3,-1
 -325 539 l 1,4,-1
 -383 539 l 1,5,-1
 -383 554 l 2,6,7
 -383 610 -383 610 -361.5 652 c 128,-1,8
 -340 694 -340 694 -303 715 c 0,9,10
 -278 730 -278 730 -243 730 c 0,11,12
 -191 730 -191 730 -158 699 c 128,-1,13
 -125 668 -125 668 -112 620 c 0,14,15
 -103 588 -103 588 -103 554 c 2,16,-1
 -103 539 l 1,17,-1
 -161 539 l 1,18,-1
 -161 556 l 2,19,20
 -161 632 -161 632 -206 662 c 1,21,22
 -223 672 -223 672 -243 672 c 0,0,1
EndSplineSet
Validated: 19457
Colour: ff00
EndChar

StartChar: uni033E
Encoding: 830 830 50
Width: 0
GlyphClass: 4
Flags: W
HStem: 543 266
VStem: -154 96<616 677.71>
DStem2: -197 561 -187 543 0.870311 0.492502<-8.97735 54.9017> -57 809 -95 763 0.872506 0.488603<-57.016 6.13009>
AnchorPoint: "stacking" -176 539.9 mark 0
AnchorPoint: "stacking" -50 829.9 basemark 0
AnchorPoint: "Yerok" -175 537.1 mark 0
LayerCount: 3
Fore
SplineSet
-187 543 m 2
 -191 541 -198 543 -200 548 c 0
 -202 553 -201 559 -197 561 c 2
 -154 585 l 1
 -154 604 -156 627 -162 640 c 0
 -171 663 -183 691 -183 722 c 0
 -183 730 -183 734 -182 739 c 1
 -57 809 l 2
 -55 810 -53 811 -51 811 c 0
 -46 811 -41 807 -41 801 c 0
 -41 798 -42 794 -47 791 c 1
 -95 763 l 1
 -82 731 -64 676 -59 639 c 0
 -58 631 -57 623 -58 616 c 1
 -187 543 l 2
EndSplineSet
Validated: 19457
Layer: 2
SplineSet
-187 543 m 2,0,1
 -196 538 -196 538 -200 548 c 128,-1,2
 -204 558 -204 558 -197 561 c 2,3,-1
 -154 585 l 1,4,5
 -154 623 -154 623 -162 640 c 1,6,7
 -183 694 -183 694 -183 722 c 0,8,9
 -183 734 -183 734 -182 739 c 1,10,-1
 -57 809 l 2,11,12
 -53 811 -53 811 -51 811 c 0,13,14
 -41 811 -41 811 -41 801 c 0,15,16
 -41 795 -41 795 -47 791 c 2,17,-1
 -95 763 l 1,18,19
 -66 692 -66 692 -59 639 c 0,20,21
 -57 623 -57 623 -58 616 c 1,22,-1
 -187 543 l 2,0,1
EndSplineSet
Validated: 19457
Colour: ff00
EndChar

StartChar: uni0400
Encoding: 1024 1024 51
Width: 697
GlyphClass: 2
Flags: W
HStem: -8 25<208.935 307.102> 309 21<420.012 477 593 625.988> 473 70<358.239 442.272> 625 21<370.02 446 562.809 615.985> 756 22<263.805 379.745>
VStem: 55 121<420.575 611.624> 176 52<19.4475 185.842> 477 116<330 436.989>
DStem2: 376 215 370 191 0.959949 -0.280176<-10.2512 54.3645 176.889 228.694>
LayerCount: 3
Fore
SplineSet
381 625 m 1xfd
 375 625 370 628 370 635 c 0
 370 640 373 646 379 646 c 2
 445 646 l 1
 446 650 446 652 446 657 c 0
 446 715 389 756 331 756 c 0
 191 756 176 652 176 553 c 0xfd
 176 506 192 449 205 386 c 1
 253 442 341 543 436 543 c 0
 437 543 438 543 439 543 c 0
 509 543 566 485 579 437 c 0
 590 400 593 366 593 341 c 0
 593 338 593 333 593 330 c 1
 615 330 l 2
 622 330 626 326 626 320 c 0
 626 314 622 309 615 309 c 2
 430 309 l 2
 424 309 420 313 420 319 c 0
 420 325 424 330 430 330 c 2
 477 330 l 1
 477 351 476 373 471 400 c 0
 463 444 431 473 383 473 c 0
 354 473 322 456 298 437 c 0
 275 419 237 384 211 358 c 1
 227 270 228 177 228 105 c 0
 228 74 218 37 208 21 c 1
 226 18 234 17 252 17 c 0
 341 17 419 110 419 176 c 1
 370 191 l 2
 365 193 362 196 362 204 c 0
 362 211 370 216 376 215 c 1
 585 154 l 2
 590 152 593 147 593 142 c 0
 593 135 588 128 579 130 c 2
 540 141 l 1
 515 71 382 -8 251 -8 c 0
 218 -8 190 -5 165 0 c 0
 159 1 157 6 157 11 c 0
 157 18 159 25 161 28 c 0
 172 49 176 72 176 95 c 0xfb
 176 166 127 234 104 294 c 0
 74 373 55 423 55 507 c 0
 55 666 183 778 330 778 c 0
 489 778 545 714 566 646 c 1
 605 646 l 2
 611 646 616 642 616 635 c 0
 616 629 612 625 606 625 c 2
 381 625 l 1xfd
337 844 m 2
 338 843 338 842 338 841 c 0
 338 838 332 835 330 835 c 2
 299 835 l 1
 120 1032 l 2
 118 1034 118 1035 118 1037 c 0
 118 1043 126 1048 131 1048 c 2
 195 1048 l 1
 337 844 l 2
EndSplineSet
Validated: 1
Layer: 2
SplineSet
381 625 m 2,0,1
 370 625 370 625 370 635 c 0,2,3
 370 646 370 646 379 646 c 2,4,-1
 445 646 l 1,5,6
 446 650 446 650 446 657 c 0,7,8
 446 699 446 699 411 727.5 c 128,-1,9
 376 756 376 756 331 756 c 0,10,11
 291 756 291 756 261.5 744 c 128,-1,12
 232 732 232 732 216 713.5 c 128,-1,13
 200 695 200 695 190.5 666.5 c 128,-1,14
 181 638 181 638 178.5 612.5 c 128,-1,15
 176 587 176 587 176 553 c 0,16,17
 176 536 176 536 179 514.5 c 128,-1,18
 182 493 182 493 185.5 477 c 128,-1,19
 189 461 189 461 195.5 431 c 128,-1,20
 202 401 202 401 205 386 c 1,21,22
 231 416 231 416 250 435.5 c 128,-1,23
 269 455 269 455 301.5 484 c 128,-1,24
 334 513 334 513 368.5 528 c 128,-1,25
 403 543 403 543 436 543 c 2,26,-1
 439 543 l 2,27,28
 488 543 488 543 528 509.5 c 128,-1,29
 568 476 568 476 579 437 c 0,30,31
 593 390 593 390 593 341 c 2,32,-1
 593 330 l 1,33,-1
 615 330 l 2,34,35
 626 330 626 330 626 320 c 0,36,37
 626 309 626 309 615 309 c 2,38,-1
 430 309 l 2,39,40
 420 309 420 309 420 319 c 0,41,42
 420 330 420 330 430 330 c 2,43,-1
 477 330 l 1,44,45
 477 368 477 368 471 400 c 0,46,47
 465 434 465 434 441.5 453.5 c 128,-1,48
 418 473 418 473 383 473 c 0,49,50
 343 473 343 473 298 437 c 0,51,52
 261 408 261 408 211 358 c 1,53,54
 228 264 228 264 228 105 c 0,55,56
 228 53 228 53 208 21 c 1,57,58
 232 17 232 17 252 17 c 0,59,60
 316 17 316 17 367.5 70 c 128,-1,61
 419 123 419 123 419 176 c 1,62,-1
 370 191 l 2,63,64
 362 194 362 194 362 204 c 0,65,66
 362 209 362 209 366.5 212.5 c 128,-1,67
 371 216 371 216 376 215 c 2,68,-1
 585 154 l 2,69,70
 593 151 593 151 593 142 c 0,71,72
 593 127 593 127 579 130 c 2,73,-1
 540 141 l 1,74,75
 520 86 520 86 433 39 c 128,-1,76
 346 -8 346 -8 251 -8 c 0,77,78
 205 -8 205 -8 165 0 c 0,79,80
 157 1 157 1 157 11 c 0,81,82
 157 22 157 22 161 28 c 0,83,84
 176 57 176 57 176 95 c 0,85,86
 176 127 176 127 164 161 c 128,-1,87
 152 195 152 195 131.5 235.5 c 128,-1,88
 111 276 111 276 104 294 c 0,89,90
 85 343 85 343 77 367.5 c 128,-1,91
 69 392 69 392 62 429.5 c 128,-1,92
 55 467 55 467 55 507 c 0,93,94
 55 624 55 624 136 701 c 128,-1,95
 217 778 217 778 330 778 c 0,96,97
 525 778 525 778 566 646 c 1,98,-1
 605 646 l 2,99,100
 616 646 616 646 616 635 c 0,101,102
 616 625 616 625 606 625 c 2,103,-1
 381 625 l 2,0,1
337 844 m 2,104,105
 338 843 338 843 338 841 c 0,106,107
 338 835 338 835 330 835 c 2,108,-1
 299 835 l 1,109,-1
 120 1032 l 2,110,111
 118 1034 118 1034 118 1037 c 0,112,113
 118 1041 118 1041 122.5 1044.5 c 128,-1,114
 127 1048 127 1048 131 1048 c 2,115,-1
 195 1048 l 1,116,-1
 337 844 l 2,104,105
EndSplineSet
Validated: 19457
Ligature2: "Cyrillic Canonical Equivalents" uni0415 uni0300
LCarets2: 1 0 
Colour: ff00ff
EndChar

StartChar: uni0401
Encoding: 1025 1025 52
Width: 687
GlyphClass: 2
Flags: W
HStem: -8 25<208.935 307.102> 309 21<420.012 477 593 625.988> 473 70<358.239 442.272> 625 21<370.02 446 562.809 615.985> 756 22<263.805 379.745> 849 126<188.335 266.392> 854 126<363.335 441.392>
VStem: 55 121<420.575 611.624> 176 52<19.4475 185.842> 477 116<330 436.989>
DStem2: 376 215 370 191 0.959949 -0.280176<-10.2512 54.3645 176.889 228.694>
LayerCount: 3
Fore
SplineSet
381 625 m 1xf940
 375 625 370 628 370 635 c 0
 370 640 373 646 379 646 c 2
 445 646 l 1
 446 650 446 652 446 657 c 0
 446 715 389 756 331 756 c 0
 191 756 176 652 176 553 c 0xf940
 176 506 192 449 205 386 c 1
 253 442 341 543 436 543 c 0
 437 543 438 543 439 543 c 0
 509 543 566 485 579 437 c 0
 590 400 593 366 593 341 c 0
 593 338 593 333 593 330 c 1
 615 330 l 2
 622 330 626 326 626 320 c 0
 626 314 622 309 615 309 c 2
 430 309 l 2
 424 309 420 313 420 319 c 0
 420 325 424 330 430 330 c 2
 477 330 l 1
 477 351 476 373 471 400 c 0
 463 444 431 473 383 473 c 0
 354 473 322 456 298 437 c 0
 275 419 237 384 211 358 c 1
 227 270 228 177 228 105 c 0
 228 74 218 37 208 21 c 1
 226 18 234 17 252 17 c 0
 341 17 419 110 419 176 c 1
 370 191 l 2
 365 193 362 196 362 204 c 0
 362 211 370 216 376 215 c 1
 585 154 l 2
 590 152 593 147 593 142 c 0
 593 135 588 128 579 130 c 2
 540 141 l 1
 515 71 382 -8 251 -8 c 0
 218 -8 190 -5 165 0 c 0
 159 1 157 6 157 11 c 0
 157 18 159 25 161 28 c 0
 172 49 176 72 176 95 c 0xf8c0
 176 166 127 234 104 294 c 0
 74 373 55 423 55 507 c 0
 55 666 183 778 330 778 c 0
 489 778 545 714 566 646 c 1
 605 646 l 2
 611 646 616 642 616 635 c 0
 616 629 612 625 606 625 c 2
 381 625 l 1xf940
172 971 m 5
 189 974 208 975 226 975 c 4
 240 975 253 975 265 973 c 5
 275 946 283 883 283 855 c 5
 268 851 248 849 230 849 c 4xfc40
 216 849 203 850 189 853 c 5
 182 874 172 939 172 971 c 5
347 976 m 5
 364 979 383 980 401 980 c 4
 415 980 428 980 440 978 c 5
 450 951 458 888 458 860 c 5
 442 856 423 854 405 854 c 4xfa40
 391 854 378 855 364 858 c 5
 357 879 347 944 347 976 c 5
EndSplineSet
Validated: 1
Layer: 2
SplineSet
381 625 m 2,0,1
 370 625 370 625 370 635 c 0,2,3
 370 646 370 646 379 646 c 2,4,-1
 445 646 l 1,5,6
 446 650 446 650 446 657 c 0,7,8
 446 699 446 699 411 727.5 c 128,-1,9
 376 756 376 756 331 756 c 0,10,11
 291 756 291 756 261.5 744 c 128,-1,12
 232 732 232 732 216 713.5 c 128,-1,13
 200 695 200 695 190.5 666.5 c 128,-1,14
 181 638 181 638 178.5 612.5 c 128,-1,15
 176 587 176 587 176 553 c 0,16,17
 176 536 176 536 179 514.5 c 128,-1,18
 182 493 182 493 185.5 477 c 128,-1,19
 189 461 189 461 195.5 431 c 128,-1,20
 202 401 202 401 205 386 c 1,21,22
 231 416 231 416 250 435.5 c 128,-1,23
 269 455 269 455 301.5 484 c 128,-1,24
 334 513 334 513 368.5 528 c 128,-1,25
 403 543 403 543 436 543 c 2,26,-1
 439 543 l 2,27,28
 488 543 488 543 528 509.5 c 128,-1,29
 568 476 568 476 579 437 c 0,30,31
 593 390 593 390 593 341 c 2,32,-1
 593 330 l 1,33,-1
 615 330 l 2,34,35
 626 330 626 330 626 320 c 0,36,37
 626 309 626 309 615 309 c 2,38,-1
 430 309 l 2,39,40
 420 309 420 309 420 319 c 0,41,42
 420 330 420 330 430 330 c 2,43,-1
 477 330 l 1,44,45
 477 368 477 368 471 400 c 0,46,47
 465 434 465 434 441.5 453.5 c 128,-1,48
 418 473 418 473 383 473 c 0,49,50
 343 473 343 473 298 437 c 0,51,52
 261 408 261 408 211 358 c 1,53,54
 228 264 228 264 228 105 c 0,55,56
 228 53 228 53 208 21 c 1,57,58
 232 17 232 17 252 17 c 0,59,60
 316 17 316 17 367.5 70 c 128,-1,61
 419 123 419 123 419 176 c 1,62,-1
 370 191 l 2,63,64
 362 194 362 194 362 204 c 0,65,66
 362 209 362 209 366.5 212.5 c 128,-1,67
 371 216 371 216 376 215 c 2,68,-1
 585 154 l 2,69,70
 593 151 593 151 593 142 c 0,71,72
 593 127 593 127 579 130 c 2,73,-1
 540 141 l 1,74,75
 520 86 520 86 433 39 c 128,-1,76
 346 -8 346 -8 251 -8 c 0,77,78
 205 -8 205 -8 165 0 c 0,79,80
 157 1 157 1 157 11 c 0,81,82
 157 22 157 22 161 28 c 0,83,84
 176 57 176 57 176 95 c 0,85,86
 176 127 176 127 164 161 c 128,-1,87
 152 195 152 195 131.5 235.5 c 128,-1,88
 111 276 111 276 104 294 c 0,89,90
 85 343 85 343 77 367.5 c 128,-1,91
 69 392 69 392 62 429.5 c 128,-1,92
 55 467 55 467 55 507 c 0,93,94
 55 624 55 624 136 701 c 128,-1,95
 217 778 217 778 330 778 c 0,96,97
 525 778 525 778 566 646 c 1,98,-1
 605 646 l 2,99,100
 616 646 616 646 616 635 c 0,101,102
 616 625 616 625 606 625 c 2,103,-1
 381 625 l 2,0,1
172 971 m 1,104,105
 195 975 195 975 226 975 c 0,106,107
 253 975 253 975 265 973 c 1,108,109
 283 924 283 924 283 855 c 1,110,111
 261 849 261 849 230 849 c 0,112,113
 208 849 208 849 189 853 c 1,114,115
 184 869 184 869 178 908.5 c 128,-1,116
 172 948 172 948 172 971 c 1,104,105
347 976 m 1,117,118
 370 980 370 980 401 980 c 0,119,120
 428 980 428 980 440 978 c 1,121,122
 458 929 458 929 458 860 c 1,123,124
 434 854 434 854 405 854 c 0,125,126
 383 854 383 854 364 858 c 1,127,128
 359 874 359 874 353 913.5 c 128,-1,129
 347 953 347 953 347 976 c 1,117,118
EndSplineSet
Validated: 19457
Ligature2: "Cyrillic Canonical Equivalents" uni0415 uni0308
LCarets2: 1 0 
Colour: ff00ff
EndChar

StartChar: uni0402
Encoding: 1026 1026 53
Width: 765
GlyphClass: 2
Flags: W
HStem: -100 9<523 530.276> 0 24<204 264 384 437> 441 30<384 486.375> 751 25<11 51 166 264 384 500.111>
VStem: 51 115<532 751> 264 120<24 441 471 751> 565 27<616.012 669.969> 619 127<35.7344 296.448>
LayerCount: 3
Fore
SplineSet
646 776 m 2
 652 776 656 771 654 765 c 1
 654 760 651 752 648 751 c 0
 613 729 599 672 592 623 c 0
 591 618 587 615 579 616 c 1
 570 616 566 618 565 623 c 0
 559 669 534 714 503 737 c 0
 492 745 464 751 420 751 c 2
 384 751 l 1
 384 471 l 5
 427 471 468 465 507 459 c 5
 565 445 l 5
 611 428 650 407 681 374 c 5
 723 326 746 264 746 180 c 4
 746 95 742 70 715 17 c 4
 703 -7 670 -37 646 -55 c 4
 629 -68 584 -86 558 -91 c 6
 513 -100 l 5
 555 -70 590 -33 608 20 c 4
 614 39 619 83 619 117 c 6
 619 140 l 6
 619 240 601 313 558 378 c 5
 524 424 459 441 384 441 c 5
 384 24 l 1
 437 24 l 1
 437 0 l 1
 204 0 l 1
 204 24 l 1
 264 24 l 1
 264 751 l 1
 166 751 l 1
 166 532 l 1
 51 532 l 1
 51 751 l 1
 11 751 l 1
 11 776 l 1
 646 776 l 2
EndSplineSet
Validated: 19457
Layer: 2
SplineSet
646 776 m 2,0,1
 651 776 651 776 653 772.5 c 128,-1,2
 655 769 655 769 654 765 c 1,3,4
 654 753 654 753 648 751 c 1,5,6
 607 725 607 725 592 623 c 0,7,8
 590 615 590 615 579 616 c 1,9,10
 566 616 566 616 565 623 c 0,11,12
 555 698 555 698 503 737 c 0,13,14
 484 751 484 751 420 751 c 2,15,-1
 384 751 l 1,16,-1
 384 471 l 1,17,18
 429 471 429 471 507 459 c 1,19,-1
 565 445 l 1,20,21
 641 417 641 417 681 374 c 1,22,23
 746 300 746 300 746 180 c 0,24,25
 746 115 746 115 740.5 85.5 c 128,-1,26
 735 56 735 56 715 17 c 0,27,28
 699 -15 699 -15 646 -55 c 0,29,30
 613 -80 613 -80 558 -91 c 2,31,-1
 513 -100 l 1,32,33
 585 -49 585 -49 608 20 c 0,34,35
 619 55 619 55 619 117 c 2,36,-1
 619 140 l 2,37,38
 619 286 619 286 558 378 c 1,39,40
 511 441 511 441 384 441 c 1,41,-1
 384 24 l 1,42,-1
 437 24 l 1,43,-1
 437 0 l 1,44,-1
 204 0 l 1,45,-1
 204 24 l 1,46,-1
 264 24 l 1,47,-1
 264 751 l 1,48,-1
 166 751 l 1,49,-1
 166 532 l 1,50,-1
 51 532 l 1,51,-1
 51 751 l 1,52,-1
 11 751 l 1,53,-1
 11 776 l 1,54,-1
 646 776 l 2,0,1
EndSplineSet
Validated: 19457
Colour: ff00ff
EndChar

StartChar: uni0403
Encoding: 1027 1027 54
Width: 502
GlyphClass: 2
Flags: W
HStem: -0 24<55 115 235 295> 746 24<55 115 235 322.348>
VStem: 115 120<24 746>
LayerCount: 3
Fore
SplineSet
235 746 m 1
 235 24 l 1
 295 24 l 1
 295 -0 l 1
 55 -0 l 1
 55 24 l 1
 115 24 l 1
 115 746 l 1
 55 746 l 1
 55 770 l 1
 449 770 l 2
 453 770 455 767 455 763 c 0
 455 759 453 755 452 753 c 0
 431 722 417 676 417 626 c 0
 417 615 419 608 419 597 c 0
 419 590 410 591 406 594 c 0
 388 609 373 635 360 658 c 0
 345 684 329 717 318 746 c 1
 235 746 l 1
171 798 m 2
 168 798 166 800 166 803 c 0
 166 804 166 805 167 806 c 2
 276 1003 l 1
 337 1003 l 2
 339 1003 343 1000 343 996 c 1
 343 996 343 995 342 994 c 2
 201 798 l 1
 171 798 l 2
EndSplineSet
Validated: 1
Layer: 2
SplineSet
235 746 m 1,0,-1
 235 24 l 1,1,-1
 295 24 l 1,2,-1
 295 -0 l 1,3,-1
 55 -0 l 1,4,-1
 55 24 l 1,5,-1
 115 24 l 1,6,-1
 115 746 l 1,7,-1
 55 746 l 1,8,-1
 55 770 l 1,9,-1
 449 770 l 2,10,11
 455 770 455 770 455 763 c 0,12,13
 455 759 455 759 452 753 c 0,14,15
 417 701 417 701 417 626 c 0,16,17
 417 620 417 620 418 611 c 128,-1,18
 419 602 419 602 419 597 c 0,19,20
 419 594 419 594 416.5 592.5 c 128,-1,21
 414 591 414 591 411 591.5 c 128,-1,22
 408 592 408 592 406 594 c 0,23,24
 387 609 387 609 360 658 c 0,25,26
 335 702 335 702 318 746 c 1,27,-1
 235 746 l 1,0,-1
171 798 m 2,28,29
 166 798 166 798 166 803 c 0,30,31
 166 805 166 805 167 806 c 2,32,-1
 276 1003 l 1,33,-1
 337 1003 l 2,34,35
 343 1003 343 1003 343 996 c 0,36,37
 343 995 343 995 342 994 c 2,38,-1
 201 798 l 1,39,-1
 171 798 l 2,28,29
EndSplineSet
Validated: 19457
Ligature2: "Cyrillic Canonical Equivalents" uni0413 uni0301
LCarets2: 1 0 
Colour: ff00ff
EndChar

StartChar: uni0404
Encoding: 1028 1028 55
Width: 670
GlyphClass: 2
Flags: W
HStem: -8 25<208.935 307.102> 309 21<420.012 477 593 625.988> 473 70<358.239 442.272> 625 21<370.02 446 562.809 615.985> 756 22<263.805 379.745>
VStem: 55 121<420.575 611.624> 176 52<19.4475 185.842> 477 116<330 436.989>
DStem2: 376 215 370 191 0.959949 -0.280176<-10.2512 54.3645 176.889 228.694>
AnchorPoint: "HalfMark" 327 828.6 basechar 0
AnchorPoint: "DoubleTitlo" 670 826.4 basechar 0
AnchorPoint: "Yerok" 494 827.6 basechar 0
AnchorPoint: "Diacritic" 332 828.6 basechar 0
LayerCount: 3
Fore
SplineSet
381 625 m 1xfd
 375 625 370 628 370 635 c 0
 370 640 373 646 379 646 c 2
 445 646 l 1
 446 650 446 652 446 657 c 0
 446 715 389 756 331 756 c 0
 191 756 176 652 176 553 c 0xfd
 176 506 192 449 205 386 c 1
 253 442 341 543 436 543 c 0
 437 543 438 543 439 543 c 0
 509 543 566 485 579 437 c 0
 590 400 593 366 593 341 c 0
 593 338 593 333 593 330 c 1
 615 330 l 2
 622 330 626 326 626 320 c 0
 626 314 622 309 615 309 c 2
 430 309 l 2
 424 309 420 313 420 319 c 0
 420 325 424 330 430 330 c 2
 477 330 l 1
 477 351 476 373 471 400 c 0
 463 444 431 473 383 473 c 0
 354 473 322 456 298 437 c 0
 275 419 237 384 211 358 c 1
 227 270 228 177 228 105 c 0
 228 74 218 37 208 21 c 1
 226 18 234 17 252 17 c 0
 341 17 419 110 419 176 c 1
 370 191 l 2
 365 193 362 196 362 204 c 0
 362 211 370 216 376 215 c 1
 585 154 l 2
 590 152 593 147 593 142 c 0
 593 135 588 128 579 130 c 2
 540 141 l 1
 515 71 382 -8 251 -8 c 0
 218 -8 190 -5 165 0 c 0
 159 1 157 6 157 11 c 0
 157 18 159 25 161 28 c 0
 172 49 176 72 176 95 c 0xfb
 176 166 127 234 104 294 c 0
 74 373 55 423 55 507 c 0
 55 666 183 778 330 778 c 0
 489 778 545 714 566 646 c 1
 605 646 l 2
 611 646 616 642 616 635 c 0
 616 629 612 625 606 625 c 2
 381 625 l 1xfd
EndSplineSet
Validated: 19457
Layer: 2
SplineSet
381 625 m 2,0,1
 370 625 370 625 370 635 c 0,2,3
 370 646 370 646 379 646 c 2,4,-1
 445 646 l 1,5,6
 446 650 446 650 446 657 c 0,7,8
 446 699 446 699 411 727.5 c 128,-1,9
 376 756 376 756 331 756 c 0,10,11
 291 756 291 756 261.5 744 c 128,-1,12
 232 732 232 732 216 713.5 c 128,-1,13
 200 695 200 695 190.5 666.5 c 128,-1,14
 181 638 181 638 178.5 612.5 c 128,-1,15
 176 587 176 587 176 553 c 0,16,17
 176 536 176 536 179 514.5 c 128,-1,18
 182 493 182 493 185.5 477 c 128,-1,19
 189 461 189 461 195.5 431 c 128,-1,20
 202 401 202 401 205 386 c 1,21,22
 231 416 231 416 250 435.5 c 128,-1,23
 269 455 269 455 301.5 484 c 128,-1,24
 334 513 334 513 368.5 528 c 128,-1,25
 403 543 403 543 436 543 c 2,26,-1
 439 543 l 2,27,28
 488 543 488 543 528 509.5 c 128,-1,29
 568 476 568 476 579 437 c 0,30,31
 593 390 593 390 593 341 c 2,32,-1
 593 330 l 1,33,-1
 615 330 l 2,34,35
 626 330 626 330 626 320 c 0,36,37
 626 309 626 309 615 309 c 2,38,-1
 430 309 l 2,39,40
 420 309 420 309 420 319 c 0,41,42
 420 330 420 330 430 330 c 2,43,-1
 477 330 l 1,44,45
 477 368 477 368 471 400 c 0,46,47
 465 434 465 434 441.5 453.5 c 128,-1,48
 418 473 418 473 383 473 c 0,49,50
 343 473 343 473 298 437 c 0,51,52
 261 408 261 408 211 358 c 1,53,54
 228 264 228 264 228 105 c 0,55,56
 228 53 228 53 208 21 c 1,57,58
 232 17 232 17 252 17 c 0,59,60
 316 17 316 17 367.5 70 c 128,-1,61
 419 123 419 123 419 176 c 1,62,-1
 370 191 l 2,63,64
 362 194 362 194 362 204 c 0,65,66
 362 209 362 209 366.5 212.5 c 128,-1,67
 371 216 371 216 376 215 c 2,68,-1
 585 154 l 2,69,70
 593 151 593 151 593 142 c 0,71,72
 593 127 593 127 579 130 c 2,73,-1
 540 141 l 1,74,75
 520 86 520 86 433 39 c 128,-1,76
 346 -8 346 -8 251 -8 c 0,77,78
 205 -8 205 -8 165 0 c 0,79,80
 157 1 157 1 157 11 c 0,81,82
 157 22 157 22 161 28 c 0,83,84
 176 57 176 57 176 95 c 0,85,86
 176 127 176 127 164 161 c 128,-1,87
 152 195 152 195 131.5 235.5 c 128,-1,88
 111 276 111 276 104 294 c 0,89,90
 85 343 85 343 77 367.5 c 128,-1,91
 69 392 69 392 62 429.5 c 128,-1,92
 55 467 55 467 55 507 c 0,93,94
 55 624 55 624 136 701 c 128,-1,95
 217 778 217 778 330 778 c 0,96,97
 525 778 525 778 566 646 c 1,98,-1
 605 646 l 2,99,100
 616 646 616 646 616 635 c 0,101,102
 616 625 616 625 606 625 c 2,103,-1
 381 625 l 2,0,1
EndSplineSet
Validated: 19457
Colour: ff00
EndChar

StartChar: uni0405
Encoding: 1029 1029 56
Width: 703
GlyphClass: 2
Flags: W
HStem: -8 58<330.379 476.378> 108 47<164 197.573> 345 38<290.431 440.4> 441 36<285.674 393.011> 629 81<462.5 494.62> 723 55<281.003 387.315>
VStem: 34 138<27.1809 107.531> 110 114<533.505 671.951> 468 24<629.047 683.927> 493 32<713.472 756.526> 522 126<96.3142 271.387>
DStem2: 374 452 299 362 0.78767 0.616098<-114.524 0 46.0271 150.51>
AnchorPoint: "HalfMark" 327 828.6 basechar 0
AnchorPoint: "DoubleTitlo" 670 828.4 basechar 0
AnchorPoint: "Yerok" 494 827.6 basechar 0
AnchorPoint: "Diacritic" 308 828.4 basechar 0
LayerCount: 3
Fore
SplineSet
648 186 m 0xfda0
 648 46 552 -8 422 -8 c 0
 343 -8 260 49 217 86 c 0
 200 101 179 108 165 108 c 2
 164 108 l 1
 169 98 172 87 172 76 c 0
 172 37 137 7 102 7 c 0
 63 7 34 41 34 76 c 0
 34 92 42 113 52 123 c 1
 77 152 105 155 121 155 c 0
 165 155 210 130 234 108 c 0
 274 71 349 50 403 50 c 0
 483 50 522 98 522 183 c 0xfea0
 522 283 457 345 360 345 c 0
 290 345 229 303 198 283 c 0
 196 281 193 280 191 280 c 0
 184 280 179 286 179 293 c 0
 179 297 180 300 184 303 c 2
 374 452 l 1
 352 445 326 441 296 441 c 0
 193 441 110 496 110 604 c 0
 110 710 186 778 292 778 c 0
 357 778 425 744 456 713 c 0
 458 711 461 710 464 710 c 0
 474 710 486 714 493 728 c 0
 497 736 503 758 513 758 c 0
 519 758 525 751 525 744 c 0xfdc0
 525 742 523 740 522 738 c 0
 513 719 498 665 492 639 c 0
 490 632 485 629 479 629 c 0
 473 629 468 633 468 640 c 0
 468 649 472 659 474 669 c 1
 450 694 405 723 357 723 c 0
 321 723 289 710 266 692 c 0
 240 672 224 644 224 606 c 0
 224 541 275 477 342 477 c 0
 388 477 438 505 468 525 c 1
 487 540 l 2
 489 542 492 543 494 543 c 0
 501 543 506 537 506 530 c 0
 506 526 505 523 501 520 c 2
 299 362 l 1
 335 375 376 383 428 383 c 0
 560 383 648 326 648 186 c 0xfda0
EndSplineSet
Validated: 19457
Layer: 2
SplineSet
648 186 m 0,0,1
 648 86 648 86 587 39 c 128,-1,2
 526 -8 526 -8 422 -8 c 0,3,4
 326 -8 326 -8 217 86 c 0,5,6
 192 108 192 108 165 108 c 2,7,-1
 164 108 l 1,8,9
 172 92 172 92 172 76 c 0,10,11
 172 48 172 48 150.5 27.5 c 128,-1,12
 129 7 129 7 102 7 c 0,13,14
 74 7 74 7 54 28 c 128,-1,15
 34 49 34 49 34 76 c 0,16,17
 34 105 34 105 52 123 c 1,18,19
 80 155 80 155 121 155 c 0,20,21
 183 155 183 155 234 108 c 0,22,23
 263 82 263 82 311.5 66 c 128,-1,24
 360 50 360 50 403 50 c 0,25,26
 522 50 522 50 522 183 c 0,27,28
 522 257 522 257 477.5 301 c 128,-1,29
 433 345 433 345 360 345 c 0,30,31
 294 345 294 345 198 283 c 0,32,33
 195 280 195 280 191 280 c 0,34,35
 179 280 179 280 179 293 c 0,36,37
 179 299 179 299 184 303 c 2,38,-1
 374 452 l 1,39,40
 339 441 339 441 296 441 c 0,41,42
 215 441 215 441 162.5 483.5 c 128,-1,43
 110 526 110 526 110 604 c 0,44,45
 110 683 110 683 161 730.5 c 128,-1,46
 212 778 212 778 292 778 c 0,47,48
 338 778 338 778 384.5 758 c 128,-1,49
 431 738 431 738 456 713 c 0,50,51
 459 710 459 710 464 710 c 0,52,53
 484 710 484 710 493 728 c 1,54,-1
 497 738 l 2,55,56
 501 748 501 748 505 753 c 128,-1,57
 509 758 509 758 513 758 c 0,58,59
 518 758 518 758 521.5 753.5 c 128,-1,60
 525 749 525 749 525 744 c 1,61,-1
 522 738 l 2,62,63
 508 709 508 709 492 639 c 0,64,65
 489 629 489 629 479 629 c 0,66,67
 468 629 468 629 468 640 c 0,68,69
 468 645 468 645 471 656.5 c 128,-1,70
 474 668 474 668 474 669 c 0,71,72
 422 723 422 723 357 723 c 0,73,74
 306 723 306 723 266 692 c 0,75,76
 224 660 224 660 224 606 c 0,77,78
 224 556 224 556 258.5 516.5 c 128,-1,79
 293 477 293 477 342 477 c 0,80,81
 396 477 396 477 468 525 c 1,82,-1
 487 540 l 2,83,84
 490 543 490 543 494 543 c 0,85,86
 506 543 506 543 506 530 c 0,87,88
 506 524 506 524 501 520 c 2,89,-1
 299 362 l 1,90,91
 357 383 357 383 428 383 c 0,92,93
 532 383 532 383 590 335 c 128,-1,94
 648 287 648 287 648 186 c 0,0,1
EndSplineSet
Validated: 19457
Colour: ff00
EndChar

StartChar: uni0406
Encoding: 1030 1030 57
Width: 310
GlyphClass: 2
Flags: W
HStem: 0 24<55 95 215 255> 746 24<55 95 215 255>
VStem: 95 120<24 746>
AnchorPoint: "HalfMark" 160 829.6 basechar 0
AnchorPoint: "DoubleTitlo" 310 829.4 basechar 0
AnchorPoint: "Yerok" 150 829.6 basechar 0
AnchorPoint: "Diacritic" 158 830 basechar 0
LayerCount: 3
Fore
SplineSet
55 746 m 5
 55 770 l 5
 255 770 l 5
 255 746 l 5
 215 746 l 5
 215 24 l 5
 255 24 l 5
 255 0 l 5
 55 0 l 5
 55 24 l 5
 95 24 l 5
 95 746 l 5
 55 746 l 5
EndSplineSet
Validated: 19457
Layer: 2
SplineSet
55 746 m 1,0,-1
 55 770 l 1,1,-1
 255 770 l 1,2,-1
 255 746 l 1,3,-1
 215 746 l 1,4,-1
 215 24 l 1,5,-1
 255 24 l 1,6,-1
 255 0 l 1,7,-1
 55 0 l 1,8,-1
 55 24 l 1,9,-1
 95 24 l 1,10,-1
 95 746 l 1,11,-1
 55 746 l 1,0,-1
EndSplineSet
Validated: 19457
Colour: ff00
EndChar

StartChar: uni0407
Encoding: 1031 1031 58
Width: 310
GlyphClass: 2
Flags: W
HStem: 0 24<55 95 215 255> 746 24<55 95 215 255>
VStem: 2 75<944.667 968> 95 120<24 746>
AnchorPoint: "HalfMark" 155 828.6 basechar 0
AnchorPoint: "DoubleTitlo" 309.597 1018.4 basechar 0
AnchorPoint: "Yerok" 113 985 basechar 0
AnchorPoint: "Diacritic" 113 985 basechar 0
LayerCount: 3
Fore
SplineSet
95 746 m 1
 55 746 l 1
 55 770 l 1
 255 770 l 1
 255 746 l 1
 215 746 l 1
 215 24 l 1
 255 24 l 1
 255 0 l 1
 55 0 l 1
 55 24 l 1
 95 24 l 1
 95 746 l 1
195 820 m 1
 142 958 l 2
 139 964 145 968 150 968 c 2
 217 968 l 1
 259 828 l 2
 260 823 258 820 253 820 c 2
 195 820 l 1
55 820 m 1
 2 958 l 2
 1 959 2 960 2 961 c 0
 2 965 6 968 10 968 c 2
 77 968 l 1
 119 828 l 2
 120 823 118 820 113 820 c 2
 55 820 l 1
EndSplineSet
Validated: 19457
Layer: 2
SplineSet
95 746 m 1,0,-1
 55 746 l 1,1,-1
 55 770 l 1,2,-1
 255 770 l 1,3,-1
 255 746 l 1,4,-1
 215 746 l 1,5,-1
 215 24 l 1,6,-1
 255 24 l 1,7,-1
 255 0 l 1,8,-1
 55 0 l 1,9,-1
 55 24 l 1,10,-1
 95 24 l 1,11,-1
 95 746 l 1,0,-1
195 820 m 1,12,-1
 142 958 l 2,13,14
 140 962 140 962 143 965 c 128,-1,15
 146 968 146 968 150 968 c 2,16,-1
 217 968 l 1,17,-1
 259 828 l 2,18,19
 261 820 261 820 253 820 c 2,20,-1
 195 820 l 1,12,-1
55 820 m 1,21,-1
 2 958 l 1,22,-1
 2 961 l 2,23,24
 2 968 2 968 10 968 c 2,25,-1
 77 968 l 1,26,-1
 119 828 l 2,27,28
 121 820 121 820 113 820 c 2,29,-1
 55 820 l 1,21,-1
EndSplineSet
Validated: 19457
Ligature2: "Cyrillic Canonical Equivalents" uni0406 uni0308
LCarets2: 1 0 
Colour: ff00
EndChar

StartChar: uni0408
Encoding: 1032 1032 59
Width: 477
GlyphClass: 2
Flags: W
HStem: -7 47<177.536 250.717> 746 24<208 262 381 434>
VStem: 20 124<85.4907 169> 262 119<77.3799 746>
AnchorPoint: "HalfMark" 327 828.6 basechar 0
AnchorPoint: "DoubleTitlo" 477 826.4 basechar 0
AnchorPoint: "Yerok" 300 827.6 basechar 0
AnchorPoint: "Diacritic" 323 828.7 basechar 0
LayerCount: 3
Fore
SplineSet
166 78 m 0
 186 44 210 40 223 40 c 0
 235 40 244 45 249 54 c 0
 258 68 262 93 262 130 c 2
 262 746 l 1
 208 746 l 1
 208 770 l 1
 434 770 l 1
 434 746 l 1
 381 746 l 1
 381 170 l 2
 381 94 342 24 285 4 c 0
 258 -5 236 -7 208 -7 c 0
 188 -7 168 -6 144 0 c 0
 86 15 20 86 20 155 c 0
 20 162 25 169 36 169 c 0
 72 169 108 169 144 169 c 1
 144 133 151 103 166 78 c 0
EndSplineSet
Validated: 19457
Layer: 2
SplineSet
166 78 m 0,0,1
 188 40 188 40 223 40 c 0,2,3
 241 40 241 40 249 54 c 0,4,5
 262 74 262 74 262 130 c 2,6,-1
 262 746 l 1,7,-1
 208 746 l 1,8,-1
 208 770 l 1,9,-1
 434 770 l 1,10,-1
 434 746 l 1,11,-1
 381 746 l 1,12,-1
 381 170 l 2,13,14
 381 113 381 113 354 66 c 128,-1,15
 327 19 327 19 285 4 c 0,16,17
 252 -7 252 -7 208 -7 c 0,18,19
 172 -7 172 -7 144 0 c 0,20,21
 98 12 98 12 59 58.5 c 128,-1,22
 20 105 20 105 20 155 c 0,23,24
 20 169 20 169 36 169 c 2,25,-1
 144 169 l 1,26,27
 144 115 144 115 166 78 c 0,0,1
EndSplineSet
Validated: 19457
Colour: ff00ff
EndChar

StartChar: uni0409
Encoding: 1033 1033 60
Width: 847
GlyphClass: 2
Flags: W
HStem: -1 24<13 76 211.441 267 343 403 523 671 791 831> 745 24<343 403 523 583>
VStem: 65 133<24.5016 174.489> 403 120<23 420 435.979 538 557.119 745> 671 120<23 350.155>
LayerCount: 3
Fore
SplineSet
571 391 m 1
 546 406 l 2
 538 410 530 415 523 420 c 1
 523 23 l 1
 671 23 l 1
 671 339 l 1
 638 356 604 374 571 391 c 1
76 24 m 1
 72 34 65 62 65 78 c 0
 65 112 72 144 87 175 c 0
 130 269 216 343 288 411 c 1
 343 466 387 542 403 636 c 1
 403 745 l 1
 343 745 l 1
 343 769 l 1
 583 769 l 1
 583 745 l 1
 523 745 l 1
 523 451 l 1
 562 421 610 396 659 377 c 0
 676 371 713 364 731 362 c 0
 753 359 757 359 782 358 c 0
 788 358 791 355 791 348 c 2
 791 23 l 1
 831 23 l 1
 831 -1 l 1
 343 -1 l 1
 343 23 l 1
 403 23 l 1
 403 538 l 1
 389 502 373 468 351 437 c 2
 316 389 l 1
 284 342 259 295 233 240 c 0
 209 188 198 145 198 76 c 0
 198 54 209 35 220 24 c 1
 267 24 l 1
 267 -1 l 1
 13 -1 l 1
 13 24 l 1
 76 24 l 1
EndSplineSet
Validated: 19457
Layer: 2
SplineSet
571 391 m 1,0,-1
 546 406 l 2,1,2
 535 412 535 412 523 420 c 1,3,-1
 523 23 l 1,4,-1
 671 23 l 1,5,-1
 671 339 l 1,6,7
 655 348 655 348 621.5 365 c 128,-1,8
 588 382 588 382 571 391 c 1,0,-1
76 24 m 1,9,10
 65 51 65 51 65 78 c 0,11,12
 65 130 65 130 87 175 c 0,13,14
 96 195 96 195 107 213.5 c 128,-1,15
 118 232 118 232 134 252 c 128,-1,16
 150 272 150 272 160.5 285 c 128,-1,17
 171 298 171 298 193 320 c 128,-1,18
 215 342 215 342 223 350 c 128,-1,19
 231 358 231 358 257 382.5 c 128,-1,20
 283 407 283 407 288 411 c 0,21,22
 380 503 380 503 403 636 c 1,23,-1
 403 745 l 1,24,-1
 343 745 l 1,25,-1
 343 769 l 1,26,-1
 583 769 l 1,27,-1
 583 745 l 1,28,-1
 523 745 l 1,29,-1
 523 451 l 1,30,31
 579 408 579 408 659 377 c 1,32,33
 688 367 688 367 731 362 c 0,34,35
 751 359 751 359 782 358 c 0,36,37
 791 358 791 358 791 348 c 2,38,-1
 791 23 l 1,39,-1
 831 23 l 1,40,-1
 831 -1 l 1,41,-1
 343 -1 l 1,42,-1
 343 23 l 1,43,-1
 403 23 l 1,44,-1
 403 538 l 1,45,46
 379 477 379 477 351 437 c 2,47,-1
 316 389 l 1,48,49
 275 329 275 329 233 240 c 0,50,51
 198 164 198 164 198 76 c 0,52,53
 198 46 198 46 220 24 c 1,54,-1
 267 24 l 1,55,-1
 267 -1 l 1,56,-1
 13 -1 l 1,57,-1
 13 24 l 1,58,-1
 76 24 l 1,9,10
EndSplineSet
Validated: 19457
Colour: ff00ff
EndChar

StartChar: uni040A
Encoding: 1034 1034 61
Width: 877
GlyphClass: 2
Flags: W
HStem: 0 24<41 101 221 281 360 420 540 688 808 848> 744 24<41 101 221 281 360 420 540 600>
VStem: 101 120<22 394 419 744> 420 120<24 345 370 421 436.979 744> 688 120<24 351.155>
DStem2: 221 419 221 394 0.970997 -0.23909<5.97725 204.944>
LayerCount: 3
Fore
SplineSet
588 392 m 1
 562 407 l 2
 555 411 547 416 540 421 c 1
 540 24 l 1
 688 24 l 1
 688 340 l 1
 655 357 621 375 588 392 c 1
600 770 m 1
 600 744 l 1
 540 744 l 1
 540 452 l 1
 579 422 627 397 676 378 c 1
 686 377 701 371 709 370 c 0
 741 366 769 359 799 359 c 0
 805 359 808 356 808 349 c 2
 808 24 l 1
 848 24 l 1
 848 0 l 1
 360 0 l 1
 360 24 l 1
 420 24 l 1
 420 345 l 1
 221 394 l 1
 221 22 l 1
 281 22 l 1
 281 0 l 1
 41 0 l 1
 41 22 l 1
 101 22 l 1
 101 744 l 1
 41 744 l 1
 41 768 l 1
 281 768 l 1
 281 744 l 1
 221 744 l 1
 221 419 l 1
 420 370 l 1
 420 744 l 1
 360 744 l 1
 360 770 l 1
 600 770 l 1
EndSplineSet
Validated: 19457
Layer: 2
SplineSet
588 392 m 1,0,-1
 562 407 l 2,1,2
 550 414 550 414 540 421 c 1,3,-1
 540 24 l 1,4,-1
 688 24 l 1,5,-1
 688 340 l 1,6,7
 672 349 672 349 638.5 366.5 c 128,-1,8
 605 384 605 384 588 392 c 1,0,-1
600 770 m 1,9,-1
 600 744 l 1,10,-1
 540 744 l 1,11,-1
 540 452 l 1,12,13
 596 409 596 409 676 378 c 0,14,15
 681 377 681 377 693 373.5 c 128,-1,16
 705 370 705 370 709 370 c 0,17,18
 720 369 720 369 738.5 365.5 c 128,-1,19
 757 362 757 362 771.5 360.5 c 128,-1,20
 786 359 786 359 799 359 c 0,21,22
 808 359 808 359 808 349 c 2,23,-1
 808 24 l 1,24,-1
 848 24 l 1,25,-1
 848 0 l 1,26,-1
 360 0 l 1,27,-1
 360 24 l 1,28,-1
 420 24 l 1,29,-1
 420 345 l 1,30,-1
 221 394 l 1,31,-1
 221 22 l 1,32,-1
 281 22 l 1,33,-1
 281 0 l 1,34,-1
 41 0 l 1,35,-1
 41 22 l 1,36,-1
 101 22 l 1,37,-1
 101 744 l 1,38,-1
 41 744 l 1,39,-1
 41 768 l 1,40,-1
 281 768 l 1,41,-1
 281 744 l 1,42,-1
 221 744 l 1,43,-1
 221 419 l 1,44,-1
 420 370 l 1,45,-1
 420 744 l 1,46,-1
 360 744 l 1,47,-1
 360 770 l 1,48,-1
 600 770 l 1,9,-1
EndSplineSet
Validated: 19457
Colour: ff00ff
EndChar

StartChar: uni040B
Encoding: 1035 1035 62
Width: 828
GlyphClass: 2
Flags: W
HStem: 0 30<204 264 384 437 543 609.856 743 799> 441 30<384 486.75> 751 25<11 51 166 264 384 499.915>
VStem: 51 115<532 751> 264 120<24 441 471 751> 565 27<616.006 668.071> 619 127<31.3688 293.252>
LayerCount: 3
Fore
SplineSet
606 30 m 1
 615 59 619 101 619 140 c 0
 619 239 600 313 558 378 c 1
 524 424 460 441 384 441 c 1
 384 24 l 1
 437 24 l 1
 437 0 l 1
 204 0 l 1
 204 24 l 1
 264 24 l 1
 264 751 l 1
 166 751 l 1
 166 532 l 1
 51 532 l 1
 51 751 l 1
 11 751 l 1
 11 776 l 1
 646 776 l 2
 652 776 655 771 655 765 c 0
 655 759 652 753 648 751 c 0
 612 729 599 673 592 623 c 0
 591 618 585 616 579 616 c 0
 573 616 566 618 565 623 c 0
 559 668 531 713 502 737 c 0
 492 746 464 751 420 751 c 2
 384 751 l 1
 384 471 l 1
 427 471 468 465 507 459 c 1
 565 445 l 1
 611 428 650 406 681 374 c 1
 723 326 746 263 746 180 c 2
 746 158 l 2
 746 116 743 61 743 30 c 1
 799 30 l 1
 799 0 l 1
 543 0 l 1
 543 30 l 1
 606 30 l 1
EndSplineSet
Validated: 1
Layer: 2
SplineSet
606 30 m 1,0,1
 619 72 619 72 619 140 c 0,2,3
 619 284 619 284 558 378 c 1,4,5
 511 441 511 441 384 441 c 1,6,-1
 384 24 l 1,7,-1
 437 24 l 1,8,-1
 437 0 l 1,9,-1
 204 0 l 1,10,-1
 204 24 l 1,11,-1
 264 24 l 1,12,-1
 264 751 l 1,13,-1
 166 751 l 1,14,-1
 166 532 l 1,15,-1
 51 532 l 1,16,-1
 51 751 l 1,17,-1
 11 751 l 1,18,-1
 11 776 l 1,19,-1
 646 776 l 2,20,21
 655 776 655 776 655 765 c 128,-1,22
 655 754 655 754 648 751 c 1,23,24
 606 726 606 726 592 623 c 0,25,26
 591 616 591 616 579 616 c 0,27,28
 566 616 566 616 565 623 c 0,29,30
 561 655 561 655 543 686.5 c 128,-1,31
 525 718 525 718 502 737 c 0,32,33
 486 751 486 751 420 751 c 2,34,-1
 384 751 l 1,35,-1
 384 471 l 1,36,37
 429 471 429 471 507 459 c 1,38,-1
 565 445 l 1,39,40
 639 418 639 418 681 374 c 1,41,42
 746 300 746 300 746 180 c 2,43,-1
 746 158 l 2,44,45
 746 136 746 136 744.5 90 c 128,-1,46
 743 44 743 44 743 30 c 1,47,-1
 799 30 l 1,48,-1
 799 0 l 1,49,-1
 543 0 l 1,50,-1
 543 30 l 1,51,-1
 606 30 l 1,0,1
EndSplineSet
Validated: 19457
Colour: ff00ff
EndChar

StartChar: uni040C
Encoding: 1036 1036 63
Width: 648
GlyphClass: 2
Flags: W
HStem: 0 24<55 115 235 295 398 455.988 582 630> 390 24<235 328.513> 746 24<55 115 235 295 378 438.058 558 609>
VStem: 115 120<24 390 414 746> 446 115<523.969 744.812> 454 128<24 146.938> 469 117<25.7395 289.82>
LayerCount: 3
Fore
SplineSet
454 24 m 1xf4
 461 61 469 105 469 149 c 0xf2
 469 219 459 294 428 333 c 0
 404 362 380 385 345 399 c 1
 310 394 274 390 235 390 c 1
 235 24 l 1
 295 24 l 1
 295 0 l 1
 55 0 l 1
 55 24 l 1
 115 24 l 1
 115 746 l 1
 55 746 l 1
 55 770 l 1
 295 770 l 1
 295 746 l 1
 235 746 l 1
 235 414 l 1
 299 414 362 426 391 465 c 0
 429 516 446 575 446 657 c 0
 446 689 442 723 435 746 c 1
 378 746 l 1
 378 770 l 1
 609 770 l 1
 609 746 l 1
 558 746 l 1
 561 721 561 674 561 639 c 2
 561 625 l 2xf8
 561 505 494 440 399 411 c 1
 482 398 537 360 564 291 c 0
 577 257 586 222 586 180 c 0
 586 170 586 147 586 130 c 2xf2
 585 91 l 2
 584 68 582 41 582 24 c 1
 630 24 l 1
 630 0 l 1
 398 0 l 1
 398 24 l 1
 454 24 l 1xf4
301 798 m 2
 298 798 296 800 296 803 c 0
 296 804 296 805 297 806 c 2
 406 1003 l 1
 469 1003 l 2
 471 1003 473 1000 473 997 c 0
 473 996 473 995 472 994 c 2
 331 798 l 1
 301 798 l 2
EndSplineSet
Validated: 1
Layer: 2
SplineSet
454 24 m 1,0,1
 469 103 469 103 469 149 c 0,2,3
 469 281 469 281 428 333 c 1,4,5
 387 382 387 382 345 399 c 1,6,7
 282 390 282 390 235 390 c 1,8,-1
 235 24 l 1,9,-1
 295 24 l 1,10,-1
 295 0 l 1,11,-1
 55 0 l 1,12,-1
 55 24 l 1,13,-1
 115 24 l 1,14,-1
 115 746 l 1,15,-1
 55 746 l 1,16,-1
 55 770 l 1,17,-1
 295 770 l 1,18,-1
 295 746 l 1,19,-1
 235 746 l 1,20,-1
 235 414 l 1,21,22
 353 414 353 414 391 465 c 0,23,24
 446 539 446 539 446 657 c 0,25,26
 446 710 446 710 435 746 c 1,27,-1
 378 746 l 1,28,-1
 378 770 l 1,29,-1
 609 770 l 1,30,-1
 609 746 l 1,31,-1
 558 746 l 1,32,33
 561 721 561 721 561 639 c 2,34,-1
 561 625 l 2,35,36
 561 460 561 460 399 411 c 1,37,38
 525 391 525 391 564 291 c 0,39,40
 586 233 586 233 586 180 c 2,41,42
 586 130 l 1,43,-1
 585 91 l 2,44,45
 585 83 585 83 584 68.5 c 128,-1,46
 583 54 583 54 582.5 43 c 128,-1,47
 582 32 582 32 582 24 c 1,48,-1
 630 24 l 1,49,-1
 630 0 l 1,50,-1
 398 0 l 1,51,-1
 398 24 l 1,52,-1
 454 24 l 1,0,1
301 798 m 2,53,54
 296 798 296 798 296 803 c 0,55,56
 296 805 296 805 297 806 c 2,57,-1
 406 1003 l 1,58,-1
 469 1003 l 2,59,60
 473 1003 473 1003 473 997 c 0,61,62
 473 995 473 995 472 994 c 2,63,-1
 331 798 l 1,64,-1
 301 798 l 2,53,54
EndSplineSet
Validated: 19457
Ligature2: "Cyrillic Canonical Equivalents" uni041A uni0301
LCarets2: 1 0 
Colour: ff00ff
EndChar

StartChar: uni040D
Encoding: 1037 1037 64
Width: 670
GlyphClass: 2
Flags: W
HStem: 0 24<55 115 235 295 375 435 555 615> 746 24<55 115 235 295 375 435 555 615>
VStem: 115 120<24 371 398 746> 435 120<24 468 495 746>
DStem2: 235 398 235 371 0.899761 0.436384<0 210.499>
LayerCount: 3
Fore
SplineSet
55 0 m 1
 55 24 l 1
 115 24 l 1
 115 746 l 1
 55 746 l 1
 55 770 l 1
 295 770 l 1
 295 746 l 1
 235 746 l 1
 235 398 l 1
 435 495 l 1
 435 746 l 1
 375 746 l 1
 375 770 l 1
 615 770 l 1
 615 746 l 1
 555 746 l 1
 555 24 l 1
 615 24 l 1
 615 0 l 1
 375 0 l 1
 375 24 l 1
 435 24 l 1
 435 468 l 1
 235 371 l 1
 235 24 l 1
 295 24 l 1
 295 0 l 1
 55 0 l 1
337 844 m 2
 338 843 338 842 338 841 c 0
 338 838 332 835 330 835 c 2
 299 835 l 1
 120 1032 l 2
 118 1034 118 1035 118 1037 c 0
 118 1043 126 1048 131 1048 c 2
 195 1048 l 1
 337 844 l 2
EndSplineSet
Validated: 1
Layer: 2
SplineSet
55 0 m 1,0,-1
 55 24 l 1,1,-1
 115 24 l 1,2,-1
 115 746 l 1,3,-1
 55 746 l 1,4,-1
 55 770 l 1,5,-1
 295 770 l 1,6,-1
 295 746 l 1,7,-1
 235 746 l 1,8,-1
 235 398 l 1,9,-1
 435 495 l 1,10,-1
 435 746 l 1,11,-1
 375 746 l 1,12,-1
 375 770 l 1,13,-1
 615 770 l 1,14,-1
 615 746 l 1,15,-1
 555 746 l 1,16,-1
 555 24 l 1,17,-1
 615 24 l 1,18,-1
 615 0 l 1,19,-1
 375 0 l 1,20,-1
 375 24 l 1,21,-1
 435 24 l 1,22,-1
 435 468 l 1,23,-1
 235 371 l 1,24,-1
 235 24 l 1,25,-1
 295 24 l 1,26,-1
 295 0 l 1,27,-1
 55 0 l 1,0,-1
337 844 m 2,28,29
 338 843 338 843 338 841 c 0,30,31
 338 835 338 835 330 835 c 2,32,-1
 299 835 l 1,33,-1
 120 1032 l 2,34,35
 118 1034 118 1034 118 1037 c 0,36,37
 118 1041 118 1041 122.5 1044.5 c 128,-1,38
 127 1048 127 1048 131 1048 c 2,39,-1
 195 1048 l 1,40,-1
 337 844 l 2,28,29
EndSplineSet
Validated: 19457
Ligature2: "Cyrillic Canonical Equivalents" uni0418 uni0300
LCarets2: 1 0 
Colour: ff00ff
EndChar

StartChar: uni040E
Encoding: 1038 1038 65
Width: 702
GlyphClass: 2
Flags: W
HStem: -15 23<242.834 429.398> 97 24<207.002 291.755 369.855 461.998> 230 23<243.443 342 373 437.781> 344 24<141.035 203 329 370> 746 24<39.0015 93 219 291.414> 758 20G<635.5 648.5> 802 65<319.944 447.59>
VStem: 121 23<75.5318 161.605> 508 38<928.691 950.211> 527 23<76.8103 163.084>
DStem2: 219 746 93 746 0.279415 -0.960171<0 358.474> 333 193 357 186 0.240737 0.97059<-18.7404 38.0785 65.9237 155.466 180.205 501.457>
LayerCount: 3
Fore
SplineSet
550 119 m 0xf740
 550 20 434 -15 335 -15 c 0
 236 -15 121 20 121 121 c 0
 121 218 236 253 334 253 c 2
 347 253 l 1
 370 344 l 1
 150 344 l 2
 144 344 141 351 141 357 c 0
 141 362 144 368 150 368 c 2
 203 368 l 1
 93 746 l 1
 45 746 l 2xfb40
 41 746 39 752 39 758 c 0xf740
 39 764 41 770 45 770 c 2
 286 770 l 2
 294 770 294 746 286 746 c 2
 219 746 l 1xfb40
 329 368 l 1
 376 368 l 1
 436 613 l 2
 453 683 485 719 505 735 c 0
 530 755 571 777 609 777 c 0
 616 777 629 778 642 778 c 0
 655 778 667 777 673 777 c 0
 679 776 684 770 684 765 c 0
 684 762 683 759 681 758 c 0
 650 736 628 691 628 642 c 0
 628 630 629 618 632 606 c 0
 634 598 621 589 611 600 c 2
 523 697 l 1
 503 693 473 660 460 607 c 2
 373 251 l 1
 461 251 550 205 550 119 c 0xf740
527 119 m 0
 527 195 446 230 367 230 c 1
 357 186 l 2
 355 179 355 173 355 168 c 0
 355 139 375 121 407 121 c 2
 453 121 l 2
 459 121 462 115 462 109 c 0
 462 103 459 97 453 97 c 2
 216 97 l 2
 210 97 207 103 207 109 c 0
 207 115 210 121 216 121 c 2
 234 121 l 2
 287 121 319 137 333 193 c 2
 342 230 l 1
 334 230 l 2
 247 230 144 205 144 119 c 0
 144 32 248 8 335 8 c 0
 422 8 527 32 527 119 c 0
261 957 m 1
 270 934 292 908 312 894 c 0
 330 881 354 867 382 867 c 0
 384 867 387 867 389 867 c 0
 418 867 443 883 460 897 c 0
 479 913 500 936 508 960 c 1
 546 948 l 1xf380
 529 888 481 838 428 813 c 0
 411 805 393 802 376 802 c 0
 357 802 338 806 322 815 c 0
 277 841 243 886 223 937 c 1
 261 957 l 1
EndSplineSet
Validated: 1
Layer: 2
SplineSet
550 119 m 0,0,1
 550 51 550 51 485.5 18 c 128,-1,2
 421 -15 421 -15 335 -15 c 0,3,4
 281 -15 281 -15 235 -3 c 128,-1,5
 189 9 189 9 155 41 c 128,-1,6
 121 73 121 73 121 121 c 0,7,8
 121 167 121 167 155 198 c 128,-1,9
 189 229 189 229 235 241 c 128,-1,10
 281 253 281 253 334 253 c 2,11,-1
 347 253 l 1,12,-1
 370 344 l 1,13,-1
 150 344 l 2,14,15
 141 344 141 344 141 357 c 0,16,17
 141 368 141 368 150 368 c 2,18,-1
 203 368 l 1,19,-1
 93 746 l 1,20,-1
 45 746 l 2,21,22
 39 746 39 746 39 758 c 128,-1,23
 39 770 39 770 45 770 c 2,24,-1
 286 770 l 2,25,26
 292 770 292 770 292 758 c 128,-1,27
 292 746 292 746 286 746 c 2,28,-1
 219 746 l 1,29,-1
 329 368 l 1,30,-1
 376 368 l 1,31,-1
 436 613 l 2,32,33
 456 696 456 696 505 735 c 0,34,35
 558 777 558 777 609 777 c 0,36,37
 612 777 612 777 623.5 777.5 c 128,-1,38
 635 778 635 778 642 778 c 128,-1,39
 649 778 649 778 660 777.5 c 128,-1,40
 671 777 671 777 673 777 c 0,41,42
 684 775 684 775 684 765 c 0,43,44
 684 760 684 760 681 758 c 0,45,46
 657 741 657 741 642.5 709.5 c 128,-1,47
 628 678 628 678 628 642 c 0,48,49
 628 622 628 622 632 606 c 0,50,51
 633 602 633 602 630 598.5 c 128,-1,52
 627 595 627 595 621.5 595 c 128,-1,53
 616 595 616 595 611 600 c 2,54,-1
 523 697 l 1,55,56
 507 694 507 694 488 669 c 128,-1,57
 469 644 469 644 460 607 c 2,58,-1
 373 251 l 1,59,60
 444 251 444 251 497 215.5 c 128,-1,61
 550 180 550 180 550 119 c 0,0,1
527 119 m 0,62,63
 527 172 527 172 479.5 201 c 128,-1,64
 432 230 432 230 367 230 c 1,65,-1
 357 186 l 2,66,67
 355 179 355 179 355 168 c 0,68,69
 355 146 355 146 369 133.5 c 128,-1,70
 383 121 383 121 407 121 c 2,71,-1
 453 121 l 2,72,73
 462 121 462 121 462 109 c 128,-1,74
 462 97 462 97 453 97 c 2,75,-1
 216 97 l 2,76,77
 207 97 207 97 207 109 c 128,-1,78
 207 121 207 121 216 121 c 2,79,-1
 234 121 l 2,80,81
 276 121 276 121 299.5 137 c 128,-1,82
 323 153 323 153 333 193 c 2,83,-1
 342 230 l 1,84,-1
 334 230 l 2,85,86
 286 230 286 230 245.5 221 c 128,-1,87
 205 212 205 212 174.5 185.5 c 128,-1,88
 144 159 144 159 144 119 c 0,89,90
 144 60 144 60 200.5 34 c 128,-1,91
 257 8 257 8 335 8 c 128,-1,92
 413 8 413 8 470 34 c 128,-1,93
 527 60 527 60 527 119 c 0,62,63
261 957 m 1,94,95
 276 919 276 919 312 894 c 1,96,97
 349 867 349 867 382 867 c 2,98,-1
 389 867 l 2,99,100
 424 867 424 867 460 897 c 0,101,102
 498 929 498 929 508 960 c 1,103,-1
 546 948 l 1,104,105
 534 904 534 904 501.5 868 c 128,-1,106
 469 832 469 832 428 813 c 0,107,108
 405 802 405 802 376 802 c 0,109,110
 345 802 345 802 322 815 c 0,111,112
 256 853 256 853 223 937 c 1,113,-1
 261 957 l 1,94,95
EndSplineSet
Validated: 19457
Ligature2: "Cyrillic Canonical Equivalents" uni0423 uni0306
LCarets2: 1 0 
Colour: ff00ff
EndChar

StartChar: uni040F
Encoding: 1039 1039 66
Width: 702
GlyphClass: 2
Flags: W
HStem: 0 24<27 87 207 277 397 467 587 647> 746 24<27 87 207 267 407 467 587 647>
VStem: 87 120<24 746> 277 120<-145.875 0> 467 120<24 746>
CounterMasks: 1 38
LayerCount: 3
Fore
SplineSet
337 -330 m 0
 326 -330 320 -324 317 -315 c 0
 307 -278 271 -251 239 -234 c 0
 226 -227 214 -223 202 -220 c 0
 194 -219 188 -211 188 -202 c 0
 188 -193 194 -186 202 -184 c 0
 246 -171 277 -131 277 -77 c 2
 277 0 l 1
 27 0 l 1
 27 24 l 1
 87 24 l 1
 87 746 l 1
 27 746 l 1
 27 770 l 1
 267 770 l 1
 267 746 l 1
 207 746 l 1
 207 24 l 1
 467 24 l 1
 467 746 l 1
 407 746 l 1
 407 770 l 1
 647 770 l 1
 647 746 l 1
 587 746 l 1
 587 24 l 1
 647 24 l 1
 647 0 l 1
 397 0 l 1
 397 -77 l 2
 397 -131 428 -171 472 -184 c 0
 480 -186 485 -193 485 -202 c 0
 485 -211 480 -219 472 -220 c 0
 431 -229 394 -256 373 -286 c 0
 365 -296 360 -306 357 -315 c 0
 354 -324 348 -330 337 -330 c 0
EndSplineSet
Validated: 1
Layer: 2
SplineSet
337 -330 m 128,-1,1
 322 -330 322 -330 317 -315 c 1,2,3
 305 -269 305 -269 239 -234 c 0,4,5
 223 -225 223 -225 202 -220 c 1,6,7
 188 -218 188 -218 188 -202 c 0,8,9
 188 -188 188 -188 202 -184 c 0,10,11
 236 -174 236 -174 256.5 -145.5 c 128,-1,12
 277 -117 277 -117 277 -77 c 2,13,-1
 277 0 l 1,14,-1
 27 0 l 1,15,-1
 27 24 l 1,16,-1
 87 24 l 1,17,-1
 87 746 l 1,18,-1
 27 746 l 1,19,-1
 27 770 l 1,20,-1
 267 770 l 1,21,-1
 267 746 l 1,22,-1
 207 746 l 1,23,-1
 207 24 l 1,24,-1
 467 24 l 1,25,-1
 467 746 l 1,26,-1
 407 746 l 1,27,-1
 407 770 l 1,28,-1
 647 770 l 1,29,-1
 647 746 l 1,30,-1
 587 746 l 1,31,-1
 587 24 l 1,32,-1
 647 24 l 1,33,-1
 647 0 l 1,34,-1
 397 0 l 1,35,-1
 397 -77 l 2,36,37
 397 -117 397 -117 417.5 -145.5 c 128,-1,38
 438 -174 438 -174 472 -184 c 0,39,40
 485 -187 485 -187 485 -202 c 0,41,42
 485 -218 485 -218 472 -220 c 0,43,44
 410 -234 410 -234 373 -286 c 0,45,46
 362 -300 362 -300 357 -315 c 128,-1,0
 352 -330 352 -330 337 -330 c 128,-1,1
EndSplineSet
Validated: 19457
Colour: ff00ff
EndChar

StartChar: uni0410
Encoding: 1040 1040 67
Width: 568
GlyphClass: 2
Flags: W
HStem: 0 24<19 72.2562 189.828 249 306 366 486 546> 292 44<174.688 243.269> 564 111<161.771 211.636> 680 24<245.02 297.255> 746 24<306 366 486 546>
VStem: 58 162<170.777 273.055> 84 89<338.212 410.597> 116 27<83.4503 146> 147 126<579.63 674.273> 356 130<452.109 585.438> 366 120<24 461 623 746>
AnchorPoint: "HalfMark" 327 829.6 basechar 0
AnchorPoint: "DoubleTitlo" 568.5 830.4 basechar 0
AnchorPoint: "Yerok" 400 827.6 basechar 0
AnchorPoint: "Diacritic" 426 830 basechar 0
LayerCount: 3
Fore
SplineSet
58 222 m 4xfc
 58 265 89 297 128 297 c 5
 100 308 84 334 84 361 c 4xfa
 84 440 162 475 248 522 c 4
 300 550 333 593 333 629 c 6
 333 631 l 5
 316 659 290 680 257 680 c 4
 252 680 248 680 244 680 c 5
 260 669 273 650 273 627 c 4
 273 593 246 564 209 564 c 4
 176 564 147 590 147 625 c 4xf880
 147 643 155 662 169 675 c 4
 170 675 170 675 171 676 c 4
 193 693 225 704 257 704 c 4
 313 704 348 667 366 623 c 5
 366 746 l 5
 306 746 l 5
 306 770 l 5
 546 770 l 5
 546 746 l 5
 486 746 l 5
 486 24 l 5
 546 24 l 5
 546 0 l 5
 306 0 l 5
 306 24 l 5
 366 24 l 5
 366 461 l 5
 358 438 345 415 328 391 c 4
 287 333 224 292 169 292 c 5
 200 281 220 254 220 222 c 4xfc20
 220 218 219 215 219 211 c 4
 213 172 181 146 143 146 c 5
 143 134 l 6
 143 93 182 24 215 24 c 6
 249 24 l 5
 249 0 l 5
 19 0 l 5
 19 24 l 5
 47 24 l 6
 85 24 116 99 116 138 c 6
 116 149 l 5xf9
 82 159 58 187 58 222 c 4xfc
356 553 m 4xfa40
 356 563 354 574 351 586 c 5
 337 535 285 491 235 450 c 4
 204 425 173 391 173 370 c 4
 173 344 190 336 208 336 c 4
 225 336 236 340 251 351 c 4
 271 365 292 384 306 404 c 4
 342 455 356 497 356 553 c 4xfa40
EndSplineSet
Validated: 19457
Layer: 2
SplineSet
58 222 m 0,0,1
 58 254 58 254 78.5 275.5 c 128,-1,2
 99 297 99 297 128 297 c 1,3,4
 107 305 107 305 95.5 322.5 c 128,-1,5
 84 340 84 340 84 361 c 0,6,7
 84 373 84 373 86.5 384 c 128,-1,8
 89 395 89 395 92.5 403.5 c 128,-1,9
 96 412 96 412 104 422 c 128,-1,10
 112 432 112 432 117 438 c 128,-1,11
 122 444 122 444 134.5 453.5 c 128,-1,12
 147 463 147 463 153 467.5 c 128,-1,13
 159 472 159 472 175 481.5 c 128,-1,14
 191 491 191 491 197.5 494.5 c 128,-1,15
 204 498 204 498 223 508.5 c 128,-1,16
 242 519 242 519 248 522 c 0,17,18
 287 543 287 543 310 572.5 c 128,-1,19
 333 602 333 602 333 629 c 2,20,-1
 333 631 l 1,21,22
 303 680 303 680 257 680 c 2,23,-1
 244 680 l 1,24,25
 273 660 273 660 273 627 c 0,26,27
 273 601 273 601 254.5 582.5 c 128,-1,28
 236 564 236 564 209 564 c 0,29,30
 184 564 184 564 165.5 581.5 c 128,-1,31
 147 599 147 599 147 625 c 0,32,33
 147 655 147 655 169 675 c 0,34,35
 170 675 170 675 171 676 c 0,36,37
 207 704 207 704 257 704 c 0,38,39
 333 704 333 704 366 623 c 1,40,-1
 366 746 l 1,41,-1
 306 746 l 1,42,-1
 306 770 l 1,43,-1
 546 770 l 1,44,-1
 546 746 l 1,45,-1
 486 746 l 1,46,-1
 486 24 l 1,47,-1
 546 24 l 1,48,-1
 546 0 l 1,49,-1
 306 0 l 1,50,-1
 306 24 l 1,51,-1
 366 24 l 1,52,-1
 366 461 l 1,53,54
 355 429 355 429 328 391 c 0,55,56
 297 347 297 347 253.5 319.5 c 128,-1,57
 210 292 210 292 169 292 c 1,58,59
 192 284 192 284 206 265 c 128,-1,60
 220 246 220 246 220 222 c 0,61,62
 220 220 220 220 219.5 216.5 c 128,-1,63
 219 213 219 213 219 211 c 0,64,65
 215 182 215 182 193.5 164 c 128,-1,66
 172 146 172 146 143 146 c 1,67,-1
 143 134 l 2,68,69
 143 102 143 102 167 63 c 128,-1,70
 191 24 191 24 215 24 c 2,71,-1
 249 24 l 1,72,-1
 249 0 l 1,73,-1
 19 0 l 1,74,-1
 19 24 l 1,75,-1
 47 24 l 2,76,77
 73 24 73 24 94.5 64.5 c 128,-1,78
 116 105 116 105 116 138 c 2,79,-1
 116 149 l 1,80,81
 90 157 90 157 74 176.5 c 128,-1,82
 58 196 58 196 58 222 c 0,0,1
356 553 m 0,83,84
 356 566 356 566 351 586 c 1,85,86
 342 552 342 552 313 521 c 128,-1,87
 284 490 284 490 235 450 c 0,88,89
 173 400 173 400 173 370 c 0,90,91
 173 336 173 336 208 336 c 0,92,93
 231 336 231 336 251 351 c 0,94,95
 286 376 286 376 306 404 c 0,96,97
 356 475 356 475 356 553 c 0,83,84
EndSplineSet
Validated: 19457
Colour: ff00
EndChar

StartChar: uni0411
Encoding: 1041 1041 68
Width: 628
GlyphClass: 2
Flags: W
HStem: 0 24<55 115 235 413 533 573> 594 21G<414 419.5> 746 24<55 115 235 343.929>
VStem: 115 120<24 473 486.854 746> 405 22<594.057 647.564> 413 120<24 380.417>
AnchorPoint: "HalfMark" 327 829.6 basechar 0
AnchorPoint: "DoubleTitlo" 628.5 830.4 basechar 0
AnchorPoint: "Yerok" 400 827.6 basechar 0
AnchorPoint: "Diacritic" 314 830 basechar 0
LayerCount: 3
Fore
SplineSet
235 746 m 1xf8
 235 504 l 1
 276 468 345 427 401 406 c 0
 427 396 488 387 524 387 c 0
 529 387 533 382 533 377 c 2
 533 24 l 1xf4
 573 24 l 1
 573 0 l 1
 55 0 l 1
 55 24 l 1
 115 24 l 1
 115 746 l 1
 55 746 l 1
 55 770 l 1
 488 770 l 2
 502 770 495 756 490 751 c 0
 455 720 434 657 427 604 c 0
 426 599 422 594 417 594 c 0
 411 594 406 599 405 604 c 0
 402 631 388 671 370 702 c 0
 354 727 336 746 318 746 c 2
 235 746 l 1xf8
313 421 m 1
 282 439 258 454 235 473 c 1
 235 24 l 1
 413 24 l 1
 413 369 l 1
 391 381 347 403 313 421 c 1
EndSplineSet
Validated: 19457
Layer: 2
SplineSet
235 746 m 1,0,-1
 235 504 l 1,1,2
 306 442 306 442 401 406 c 0,3,4
 450 387 450 387 524 387 c 0,5,6
 533 387 533 387 533 377 c 2,7,-1
 533 24 l 1,8,-1
 573 24 l 1,9,-1
 573 0 l 1,10,-1
 55 0 l 1,11,-1
 55 24 l 1,12,-1
 115 24 l 1,13,-1
 115 746 l 1,14,-1
 55 746 l 1,15,-1
 55 770 l 1,16,-1
 488 770 l 2,17,18
 494 770 494 770 495.5 766 c 128,-1,19
 497 762 497 762 495 758 c 128,-1,20
 493 754 493 754 490 751 c 0,21,22
 441 707 441 707 427 604 c 0,23,24
 425 594 425 594 417 594 c 0,25,26
 407 594 407 594 405 604 c 0,27,28
 400 651 400 651 370 702 c 1,29,30
 342 746 342 746 318 746 c 2,31,-1
 235 746 l 1,0,-1
313 421 m 0,32,33
 262 450 262 450 235 473 c 1,34,-1
 235 24 l 1,35,-1
 413 24 l 1,36,-1
 413 369 l 1,37,38
 401 375 401 375 365 394 c 128,-1,39
 329 413 329 413 313 421 c 0,32,33
EndSplineSet
Validated: 19457
Colour: ff00
EndChar

StartChar: uni0412
Encoding: 1042 1042 69
Width: 610
GlyphClass: 2
Flags: W
HStem: 0 24<55 115 235 410 520 555> 249 25<520 555> 541 39<333.696 457.5> 568 20G<331 342.5> 758 20<298.26 384.286>
VStem: 115 120<24 382 422 684.65> 410 110<24 249> 439 93<592.455 708.101>
DStem2: 235 422 252 401 0.475403 0.879768<0 175.709>
AnchorPoint: "HalfMark" 327 829.6 basechar 0
AnchorPoint: "DoubleTitlo" 609.5 830.4 basechar 0
AnchorPoint: "Yerok" 400 827.6 basechar 0
AnchorPoint: "Diacritic" 336 830 basechar 0
LayerCount: 3
Fore
SplineSet
532 646 m 0xed
 532 589 486 541 429 541 c 0
 400 541 373 554 339 562 c 1
 252 401 l 1
 292 361 352 321 410 296 c 0
 423 290 470 274 515 274 c 0
 529 274 555 273 555 273 c 1
 555 249 l 1
 520 249 l 1
 520 24 l 1xee
 555 24 l 1
 555 0 l 1
 55 0 l 1
 55 24 l 1
 115 24 l 1
 115 609 l 2
 115 655 132 686 157 711 c 0
 188 741 265 778 334 778 c 0
 428 778 532 737 532 646 c 0xed
334 307 m 0
 292 332 265 354 235 382 c 1
 235 24 l 1
 410 24 l 1
 410 264 l 1
 385 275 361 290 334 307 c 0
322 583 m 2
 324 587 329 588 333 588 c 2
 335 588 l 1xdd
 350 585 366 580 381 580 c 0
 418 580 439 608 439 643 c 2
 439 667 l 2xed
 439 724 393 758 338 758 c 0
 271 758 235 690 235 625 c 2
 235 422 l 1
 322 583 l 2
EndSplineSet
Validated: 19457
Layer: 2
SplineSet
532 646 m 128,-1,1
 532 603 532 603 502 572 c 128,-1,2
 472 541 472 541 429 541 c 0,3,4
 416 541 416 541 402 544.5 c 128,-1,5
 388 548 388 548 369.5 553.5 c 128,-1,6
 351 559 351 559 339 562 c 1,7,-1
 252 401 l 1,8,9
 317 336 317 336 410 296 c 1,10,11
 458 274 458 274 515 274 c 1,12,-1
 555 273 l 1,13,-1
 555 249 l 1,14,-1
 520 249 l 1,15,-1
 520 24 l 1,16,-1
 555 24 l 1,17,-1
 555 0 l 1,18,-1
 55 0 l 1,19,-1
 55 24 l 1,20,-1
 115 24 l 1,21,-1
 115 609 l 2,22,23
 115 669 115 669 157 711 c 0,24,25
 183 736 183 736 234.5 757 c 128,-1,26
 286 778 286 778 334 778 c 0,27,28
 384 778 384 778 427.5 764.5 c 128,-1,29
 471 751 471 751 501.5 720 c 128,-1,0
 532 689 532 689 532 646 c 128,-1,1
334 307 m 1,30,31
 283 338 283 338 235 382 c 1,32,-1
 235 24 l 1,33,-1
 410 24 l 1,34,-1
 410 264 l 1,35,36
 384 275 384 275 334 307 c 1,30,31
322 583 m 2,37,38
 324 588 324 588 333 588 c 2,39,-1
 335 588 l 1,40,41
 375 580 375 580 381 580 c 0,42,43
 408 580 408 580 423.5 598 c 128,-1,44
 439 616 439 616 439 643 c 2,45,-1
 439 667 l 2,46,47
 439 708 439 708 410 733 c 128,-1,48
 381 758 381 758 338 758 c 0,49,50
 291 758 291 758 263 718 c 128,-1,51
 235 678 235 678 235 625 c 2,52,-1
 235 422 l 1,53,-1
 322 583 l 2,37,38
EndSplineSet
Validated: 19457
Colour: ff00
EndChar

StartChar: uni0413
Encoding: 1043 1043 70
Width: 455
GlyphClass: 2
Flags: W
HStem: 0 24<55 115 235 295> 746 24<55 115 235 322.306>
VStem: 115 120<24 746>
AnchorPoint: "HalfMark" 238 829.6 basechar 0
AnchorPoint: "DoubleTitlo" 453.5 829.4 basechar 0
AnchorPoint: "Yerok" 325 829.6 basechar 0
AnchorPoint: "Diacritic" 178 830 basechar 0
LayerCount: 3
Fore
SplineSet
318 746 m 5
 235 746 l 5
 235 24 l 5
 295 24 l 5
 295 0 l 5
 55 0 l 5
 55 24 l 5
 115 24 l 5
 115 746 l 5
 55 746 l 5
 55 770 l 5
 449 770 l 6
 453 770 455 766 455 762 c 4
 455 759 454 756 452 753 c 4
 430 720 417 673 417 626 c 4
 417 616 419 607 419 597 c 4
 419 592 411 590 406 594 c 4
 378 617 340 691 318 746 c 5
EndSplineSet
Validated: 19457
Layer: 2
SplineSet
318 746 m 1,0,-1
 235 746 l 1,1,-1
 235 24 l 1,2,-1
 295 24 l 1,3,-1
 295 0 l 1,4,-1
 55 0 l 1,5,-1
 55 24 l 1,6,-1
 115 24 l 1,7,-1
 115 746 l 1,8,-1
 55 746 l 1,9,-1
 55 770 l 1,10,-1
 449 770 l 2,11,12
 455 770 455 770 455 762 c 0,13,14
 455 758 455 758 452 753 c 0,15,16
 417 695 417 695 417 626 c 0,17,18
 417 621 417 621 418 611.5 c 128,-1,19
 419 602 419 602 419 597 c 0,20,21
 419 593 419 593 414.5 592 c 128,-1,22
 410 591 410 591 406 594 c 0,23,24
 387 610 387 610 362 655 c 128,-1,25
 337 700 337 700 318 746 c 1,0,-1
EndSplineSet
Validated: 19457
Colour: ff00
EndChar

StartChar: uni0414
Encoding: 1044 1044 71
Width: 652
GlyphClass: 2
Flags: W
HStem: 0 24<220.58 421> 519 132<279.35 377.87> 746 24<361 421 541 601>
VStem: 101 108<25.2289 225.941> 262 132<535.92 600.626> 404 137<506.833 600.391> 421 120<24 522 603 746>
AnchorPoint: "HalfMark" 328 828.6 basechar 0
AnchorPoint: "DoubleTitlo" 651.5 829.4 basechar 0
AnchorPoint: "Yerok" 500 829.6 basechar 0
AnchorPoint: "Diacritic" 484 829.3 basechar 0
LayerCount: 3
Fore
SplineSet
329 651 m 6xfc
 335 651 l 6
 370 651 405 633 421 603 c 5
 421 746 l 5
 361 746 l 5
 361 770 l 5
 601 770 l 5
 601 746 l 5
 541 746 l 5
 541 24 l 5xfa
 622 24 l 6
 630 24 632 17 632 10 c 4
 632 6 631 2 630 0 c 4
 621 -19 608 -44 596 -71 c 4
 585 -97 575 -125 569 -148 c 4
 568 -151 566 -153 564 -153 c 4
 561 -153 558 -151 556 -148 c 4
 535 -113 503 -44 484 0 c 5
 166 0 l 5
 147 -44 115 -113 94 -148 c 4
 92 -151 89 -153 86 -153 c 4
 84 -153 82 -151 81 -148 c 4
 68 -102 39 -39 20 0 c 4
 19 2 18 6 18 10 c 4
 18 17 20 24 28 24 c 6
 111 24 l 5
 104 49 101 91 101 124 c 4
 101 195 129 252 170 301 c 4
 215 355 275 400 329 446 c 4
 370 481 404 528 404 566 c 4
 404 576 402 588 392 601 c 5
 394 593 394 586 394 578 c 4
 394 544 362 519 329 519 c 4
 327 519 325 519 323 519 c 4
 289 519 262 551 262 585 c 4
 262 586 262 588 262 590 c 4
 262 624 295 651 329 651 c 6xfc
421 24 m 5
 421 522 l 5
 406 486 375 459 346 418 c 4
 310 367 276 320 251 273 c 4
 225 225 209 177 209 127 c 4
 209 89 212 51 225 24 c 5
 421 24 l 5
EndSplineSet
Validated: 19457
Layer: 2
SplineSet
329 651 m 2,0,-1
 335 651 l 2,1,2
 362 651 362 651 385.5 638 c 128,-1,3
 409 625 409 625 421 603 c 1,4,-1
 421 746 l 1,5,-1
 361 746 l 1,6,-1
 361 770 l 1,7,-1
 601 770 l 1,8,-1
 601 746 l 1,9,-1
 541 746 l 1,10,-1
 541 24 l 1,11,-1
 622 24 l 2,12,13
 632 24 632 24 632 10 c 0,14,15
 632 4 632 4 630 0 c 0,16,17
 629 -2 629 -2 616 -28.5 c 128,-1,18
 603 -55 603 -55 596 -71 c 0,19,20
 578 -114 578 -114 569 -148 c 0,21,22
 567 -153 567 -153 564 -153 c 0,23,24
 559 -153 559 -153 556 -148 c 0,25,26
 527 -100 527 -100 484 0 c 1,27,-1
 166 0 l 1,28,29
 123 -100 123 -100 94 -148 c 0,30,31
 91 -153 91 -153 86 -153 c 0,32,33
 83 -153 83 -153 81 -148 c 0,34,35
 66 -94 66 -94 20 0 c 0,36,37
 18 4 18 4 18 10 c 0,38,39
 18 24 18 24 28 24 c 2,40,-1
 111 24 l 1,41,42
 101 60 101 60 101 124 c 0,43,44
 101 219 101 219 170 301 c 0,45,46
 186 320 186 320 207.5 341 c 128,-1,47
 229 362 229 362 244.5 375.5 c 128,-1,48
 260 389 260 389 289 412.5 c 128,-1,49
 318 436 318 436 329 446 c 0,50,51
 404 510 404 510 404 566 c 0,52,53
 404 585 404 585 392 601 c 1,54,55
 394 593 394 593 394 578 c 0,56,57
 394 553 394 553 374.5 536 c 128,-1,58
 355 519 355 519 329 519 c 2,59,-1
 323 519 l 2,60,61
 298 519 298 519 280 539 c 128,-1,62
 262 559 262 559 262 585 c 2,63,-1
 262 590 l 2,64,65
 262 615 262 615 282.5 633 c 128,-1,66
 303 651 303 651 329 651 c 2,0,-1
421 24 m 1,67,-1
 421 522 l 1,68,69
 414 506 414 506 402.5 490 c 128,-1,70
 391 474 391 474 373.5 453.5 c 128,-1,71
 356 433 356 433 346 418 c 0,72,73
 273 315 273 315 251 273 c 0,74,75
 209 195 209 195 209 127 c 0,76,77
 209 57 209 57 225 24 c 1,78,-1
 421 24 l 1,67,-1
EndSplineSet
Validated: 19457
Colour: ff00
EndChar

StartChar: uni0415
Encoding: 1045 1045 72
Width: 670
GlyphClass: 2
Flags: W
HStem: -8 25<208.935 307.102> 309 21<420.012 477 593 625.988> 473 70<358.239 442.272> 625 21<370.02 446 562.809 615.985> 756 22<263.805 379.745>
VStem: 55 121<420.575 611.624> 176 52<19.4475 185.842> 477 116<330 436.989>
DStem2: 376 215 370 191 0.959949 -0.280176<-10.2512 54.3645 176.889 228.694>
AnchorPoint: "HalfMark" 327 828.6 basechar 0
AnchorPoint: "DoubleTitlo" 670 827.4 basechar 0
AnchorPoint: "Yerok" 500 827.6 basechar 0
AnchorPoint: "Diacritic" 334 828.6 basechar 0
LayerCount: 3
Fore
SplineSet
381 625 m 1xfd
 375 625 370 628 370 635 c 0
 370 640 373 646 379 646 c 2
 445 646 l 1
 446 650 446 652 446 657 c 0
 446 715 389 756 331 756 c 0
 191 756 176 652 176 553 c 0xfd
 176 506 192 449 205 386 c 1
 253 442 341 543 436 543 c 0
 437 543 438 543 439 543 c 0
 509 543 566 485 579 437 c 0
 590 400 593 366 593 341 c 0
 593 338 593 333 593 330 c 1
 615 330 l 2
 622 330 626 326 626 320 c 0
 626 314 622 309 615 309 c 2
 430 309 l 2
 424 309 420 313 420 319 c 0
 420 325 424 330 430 330 c 2
 477 330 l 1
 477 351 476 373 471 400 c 0
 463 444 431 473 383 473 c 0
 354 473 322 456 298 437 c 0
 275 419 237 384 211 358 c 1
 227 270 228 177 228 105 c 0
 228 74 218 37 208 21 c 1
 226 18 234 17 252 17 c 0
 341 17 419 110 419 176 c 1
 370 191 l 2
 365 193 362 196 362 204 c 0
 362 211 370 216 376 215 c 1
 585 154 l 2
 590 152 593 147 593 142 c 0
 593 135 588 128 579 130 c 2
 540 141 l 1
 515 71 382 -8 251 -8 c 0
 218 -8 190 -5 165 0 c 0
 159 1 157 6 157 11 c 0
 157 18 159 25 161 28 c 0
 172 49 176 72 176 95 c 0xfb
 176 166 127 234 104 294 c 0
 74 373 55 423 55 507 c 0
 55 666 183 778 330 778 c 0
 489 778 545 714 566 646 c 1
 605 646 l 2
 611 646 616 642 616 635 c 0
 616 629 612 625 606 625 c 2
 381 625 l 1xfd
EndSplineSet
Validated: 19457
Layer: 2
SplineSet
381 625 m 2,0,1
 370 625 370 625 370 635 c 0,2,3
 370 646 370 646 379 646 c 2,4,-1
 445 646 l 1,5,6
 446 650 446 650 446 657 c 0,7,8
 446 699 446 699 411 727.5 c 128,-1,9
 376 756 376 756 331 756 c 0,10,11
 291 756 291 756 261.5 744 c 128,-1,12
 232 732 232 732 216 713.5 c 128,-1,13
 200 695 200 695 190.5 666.5 c 128,-1,14
 181 638 181 638 178.5 612.5 c 128,-1,15
 176 587 176 587 176 553 c 0,16,17
 176 536 176 536 179 514.5 c 128,-1,18
 182 493 182 493 185.5 477 c 128,-1,19
 189 461 189 461 195.5 431 c 128,-1,20
 202 401 202 401 205 386 c 1,21,22
 231 416 231 416 250 435.5 c 128,-1,23
 269 455 269 455 301.5 484 c 128,-1,24
 334 513 334 513 368.5 528 c 128,-1,25
 403 543 403 543 436 543 c 2,26,-1
 439 543 l 2,27,28
 488 543 488 543 528 509.5 c 128,-1,29
 568 476 568 476 579 437 c 0,30,31
 593 390 593 390 593 341 c 2,32,-1
 593 330 l 1,33,-1
 615 330 l 2,34,35
 626 330 626 330 626 320 c 0,36,37
 626 309 626 309 615 309 c 2,38,-1
 430 309 l 2,39,40
 420 309 420 309 420 319 c 0,41,42
 420 330 420 330 430 330 c 2,43,-1
 477 330 l 1,44,45
 477 368 477 368 471 400 c 0,46,47
 465 434 465 434 441.5 453.5 c 128,-1,48
 418 473 418 473 383 473 c 0,49,50
 343 473 343 473 298 437 c 0,51,52
 261 408 261 408 211 358 c 1,53,54
 228 264 228 264 228 105 c 0,55,56
 228 53 228 53 208 21 c 1,57,58
 232 17 232 17 252 17 c 0,59,60
 316 17 316 17 367.5 70 c 128,-1,61
 419 123 419 123 419 176 c 1,62,-1
 370 191 l 2,63,64
 362 194 362 194 362 204 c 0,65,66
 362 209 362 209 366.5 212.5 c 128,-1,67
 371 216 371 216 376 215 c 2,68,-1
 585 154 l 2,69,70
 593 151 593 151 593 142 c 0,71,72
 593 127 593 127 579 130 c 2,73,-1
 540 141 l 1,74,75
 520 86 520 86 433 39 c 128,-1,76
 346 -8 346 -8 251 -8 c 0,77,78
 205 -8 205 -8 165 0 c 0,79,80
 157 1 157 1 157 11 c 0,81,82
 157 22 157 22 161 28 c 0,83,84
 176 57 176 57 176 95 c 0,85,86
 176 127 176 127 164 161 c 128,-1,87
 152 195 152 195 131.5 235.5 c 128,-1,88
 111 276 111 276 104 294 c 0,89,90
 85 343 85 343 77 367.5 c 128,-1,91
 69 392 69 392 62 429.5 c 128,-1,92
 55 467 55 467 55 507 c 0,93,94
 55 624 55 624 136 701 c 128,-1,95
 217 778 217 778 330 778 c 0,96,97
 525 778 525 778 566 646 c 1,98,-1
 605 646 l 2,99,100
 616 646 616 646 616 635 c 0,101,102
 616 625 616 625 606 625 c 2,103,-1
 381 625 l 2,0,1
EndSplineSet
Validated: 19457
Colour: ff00
EndChar

StartChar: uni0416
Encoding: 1046 1046 73
Width: 960
GlyphClass: 2
Flags: W
HStem: 0 24<50 93 229 290 360 420 540 600 670 731 867 910> 656 122<138.93 243.199 716.801 821.07> 746 24<360 420 540 600>
VStem: 93 136<24 158> 420 120<24 426 465 746> 731 136<24 158>
CounterMasks: 1 1c
AnchorPoint: "HalfMark" 486 828.6 basechar 0
AnchorPoint: "DoubleTitlo" 960.5 827.4 basechar 0
AnchorPoint: "Yerok" 725 827.6 basechar 0
AnchorPoint: "Diacritic" 486 828.5 basechar 0
LayerCount: 3
Fore
SplineSet
600 0 m 1xdc
 360 0 l 1
 360 24 l 1
 420 24 l 1
 420 426 l 1
 349 404 299 317 268 246 c 0
 234 170 229 78 229 24 c 1
 290 24 l 1
 290 0 l 1
 50 0 l 1
 50 24 l 1
 93 24 l 1
 93 27 93 29 93 32 c 0
 93 107 120 206 181 293 c 0
 237 373 318 432 393 449 c 1
 371 471 349 505 331 540 c 0
 310 579 289 618 271 636 c 0
 257 650 238 656 215 656 c 0
 192 656 171 653 150 642 c 0
 143 638 137 641 138 649 c 0
 138 656 139 662 139 669 c 0
 139 713 128 742 98 759 c 0
 93 762 91 777 99 778 c 0
 107 779 115 779 125 779 c 0
 138 779 154 778 177 778 c 0xdc
 247 778 285 720 309 672 c 0
 327 635 336 601 359 553 c 0
 377 515 396 488 420 465 c 1
 420 746 l 1
 360 746 l 1
 360 770 l 1
 600 770 l 1
 600 746 l 1
 540 746 l 1xbc
 540 465 l 1
 563 488 582 515 601 553 c 0
 624 601 633 635 651 672 c 0
 675 720 713 778 783 778 c 0
 806 778 822 779 835 779 c 0
 845 779 853 779 861 778 c 0
 869 777 867 762 862 759 c 0
 833 743 821 712 821 669 c 0
 821 662 822 656 822 649 c 0
 823 641 817 638 810 642 c 0
 789 653 768 656 745 656 c 0
 722 656 703 650 689 636 c 0
 671 618 650 579 629 540 c 0
 610 505 588 471 566 449 c 1
 641 432 722 373 779 293 c 0
 840 206 867 107 867 32 c 0
 867 29 867 27 867 24 c 1
 910 24 l 1
 910 0 l 1
 670 0 l 1
 670 24 l 1
 731 24 l 1
 731 78 726 170 692 246 c 0
 660 317 610 404 540 426 c 1
 540 24 l 1
 600 24 l 1
 600 0 l 1xdc
EndSplineSet
Validated: 19457
Layer: 2
SplineSet
600 0 m 1,0,-1
 360 0 l 1,1,-1
 360 24 l 1,2,-1
 420 24 l 1,3,-1
 420 426 l 1,4,5
 335 400 335 400 268 246 c 1,6,7
 229 159 229 159 229 24 c 1,8,-1
 290 24 l 1,9,-1
 290 0 l 1,10,-1
 50 0 l 1,11,-1
 50 24 l 1,12,-1
 93 24 l 1,13,14
 93 32 l 2,15,16
 93 167 93 167 181 293 c 0,17,18
 223 353 223 353 280 394.5 c 128,-1,19
 337 436 337 436 393 449 c 1,20,21
 362 480 362 480 331 540 c 1,22,23
 289 618 289 618 271 636 c 0,24,25
 251 656 251 656 215 656 c 0,26,27
 177 656 177 656 150 642 c 0,28,29
 145 639 145 639 141 641 c 128,-1,30
 137 643 137 643 138 649 c 0,31,32
 138 652 138 652 138.5 659 c 128,-1,33
 139 666 139 666 139 669 c 0,34,35
 139 736 139 736 98 759 c 0,36,37
 94 761 94 761 93.5 769 c 128,-1,38
 93 777 93 777 99 778 c 0,39,40
 107 779 107 779 125 779 c 0,41,42
 130 779 130 779 147 778.5 c 128,-1,43
 164 778 164 778 177 778 c 0,44,45
 256 778 256 778 309 672 c 0,46,47
 318 654 318 654 332.5 616 c 128,-1,48
 347 578 347 578 359 553 c 0,49,50
 385 499 385 499 420 465 c 1,51,-1
 420 746 l 1,52,-1
 360 746 l 1,53,-1
 360 770 l 1,54,-1
 600 770 l 1,55,-1
 600 746 l 1,56,-1
 540 746 l 1,57,-1
 540 465 l 1,58,59
 574 499 574 499 601 553 c 0,60,61
 613 578 613 578 627.5 616 c 128,-1,62
 642 654 642 654 651 672 c 0,63,64
 704 778 704 778 783 778 c 0,65,66
 796 778 796 778 813 778.5 c 128,-1,67
 830 779 830 779 835 779 c 0,68,69
 853 779 853 779 861 778 c 0,70,71
 867 777 867 777 866.5 769 c 128,-1,72
 866 761 866 761 862 759 c 0,73,74
 821 736 821 736 821 669 c 0,75,76
 821 666 821 666 821.5 659 c 128,-1,77
 822 652 822 652 822 649 c 0,78,79
 823 643 823 643 819 641 c 128,-1,80
 815 639 815 639 810 642 c 0,81,82
 783 656 783 656 745 656 c 0,83,84
 709 656 709 656 689 636 c 0,85,86
 671 618 671 618 629 540 c 0,87,88
 596 479 596 479 566 449 c 1,89,90
 622 436 622 436 679 394.5 c 128,-1,91
 736 353 736 353 779 293 c 0,92,93
 867 167 867 167 867 32 c 2,94,-1
 867 24 l 1,95,-1
 910 24 l 1,96,-1
 910 0 l 1,97,-1
 670 0 l 1,98,-1
 670 24 l 1,99,-1
 731 24 l 1,100,101
 731 159 731 159 692 246 c 0,102,103
 623 400 623 400 540 426 c 1,104,-1
 540 24 l 1,105,-1
 600 24 l 1,106,-1
 600 0 l 1,0,-1
EndSplineSet
Validated: 19457
Colour: ff00
EndChar

StartChar: uni0417
Encoding: 1047 1047 74
Width: 733
GlyphClass: 2
Flags: W
HStem: -14 150<51.2582 138.273> -8 32<332.309 455.48> 740 38<304.753 429.349> 766 20G<166 170>
VStem: 29 132<7.625 77.8103> 159 17<747.042 785.987> 520 128<489.665 657.603> 553 130<120.588 293.218>
AnchorPoint: "HalfMark" 411 829.6 basechar 0
AnchorPoint: "DoubleTitlo" 731.5 827.4 basechar 0
AnchorPoint: "Yerok" 550 828.6 basechar 0
AnchorPoint: "Diacritic" 412 830 basechar 0
LayerCount: 3
Fore
SplineSet
161 63 m 0x68
 161 18 127 -14 91 -14 c 0
 88 -14 86 -14 83 -14 c 0
 48 -14 29 23 29 57 c 0
 29 103 60 136 104 136 c 0
 106 136 109 136 112 136 c 0x88
 159 136 204 100 254 69 c 0
 286 49 340 24 393 24 c 0
 484 24 553 117 553 206 c 0x49
 553 293 522 368 458 383 c 1
 450 386 444 383 439 381 c 0
 392 362 351 329 318 301 c 0
 314 298 308 298 304 301 c 0
 276 326 234 362 207 391 c 0
 202 396 203 402 208 406 c 0
 235 431 270 458 304 488 c 0
 308 491 313 491 317 488 c 0
 359 459 396 432 443 417 c 1
 501 444 520 500 520 580 c 0
 520 672 442 740 348 740 c 0x62
 261 740 197 656 171 596 c 0
 168 590 156 588 155 596 c 0
 153 605 152 632 152 663 c 0
 152 707 154 760 159 782 c 0
 160 784 164 786 168 786 c 0x16
 172 786 176 784 176 782 c 0
 179 759 191 719 207 705 c 1
 244 736 319 778 406 778 c 0
 530 778 648 703 648 578 c 0
 648 481 589 430 520 401 c 1x26
 603 376 683 315 683 203 c 0
 683 62 577 -8 442 -8 c 0
 360 -8 308 13 260 38 c 0
 224 57 187 73 159 78 c 1x65
 160 74 161 67 161 63 c 0x68
EndSplineSet
Validated: 19457
Layer: 2
SplineSet
161 63 m 0,0,1
 161 30 161 30 140 8 c 128,-1,2
 119 -14 119 -14 91 -14 c 2,3,-1
 83 -14 l 2,4,5
 58 -14 58 -14 43.5 7.5 c 128,-1,6
 29 29 29 29 29 57 c 0,7,8
 29 92 29 92 50 114 c 128,-1,9
 71 136 71 136 104 136 c 2,10,-1
 112 136 l 2,11,12
 125 136 125 136 139 132.5 c 128,-1,13
 153 129 153 129 169 121 c 128,-1,14
 185 113 185 113 195.5 106.5 c 128,-1,15
 206 100 206 100 225.5 87 c 128,-1,16
 245 74 245 74 254 69 c 0,17,18
 326 24 326 24 393 24 c 0,19,20
 459 24 459 24 506 80.5 c 128,-1,21
 553 137 553 137 553 206 c 0,22,23
 553 274 553 274 528.5 323 c 128,-1,24
 504 372 504 372 458 383 c 1,25,26
 451 386 451 386 439 381 c 0,27,28
 388 360 388 360 318 301 c 0,29,30
 311 296 311 296 304 301 c 0,31,32
 226 371 226 371 207 391 c 0,33,34
 199 399 199 399 208 406 c 1,35,36
 223 420 223 420 256 447.5 c 128,-1,37
 289 475 289 475 304 488 c 0,38,39
 310 493 310 493 317 488 c 0,40,41
 400 431 400 431 443 417 c 1,42,43
 520 453 520 453 520 580 c 0,44,45
 520 648 520 648 469.5 694 c 128,-1,46
 419 740 419 740 348 740 c 0,47,48
 289 740 289 740 242 695.5 c 128,-1,49
 195 651 195 651 171 596 c 0,50,51
 169 591 169 591 162.5 590.5 c 128,-1,52
 156 590 156 590 155 596 c 0,53,54
 152 610 152 610 152 663 c 0,55,56
 152 751 152 751 159 782 c 1,57,58
 161 786 161 786 168 786 c 0,59,60
 176 786 176 786 176 782 c 0,61,62
 183 726 183 726 207 705 c 1,63,64
 241 734 241 734 294 756 c 128,-1,65
 347 778 347 778 406 778 c 0,66,67
 504 778 504 778 576 723 c 128,-1,68
 648 668 648 668 648 578 c 0,69,70
 648 455 648 455 520 401 c 1,71,72
 590 380 590 380 636.5 330.5 c 128,-1,73
 683 281 683 281 683 203 c 0,74,75
 683 101 683 101 615.5 46.5 c 128,-1,76
 548 -8 548 -8 442 -8 c 0,77,78
 348 -8 348 -8 260 38 c 0,79,80
 197 71 197 71 159 78 c 1,81,82
 161 70 161 70 161 63 c 0,0,1
EndSplineSet
Validated: 19457
Colour: ff00
EndChar

StartChar: uni0418
Encoding: 1048 1048 75
Width: 670
GlyphClass: 2
Flags: W
HStem: 0 24<55 115 235 295 375 435 555 615> 746 24<55 115 235 295 375 435 555 615>
VStem: 115 120<24 371 398 746> 435 120<24 468 495 746>
DStem2: 235 398 235 371 0.899761 0.436384<0 210.499>
AnchorPoint: "HalfMark" 337 829.6 basechar 0
AnchorPoint: "DoubleTitlo" 670.5 830.4 basechar 0
AnchorPoint: "Yerok" 475 827.6 basechar 0
AnchorPoint: "Diacritic" 336 830 basechar 0
LayerCount: 3
Fore
SplineSet
55 0 m 1
 55 24 l 1
 115 24 l 1
 115 746 l 1
 55 746 l 1
 55 770 l 1
 295 770 l 1
 295 746 l 1
 235 746 l 1
 235 398 l 1
 435 495 l 1
 435 746 l 1
 375 746 l 1
 375 770 l 1
 615 770 l 1
 615 746 l 1
 555 746 l 1
 555 24 l 1
 615 24 l 1
 615 0 l 1
 375 0 l 1
 375 24 l 1
 435 24 l 1
 435 468 l 1
 235 371 l 1
 235 24 l 1
 295 24 l 1
 295 0 l 1
 55 0 l 1
EndSplineSet
Validated: 19457
Layer: 2
SplineSet
55 0 m 1,0,-1
 55 24 l 1,1,-1
 115 24 l 1,2,-1
 115 746 l 1,3,-1
 55 746 l 1,4,-1
 55 770 l 1,5,-1
 295 770 l 1,6,-1
 295 746 l 1,7,-1
 235 746 l 1,8,-1
 235 398 l 1,9,-1
 435 495 l 1,10,-1
 435 746 l 1,11,-1
 375 746 l 1,12,-1
 375 770 l 1,13,-1
 615 770 l 1,14,-1
 615 746 l 1,15,-1
 555 746 l 1,16,-1
 555 24 l 1,17,-1
 615 24 l 1,18,-1
 615 0 l 1,19,-1
 375 0 l 1,20,-1
 375 24 l 1,21,-1
 435 24 l 1,22,-1
 435 468 l 1,23,-1
 235 371 l 1,24,-1
 235 24 l 1,25,-1
 295 24 l 1,26,-1
 295 0 l 1,27,-1
 55 0 l 1,0,-1
EndSplineSet
Validated: 19457
Colour: ff00
EndChar

StartChar: uni0419
Encoding: 1049 1049 76
Width: 670
GlyphClass: 2
Flags: W
HStem: 0 24<55 115 235 295 375 435 555 615> 746 24<55 115 235 295 375 435 555 615> 807 47<295.209 401.218>
VStem: 115 120<24 371 398 746> 435 120<24 468 495 746> 438 28<898.021 915.25>
DStem2: 235 398 235 371 0.899761 0.436384<0 210.499>
AnchorPoint: "HalfMark" 342 828.6 basechar 0
AnchorPoint: "DoubleTitlo" 669.5 984.4 basechar 0
AnchorPoint: "Yerok" 300 925 basechar 0
AnchorPoint: "Diacritic" 344 922 basechar 0
LayerCount: 3
Fore
SplineSet
259 920 m 1xf4
 271 890 312 854 347 854 c 0
 348 854 349 854 350 854 c 0
 387 854 429 893 438 922 c 1
 466 913 l 1
 454 869 400 807 342 807 c 0
 339 807 337 807 335 807 c 0
 291 807 250 858 231 905 c 1
 259 920 l 1xf4
295 0 m 1
 55 0 l 1
 55 24 l 1
 115 24 l 1
 115 746 l 1
 55 746 l 1
 55 770 l 1
 295 770 l 1
 295 746 l 1
 235 746 l 1
 235 398 l 1
 435 495 l 1
 435 746 l 1
 375 746 l 1
 375 770 l 1
 615 770 l 1
 615 746 l 1
 555 746 l 1
 555 24 l 1
 615 24 l 1
 615 0 l 1
 375 0 l 1
 375 24 l 1
 435 24 l 1
 435 468 l 1xf8
 235 371 l 1
 235 24 l 1
 295 24 l 1
 295 0 l 1
EndSplineSet
Validated: 19457
Layer: 2
SplineSet
259 920 m 1,0,1
 269 896 269 896 295.5 875 c 128,-1,2
 322 854 322 854 347 854 c 2,3,-1
 350 854 l 2,4,5
 376 854 376 854 403.5 876.5 c 128,-1,6
 431 899 431 899 438 922 c 1,7,-1
 466 913 l 1,8,9
 456 876 456 876 419.5 841.5 c 128,-1,10
 383 807 383 807 342 807 c 2,11,-1
 335 807 l 2,12,13
 304 807 304 807 275.5 836.5 c 128,-1,14
 247 866 247 866 231 905 c 1,15,-1
 259 920 l 1,0,1
295 0 m 1,16,-1
 55 0 l 1,17,-1
 55 24 l 1,18,-1
 115 24 l 1,19,-1
 115 746 l 1,20,-1
 55 746 l 1,21,-1
 55 770 l 1,22,-1
 295 770 l 1,23,-1
 295 746 l 1,24,-1
 235 746 l 1,25,-1
 235 398 l 1,26,-1
 435 495 l 1,27,-1
 435 746 l 1,28,-1
 375 746 l 1,29,-1
 375 770 l 1,30,-1
 615 770 l 1,31,-1
 615 746 l 1,32,-1
 555 746 l 1,33,-1
 555 24 l 1,34,-1
 615 24 l 1,35,-1
 615 0 l 1,36,-1
 375 0 l 1,37,-1
 375 24 l 1,38,-1
 435 24 l 1,39,-1
 435 468 l 1,40,-1
 235 371 l 1,41,-1
 235 24 l 1,42,-1
 295 24 l 1,43,-1
 295 0 l 1,16,-1
EndSplineSet
Validated: 19457
Ligature2: "Cyrillic Canonical Equivalents" uni0418 uni0306
LCarets2: 1 0 
Colour: ff00
EndChar

StartChar: uni041A
Encoding: 1050 1050 77
Width: 685
GlyphClass: 2
Flags: W
HStem: 0 24<55 115 235 295 398 456.08 582 630> 390 24<235 327.433> 746 24<55 115 235 295 378 437.985 558 609>
VStem: 115 120<24 390 414 746> 446 115<524.683 745.006> 469 117<24.8902 290.582>
AnchorPoint: "HalfMark" 341 829.6 basechar 0
AnchorPoint: "DoubleTitlo" 683.5 830.4 basechar 0
AnchorPoint: "Yerok" 480 830.6 basechar 0
AnchorPoint: "Diacritic" 341 830 basechar 0
LayerCount: 3
Fore
SplineSet
295 0 m 5xf4
 55 0 l 5
 55 24 l 5
 115 24 l 5
 115 746 l 5
 55 746 l 5
 55 770 l 5
 295 770 l 5
 295 746 l 5
 235 746 l 5
 235 414 l 5
 284 414 359 422 391 465 c 4
 435 523 446 590 446 657 c 4
 446 691 441 725 435 746 c 5
 378 746 l 5
 378 770 l 5
 609 770 l 5
 609 746 l 5
 558 746 l 5
 558 722 561 669 561 625 c 4xf8
 561 568 546 512 502 468 c 4
 474 441 439 423 399 411 c 5
 449 402 505 385 540 335 c 4
 580 278 586 207 586 180 c 4
 586 139 582 34 582 24 c 5
 630 24 l 5
 630 0 l 5
 398 0 l 5
 398 24 l 5
 454 24 l 5
 459 50 469 109 469 149 c 4
 469 221 458 295 428 333 c 5
 401 365 375 387 345 399 c 5
 310 394 273 390 235 390 c 5
 235 24 l 5
 295 24 l 5
 295 0 l 5xf4
EndSplineSet
Validated: 19457
Layer: 2
SplineSet
295 0 m 1,0,-1
 55 0 l 1,1,-1
 55 24 l 1,2,-1
 115 24 l 1,3,-1
 115 746 l 1,4,-1
 55 746 l 1,5,-1
 55 770 l 1,6,-1
 295 770 l 1,7,-1
 295 746 l 1,8,-1
 235 746 l 1,9,-1
 235 414 l 1,10,11
 353 414 353 414 391 465 c 0,12,13
 446 538 446 538 446 657 c 0,14,15
 446 708 446 708 435 746 c 1,16,-1
 378 746 l 1,17,-1
 378 770 l 1,18,-1
 609 770 l 1,19,-1
 609 746 l 1,20,-1
 558 746 l 1,21,22
 558 736 558 736 559.5 693 c 128,-1,23
 561 650 561 650 561 625 c 0,24,25
 561 527 561 527 502 468 c 0,26,27
 463 430 463 430 399 411 c 1,28,29
 499 393 499 393 540 335 c 0,30,31
 586 269 586 269 586 180 c 0,32,33
 586 156 586 156 584 90.5 c 128,-1,34
 582 25 582 25 582 24 c 1,35,-1
 630 24 l 1,36,-1
 630 0 l 1,37,-1
 398 0 l 1,38,-1
 398 24 l 1,39,-1
 454 24 l 1,40,41
 469 102 469 102 469 149 c 0,42,43
 469 281 469 281 428 333 c 1,44,45
 386 383 386 383 345 399 c 1,46,47
 282 390 282 390 235 390 c 1,48,-1
 235 24 l 1,49,-1
 295 24 l 1,50,-1
 295 0 l 1,0,-1
EndSplineSet
Validated: 19457
Colour: ff00
EndChar

StartChar: uni041B
Encoding: 1051 1051 78
Width: 665
GlyphClass: 2
Flags: W
HStem: 0 24<40 103 237.491 294 370 430 550 610> 746 24<370 430 550 610>
VStem: 92 133<24.409 174.114> 430 120<24 538 558.606 746>
AnchorPoint: "HalfMark" 368 829.6 basechar 0
AnchorPoint: "DoubleTitlo" 663.5 830.4 basechar 0
AnchorPoint: "Yerok" 500 829.6 basechar 0
AnchorPoint: "Diacritic" 495 830 basechar 0
LayerCount: 3
Fore
SplineSet
247 24 m 1
 294 24 l 1
 294 0 l 1
 40 0 l 1
 40 24 l 1
 103 24 l 1
 101 31 92 57 92 78 c 0
 92 145 123 206 173 268 c 0
 240 350 306 391 354 457 c 0
 390 506 418 566 430 636 c 1
 430 746 l 1
 370 746 l 1
 370 770 l 1
 610 770 l 1
 610 746 l 1
 550 746 l 1
 550 24 l 1
 610 24 l 1
 610 0 l 1
 370 0 l 1
 370 24 l 1
 430 24 l 1
 430 538 l 1
 418 506 402 471 378 437 c 0
 328 366 297 319 260 240 c 0
 233 183 225 134 225 76 c 0
 225 54 236 34 247 24 c 1
EndSplineSet
Validated: 19457
Layer: 2
SplineSet
247 24 m 1,0,-1
 294 24 l 1,1,-1
 294 0 l 1,2,-1
 40 0 l 1,3,-1
 40 24 l 1,4,-1
 103 24 l 1,5,6
 92 63 92 63 92 78 c 0,7,8
 92 168 92 168 173 268 c 0,9,10
 206 308 206 308 268 365.5 c 128,-1,11
 330 423 330 423 354 457 c 0,12,13
 413 537 413 537 430 636 c 1,14,-1
 430 746 l 1,15,-1
 370 746 l 1,16,-1
 370 770 l 1,17,-1
 610 770 l 1,18,-1
 610 746 l 1,19,-1
 550 746 l 1,20,-1
 550 24 l 1,21,-1
 610 24 l 1,22,-1
 610 0 l 1,23,-1
 370 0 l 1,24,-1
 370 24 l 1,25,-1
 430 24 l 1,26,-1
 430 538 l 1,27,28
 408 480 408 480 378 437 c 0,29,30
 301 328 301 328 260 240 c 0,31,32
 225 166 225 166 225 76 c 0,33,34
 225 44 225 44 247 24 c 1,0,-1
EndSplineSet
Validated: 19457
Colour: ff00
EndChar

StartChar: uni041C
Encoding: 1052 1052 79
Width: 912
GlyphClass: 2
Flags: W
HStem: 0 24<40 96 234.088 287 311 371 491 551 617 677 797 857> 746 24<311 371 491 551 617 677 797 857>
VStem: 80 124<47.7368 214.685> 371 120<24 119 182 530 550.929 746> 677 120<24 546 609 746>
DStem2: 491 182 491 119 0.399354 0.916797<0 407.994>
AnchorPoint: "HalfMark" 536 828.6 basechar 0
AnchorPoint: "DoubleTitlo" 912 832.4 basechar 0
AnchorPoint: "Yerok" 700 829.6 basechar 0
AnchorPoint: "Diacritic" 582 830 basechar 0
LayerCount: 3
Fore
SplineSet
551 0 m 5
 311 0 l 5
 311 24 l 5
 371 24 l 5
 371 530 l 5
 351 474 322 421 290 365 c 4
 248 291 204 201 204 128 c 4
 204 80 228 32 249 24 c 5
 287 24 l 5
 287 0 l 5
 40 0 l 5
 40 24 l 5
 96 24 l 5
 88 35 80 67 80 101 c 4
 80 204 123 274 200 365 c 4
 249 422 290 450 328 509 c 4
 355 552 364 593 371 639 c 5
 371 746 l 5
 311 746 l 5
 311 770 l 5
 551 770 l 5
 551 746 l 5
 491 746 l 5
 491 182 l 5
 677 609 l 5
 677 746 l 5
 617 746 l 5
 617 770 l 5
 857 770 l 5
 857 746 l 5
 797 746 l 5
 797 24 l 5
 857 24 l 5
 857 0 l 5
 617 0 l 5
 617 24 l 5
 677 24 l 5
 677 546 l 5
 491 119 l 5
 491 24 l 5
 551 24 l 5
 551 0 l 5
EndSplineSet
Validated: 19457
Layer: 2
SplineSet
551 0 m 1,0,-1
 311 0 l 1,1,-1
 311 24 l 1,2,-1
 371 24 l 1,3,-1
 371 530 l 1,4,5
 349 468 349 468 290 365 c 0,6,7
 204 213 204 213 204 128 c 0,8,9
 204 93 204 93 218.5 61.5 c 128,-1,10
 233 30 233 30 249 24 c 1,11,-1
 287 24 l 1,12,-1
 287 0 l 1,13,-1
 40 0 l 1,14,-1
 40 24 l 1,15,-1
 96 24 l 1,16,17
 80 46 80 46 80 101 c 0,18,19
 80 174 80 174 108.5 232.5 c 128,-1,20
 137 291 137 291 200 365 c 0,21,22
 213 380 213 380 259.5 427.5 c 128,-1,23
 306 475 306 475 328 509 c 0,24,25
 359 558 359 558 371 639 c 1,26,-1
 371 746 l 1,27,-1
 311 746 l 1,28,-1
 311 770 l 1,29,-1
 551 770 l 1,30,-1
 551 746 l 1,31,-1
 491 746 l 1,32,-1
 491 182 l 1,33,-1
 677 609 l 1,34,-1
 677 746 l 1,35,-1
 617 746 l 1,36,-1
 617 770 l 1,37,-1
 857 770 l 1,38,-1
 857 746 l 1,39,-1
 797 746 l 1,40,-1
 797 24 l 1,41,-1
 857 24 l 1,42,-1
 857 0 l 1,43,-1
 617 0 l 1,44,-1
 617 24 l 1,45,-1
 677 24 l 1,46,-1
 677 546 l 1,47,-1
 491 119 l 1,48,-1
 491 24 l 1,49,-1
 551 24 l 1,50,-1
 551 0 l 1,0,-1
EndSplineSet
Validated: 19457
Colour: ff00
EndChar

StartChar: uni041D
Encoding: 1053 1053 80
Width: 669
GlyphClass: 2
Flags: W
HStem: 0 24<55 115 235 295 374 434 554 614> 746 24<55 115 235 295 374 434 554 614>
VStem: 115 120<24 396 421 746> 434 120<24 347 372 746>
DStem2: 235 421 235 396 0.970997 -0.23909<5.97725 204.944>
AnchorPoint: "HalfMark" 339 829.6 basechar 0
AnchorPoint: "DoubleTitlo" 667.5 830.4 basechar 0
AnchorPoint: "Yerok" 475 827.6 basechar 0
AnchorPoint: "Diacritic" 341 830 basechar 0
LayerCount: 3
Fore
SplineSet
55 0 m 1
 55 24 l 1
 115 24 l 1
 115 746 l 1
 55 746 l 1
 55 770 l 1
 295 770 l 1
 295 746 l 1
 235 746 l 1
 235 421 l 1
 434 372 l 1
 434 746 l 1
 374 746 l 1
 374 770 l 1
 614 770 l 1
 614 746 l 1
 554 746 l 1
 554 24 l 1
 614 24 l 1
 614 0 l 1
 374 0 l 1
 374 24 l 1
 434 24 l 1
 434 347 l 1
 235 396 l 1
 235 24 l 1
 295 24 l 1
 295 0 l 1
 55 0 l 1
EndSplineSet
Validated: 19457
Layer: 2
SplineSet
55 0 m 1,0,-1
 55 24 l 1,1,-1
 115 24 l 1,2,-1
 115 746 l 1,3,-1
 55 746 l 1,4,-1
 55 770 l 1,5,-1
 295 770 l 1,6,-1
 295 746 l 1,7,-1
 235 746 l 1,8,-1
 235 421 l 1,9,-1
 434 372 l 1,10,-1
 434 746 l 1,11,-1
 374 746 l 1,12,-1
 374 770 l 1,13,-1
 614 770 l 1,14,-1
 614 746 l 1,15,-1
 554 746 l 1,16,-1
 554 24 l 1,17,-1
 614 24 l 1,18,-1
 614 0 l 1,19,-1
 374 0 l 1,20,-1
 374 24 l 1,21,-1
 434 24 l 1,22,-1
 434 347 l 1,23,-1
 235 396 l 1,24,-1
 235 24 l 1,25,-1
 295 24 l 1,26,-1
 295 0 l 1,27,-1
 55 0 l 1,0,-1
EndSplineSet
Validated: 19457
Colour: ff00
EndChar

StartChar: uni041E
Encoding: 1054 1054 81
Width: 589
Flags: W
HStem: -9 25<246 282.194> 753 25<295.443 355>
VStem: 55 126<314.573 536.163> 222 24<16 75.4459> 355 25<674.249 753> 410 124<234.965 472.522>
AnchorPoint: "HalfMark" 341 829.6 basechar 0
AnchorPoint: "DoubleTitlo" 588.5 830.4 basechar 0
AnchorPoint: "Yerok" 425 829.6 basechar 0
AnchorPoint: "Diacritic" 341 830 basechar 0
LayerCount: 3
Fore
SplineSet
386 66 m 4
 354 40 289 -9 235 -9 c 4
 228 -9 222 -5 222 0 c 6
 222 30 l 6
 222 68 179 142 152 182 c 4
 107 248 55 322 55 432 c 4
 55 561 160 675 213 718 c 4
 253 751 302 778 368 778 c 4
 374 778 380 773 380 768 c 6
 380 727 l 6
 380 664 433 610 477 539 c 4
 515 477 534 437 534 360 c 4
 534 215 460 128 386 66 c 4
410 315 m 4
 410 407 399 457 377 538 c 4
 361 596 355 646 355 695 c 6
 355 753 l 5
 314 753 289 747 254 717 c 4
 206 675 181 538 181 431 c 4
 181 322 197 211 222 153 c 4
 235 123 246 66 246 40 c 6
 246 16 l 5
 263 16 273 23 292 32 c 4
 309 40 315 45 336 63 c 4
 372 94 410 220 410 315 c 4
EndSplineSet
Validated: 19457
Layer: 2
SplineSet
386 66 m 1,0,1
 294 -9 294 -9 235 -9 c 0,2,3
 222 -9 222 -9 222 0 c 2,4,-1
 222 30 l 2,5,6
 222 78 222 78 152 182 c 0,7,8
 120 229 120 229 104.5 254.5 c 128,-1,9
 89 280 89 280 72 330.5 c 128,-1,10
 55 381 55 381 55 432 c 0,11,12
 55 517 55 517 106 595 c 128,-1,13
 157 673 157 673 213 718 c 0,14,15
 286 778 286 778 368 778 c 0,16,17
 380 778 380 778 380 768 c 2,18,-1
 380 727 l 2,19,20
 380 698 380 698 392 672 c 128,-1,21
 404 646 404 646 436 599.5 c 128,-1,22
 468 553 468 553 477 539 c 0,23,24
 508 488 508 488 521 451 c 128,-1,25
 534 414 534 414 534 360 c 0,26,27
 534 190 534 190 386 66 c 1,0,1
410 315 m 0,28,29
 410 416 410 416 377 538 c 0,30,31
 355 618 355 618 355 695 c 2,32,-1
 355 753 l 1,33,34
 322 753 322 753 300.5 746 c 128,-1,35
 279 739 279 739 254 717 c 0,36,37
 220 687 220 687 200.5 603 c 128,-1,38
 181 519 181 519 181 431 c 0,39,40
 181 248 181 248 222 153 c 0,41,42
 231 131 231 131 238.5 95.5 c 128,-1,43
 246 60 246 60 246 40 c 2,44,-1
 246 16 l 1,45,46
 258 16 258 16 292 32 c 0,47,48
 309 40 309 40 336 63 c 128,-1,49
 363 86 363 86 386.5 165 c 128,-1,50
 410 244 410 244 410 315 c 0,28,29
EndSplineSet
Validated: 19457
Colour: ff00
EndChar

StartChar: uni041F
Encoding: 1055 1055 82
Width: 690
GlyphClass: 2
Flags: W
HStem: 0 24<55 115 235 295 395 455 575 635> 746 24<55 115 235 455 575 635>
VStem: 115 120<24 746> 455 120<24 746>
AnchorPoint: "HalfMark" 359 829.6 basechar 0
AnchorPoint: "DoubleTitlo" 689.5 830.4 basechar 0
AnchorPoint: "Yerok" 475 827.6 basechar 0
AnchorPoint: "Diacritic" 341 830 basechar 0
LayerCount: 3
Fore
SplineSet
235 24 m 1
 295 24 l 1
 295 0 l 1
 55 0 l 1
 55 24 l 1
 115 24 l 1
 115 746 l 1
 55 746 l 1
 55 770 l 1
 635 770 l 1
 635 746 l 1
 575 746 l 1
 575 24 l 1
 635 24 l 1
 635 0 l 1
 395 0 l 1
 395 24 l 1
 455 24 l 1
 455 746 l 1
 235 746 l 1
 235 24 l 1
EndSplineSet
Validated: 19457
Layer: 2
SplineSet
235 24 m 1,0,-1
 295 24 l 1,1,-1
 295 0 l 1,2,-1
 55 0 l 1,3,-1
 55 24 l 1,4,-1
 115 24 l 1,5,-1
 115 746 l 1,6,-1
 55 746 l 1,7,-1
 55 770 l 1,8,-1
 635 770 l 1,9,-1
 635 746 l 1,10,-1
 575 746 l 1,11,-1
 575 24 l 1,12,-1
 635 24 l 1,13,-1
 635 0 l 1,14,-1
 395 0 l 1,15,-1
 395 24 l 1,16,-1
 455 24 l 1,17,-1
 455 746 l 1,18,-1
 235 746 l 1,19,-1
 235 24 l 1,0,-1
EndSplineSet
Validated: 19457
Colour: ff00
EndChar

StartChar: uni0420
Encoding: 1056 1056 83
Width: 617
GlyphClass: 2
Flags: W
HStem: 0 24<40 100 220 280> 437 44<366.284 496.5> 748 30<286.908 418.586>
VStem: 100 120<24 334 371 666.25> 478 114<527.62 690.478>
DStem2: 220 371 220 334 0.64497 0.764208<0 157.481>
AnchorPoint: "HalfMark" 355 829.6 basechar 0
AnchorPoint: "DoubleTitlo" 615.5 830.4 basechar 0
AnchorPoint: "Yerok" 475 827.6 basechar 0
AnchorPoint: "Diacritic" 354 830 basechar 0
LayerCount: 3
Fore
SplineSet
388 778 m 4
 497 778 592 719 592 611 c 4
 592 517 543 437 450 437 c 4
 404 437 365 457 339 475 c 5
 220 334 l 5
 220 24 l 5
 280 24 l 5
 280 0 l 5
 40 0 l 5
 40 24 l 5
 100 24 l 5
 100 591 l 6
 100 623 117 664 133 683 c 4
 165 720 257 778 388 778 c 4
220 625 m 6
 220 371 l 5
 330 501 l 6
 333 505 338 505 341 503 c 4
 342 503 344 502 345 502 c 4
 358 492 374 481 396 481 c 4
 447 481 478 558 478 612 c 4
 478 687 441 748 355 748 c 4
 304 748 261 725 243 703 c 4
 225 682 220 652 220 625 c 6
EndSplineSet
Validated: 19457
Layer: 2
SplineSet
388 778 m 0,0,1
 474 778 474 778 533 733.5 c 128,-1,2
 592 689 592 689 592 611 c 0,3,4
 592 537 592 537 554.5 487 c 128,-1,5
 517 437 517 437 450 437 c 0,6,7
 394 437 394 437 339 475 c 1,8,-1
 220 334 l 1,9,-1
 220 24 l 1,10,-1
 280 24 l 1,11,-1
 280 0 l 1,12,-1
 40 0 l 1,13,-1
 40 24 l 1,14,-1
 100 24 l 1,15,-1
 100 591 l 2,16,17
 100 614 100 614 110 641 c 128,-1,18
 120 668 120 668 133 683 c 0,19,20
 163 718 163 718 231.5 748 c 128,-1,21
 300 778 300 778 388 778 c 0,0,1
220 625 m 2,22,-1
 220 371 l 1,23,-1
 330 501 l 2,24,25
 335 507 335 507 341 503 c 0,26,27
 342 503 342 503 343 502.5 c 128,-1,28
 344 502 344 502 345 502 c 0,29,30
 372 481 372 481 396 481 c 0,31,32
 432 481 432 481 455 524 c 128,-1,33
 478 567 478 567 478 612 c 0,34,35
 478 672 478 672 447 710 c 128,-1,36
 416 748 416 748 355 748 c 0,37,38
 319 748 319 748 288.5 734.5 c 128,-1,39
 258 721 258 721 243 703 c 0,40,41
 220 676 220 676 220 625 c 2,22,-1
EndSplineSet
Validated: 19457
Colour: ff00
EndChar

StartChar: uni0421
Encoding: 1057 1057 84
Width: 639
GlyphClass: 2
Flags: W
HStem: -6 25<242 313.439> 311 25<374.012 431 562 593.988> 517 25<366.009 427 550.697 583.991> 756 22<283.278 336.897>
VStem: 55 133<315.907 549.913> 212 31<19 116.777> 427 125<542 615.317> 431 131<200.091 311>
AnchorPoint: "HalfMark" 317 828.6 basechar 0
AnchorPoint: "DoubleTitlo" 640.5 830.4 basechar 0
AnchorPoint: "Yerok" 475 827.6 basechar 0
AnchorPoint: "Diacritic" 315 830 basechar 0
LayerCount: 3
Fore
SplineSet
583 311 m 6xfd
 562 311 l 5xfd
 562 159 450 48 329 9 c 4
 297 -2 269 -6 224 -6 c 4
 213 -6 208 1 208 10 c 4
 208 22 212 33 212 46 c 4
 212 110 177 162 137 212 c 4
 83 279 55 346 55 440 c 4
 55 585 174 747 296 775 c 4
 303 777 312 778 320 778 c 4
 328 778 336 777 343 775 c 4
 436 750 541 649 552 542 c 5
 574 542 l 6
 581 542 584 536 584 530 c 4
 584 523 581 517 574 517 c 6
 376 517 l 6
 369 517 366 523 366 530 c 4
 366 536 369 542 376 542 c 6
 427 542 l 5xfe
 427 629 384 722 325 753 c 4
 321 755 316 756 311 756 c 4
 304 756 298 754 293 752 c 4
 212 713 188 555 188 442 c 4
 188 355 196 285 212 220 c 4
 228 155 243 118 243 51 c 4
 243 43 242 36 242 30 c 4
 242 26 242 23 243 19 c 5
 247 19 251 19 256 19 c 4
 286 19 313 27 330 42 c 4
 388 93 431 173 431 279 c 6
 431 311 l 5
 385 311 l 6
 378 311 374 317 374 324 c 4
 374 330 378 336 385 336 c 6
 583 336 l 6
 590 336 594 330 594 324 c 4
 594 317 590 311 583 311 c 6xfd
EndSplineSet
Validated: 19457
Layer: 2
SplineSet
583 311 m 2,0,-1
 562 311 l 1,1,2
 562 203 562 203 494 121.5 c 128,-1,3
 426 40 426 40 329 9 c 0,4,5
 285 -6 285 -6 224 -6 c 0,6,7
 208 -6 208 -6 208 10 c 0,8,9
 208 16 208 16 210 27.5 c 128,-1,10
 212 39 212 39 212 46 c 0,11,12
 212 118 212 118 137 212 c 0,13,14
 55 314 55 314 55 440 c 0,15,16
 55 548 55 548 129.5 651 c 128,-1,17
 204 754 204 754 296 775 c 0,18,19
 306 778 306 778 320 778 c 0,20,21
 332 778 332 778 343 775 c 0,22,23
 416 755 416 755 480 687 c 128,-1,24
 544 619 544 619 552 542 c 1,25,-1
 574 542 l 2,26,27
 584 542 584 542 584 530 c 0,28,29
 584 517 584 517 574 517 c 2,30,-1
 376 517 l 2,31,32
 366 517 366 517 366 530 c 0,33,34
 366 542 366 542 376 542 c 2,35,-1
 427 542 l 1,36,37
 427 608 427 608 398 669 c 128,-1,38
 369 730 369 730 325 753 c 0,39,40
 319 756 319 756 311 756 c 128,-1,41
 303 756 303 756 293 752 c 0,42,43
 238 725 238 725 213 634.5 c 128,-1,44
 188 544 188 544 188 442 c 0,45,46
 188 318 188 318 212 220 c 0,47,48
 215 206 215 206 223 177 c 128,-1,49
 231 148 231 148 234 134.5 c 128,-1,50
 237 121 237 121 240 98 c 128,-1,51
 243 75 243 75 243 51 c 0,52,53
 243 47 243 47 242.5 40 c 128,-1,54
 242 33 242 33 242 30 c 0,55,56
 242 23 242 23 243 19 c 1,57,-1
 256 19 l 2,58,59
 304 19 304 19 330 42 c 0,60,61
 431 131 431 131 431 279 c 2,62,-1
 431 311 l 1,63,-1
 385 311 l 2,64,65
 374 311 374 311 374 324 c 0,66,67
 374 336 374 336 385 336 c 2,68,-1
 583 336 l 2,69,70
 594 336 594 336 594 324 c 0,71,72
 594 311 594 311 583 311 c 2,0,-1
EndSplineSet
Validated: 19457
Colour: ff00
EndChar

StartChar: uni0422
Encoding: 1058 1058 85
Width: 720
GlyphClass: 2
Flags: W
HStem: 0 24<238 298 418 478> 746 24<200.006 298 418 515.994>
VStem: 114 11<571.547 588.556> 298 120<24 746> 591 11<571.547 588.391>
CounterMasks: 1 38
AnchorPoint: "HalfMark" 369 829.6 basechar 0
AnchorPoint: "DoubleTitlo" 719.5 830.4 basechar 0
AnchorPoint: "Yerok" 525 829.6 basechar 0
AnchorPoint: "Diacritic" 357 830 basechar 0
LayerCount: 3
Fore
SplineSet
208 746 m 1
 180 707 147 632 125 575 c 0
 123 570 114 570 114 575 c 0
 114 647 78 725 30 751 c 0
 27 752 26 756 26 760 c 0
 26 765 28 770 33 770 c 2
 683 770 l 2
 688 770 690 765 690 760 c 0
 690 756 689 752 686 751 c 0
 638 725 602 646 602 575 c 0
 602 570 593 570 591 575 c 0
 569 632 536 707 508 746 c 1
 418 746 l 1
 418 24 l 1
 478 24 l 1
 478 0 l 1
 238 0 l 1
 238 24 l 1
 298 24 l 1
 298 746 l 1
 208 746 l 1
EndSplineSet
Validated: 19457
Layer: 2
SplineSet
208 746 m 1,0,1
 171 695 171 695 125 575 c 0,2,3
 124 571 124 571 119 571 c 128,-1,4
 114 571 114 571 114 575 c 0,5,6
 114 629 114 629 90 680.5 c 128,-1,7
 66 732 66 732 30 751 c 0,8,9
 26 752 26 752 26 760 c 0,10,11
 26 770 26 770 33 770 c 2,12,-1
 683 770 l 2,13,14
 690 770 690 770 690 760 c 0,15,16
 690 752 690 752 686 751 c 0,17,18
 650 732 650 732 626 680.5 c 128,-1,19
 602 629 602 629 602 575 c 0,20,21
 602 571 602 571 597 571 c 128,-1,22
 592 571 592 571 591 575 c 0,23,24
 545 695 545 695 508 746 c 1,25,-1
 418 746 l 1,26,-1
 418 24 l 1,27,-1
 478 24 l 1,28,-1
 478 0 l 1,29,-1
 238 0 l 1,30,-1
 238 24 l 1,31,-1
 298 24 l 1,32,-1
 298 746 l 1,33,-1
 208 746 l 1,0,1
EndSplineSet
Validated: 19457
Colour: ff00
EndChar

StartChar: uniA64A
Encoding: 42570 42570 86
Width: 714
GlyphClass: 2
Flags: W
HStem: -15 23<242.834 429.398> 97 24<207.002 291.755 369.855 461.998> 230 23<243.443 342 373 437.781> 344 24<141.035 203 329 370> 746 24<39.0015 93 219 291.414> 758 20G<635.5 648.5>
VStem: 121 23<75.5318 161.605> 527 23<76.8103 163.084>
DStem2: 219 746 93 746 0.279415 -0.960171<0 358.474> 333 193 357 186 0.237647 0.971352<-18.8272 38.0788 65.8443 155.467 180.205 499.026>
AnchorPoint: "HalfMark" 363 828.6 basechar 0
AnchorPoint: "DoubleTitlo" 714 830.4 basechar 0
AnchorPoint: "Yerok" 550 827.6 basechar 0
AnchorPoint: "Diacritic" 365 829 basechar 0
LayerCount: 3
Fore
SplineSet
550 119 m 0xf7
 550 20 434 -15 335 -15 c 0
 236 -15 121 20 121 121 c 0
 121 218 236 253 334 253 c 2
 347 253 l 1
 370 344 l 1
 150 344 l 2
 144 344 141 351 141 357 c 0
 141 362 144 368 150 368 c 2
 203 368 l 1
 93 746 l 1
 45 746 l 2xfb
 41 746 39 752 39 758 c 0xf7
 39 764 41 770 45 770 c 2
 286 770 l 2
 294 770 294 746 286 746 c 2
 219 746 l 1xfb
 329 368 l 1
 376 368 l 1
 436 613 l 2
 453 683 485 719 505 735 c 0
 530 755 571 777 609 777 c 0
 616 777 629 778 642 778 c 0
 655 778 667 777 673 777 c 0
 679 776 684 770 684 765 c 0
 684 762 683 759 681 758 c 0
 646 733 628 687 628 642 c 0
 628 630 629 618 632 606 c 0
 634 598 621 589 611 600 c 2
 523 697 l 1
 503 693 473 660 460 607 c 2
 373 251 l 1
 461 251 550 205 550 119 c 0xf7
527 119 m 0
 527 195 446 230 367 230 c 1
 357 186 l 2
 355 179 355 173 355 168 c 0
 355 139 375 121 407 121 c 2
 453 121 l 2
 459 121 462 115 462 109 c 0
 462 103 459 97 453 97 c 2
 216 97 l 2
 210 97 207 103 207 109 c 0
 207 115 210 121 216 121 c 2
 234 121 l 2
 287 121 319 137 333 193 c 2
 342 230 l 1
 334 230 l 2
 247 230 144 205 144 119 c 0
 144 32 248 8 335 8 c 0
 422 8 527 32 527 119 c 0
EndSplineSet
Validated: 19457
Layer: 2
SplineSet
550 119 m 0,0,1
 550 51 550 51 485.5 18 c 128,-1,2
 421 -15 421 -15 335 -15 c 0,3,4
 281 -15 281 -15 235 -3 c 128,-1,5
 189 9 189 9 155 41 c 128,-1,6
 121 73 121 73 121 121 c 0,7,8
 121 167 121 167 155 198 c 128,-1,9
 189 229 189 229 235 241 c 128,-1,10
 281 253 281 253 334 253 c 2,11,-1
 347 253 l 1,12,-1
 370 344 l 1,13,-1
 150 344 l 2,14,15
 141 344 141 344 141 357 c 0,16,17
 141 368 141 368 150 368 c 2,18,-1
 203 368 l 1,19,-1
 93 746 l 1,20,-1
 45 746 l 2,21,22
 39 746 39 746 39 758 c 128,-1,23
 39 770 39 770 45 770 c 2,24,-1
 286 770 l 2,25,26
 292 770 292 770 292 758 c 128,-1,27
 292 746 292 746 286 746 c 2,28,-1
 219 746 l 1,29,-1
 329 368 l 1,30,-1
 376 368 l 1,31,-1
 436 613 l 2,32,33
 456 696 456 696 505 735 c 0,34,35
 558 777 558 777 609 777 c 0,36,37
 612 777 612 777 623.5 777.5 c 128,-1,38
 635 778 635 778 642 778 c 128,-1,39
 649 778 649 778 660 777.5 c 128,-1,40
 671 777 671 777 673 777 c 0,41,42
 684 775 684 775 684 765 c 0,43,44
 684 760 684 760 681 758 c 0,45,46
 628 720 628 720 628 642 c 0,47,48
 628 622 628 622 632 606 c 0,49,50
 633 602 633 602 630 598.5 c 128,-1,51
 627 595 627 595 621.5 595 c 128,-1,52
 616 595 616 595 611 600 c 2,53,-1
 523 697 l 1,54,55
 507 694 507 694 488 669 c 128,-1,56
 469 644 469 644 460 607 c 2,57,-1
 373 251 l 1,58,59
 444 251 444 251 497 215.5 c 128,-1,60
 550 180 550 180 550 119 c 0,0,1
527 119 m 0,61,62
 527 172 527 172 479.5 201 c 128,-1,63
 432 230 432 230 367 230 c 1,64,-1
 357 186 l 2,65,66
 355 179 355 179 355 168 c 0,67,68
 355 146 355 146 369 133.5 c 128,-1,69
 383 121 383 121 407 121 c 2,70,-1
 453 121 l 2,71,72
 462 121 462 121 462 109 c 128,-1,73
 462 97 462 97 453 97 c 2,74,-1
 216 97 l 2,75,76
 207 97 207 97 207 109 c 128,-1,77
 207 121 207 121 216 121 c 2,78,-1
 234 121 l 2,79,80
 276 121 276 121 299.5 137 c 128,-1,81
 323 153 323 153 333 193 c 2,82,-1
 342 230 l 1,83,-1
 334 230 l 2,84,85
 286 230 286 230 245.5 221 c 128,-1,86
 205 212 205 212 174.5 185.5 c 128,-1,87
 144 159 144 159 144 119 c 0,88,89
 144 60 144 60 200.5 34 c 128,-1,90
 257 8 257 8 335 8 c 128,-1,91
 413 8 413 8 470 34 c 128,-1,92
 527 60 527 60 527 119 c 0,61,62
EndSplineSet
Validated: 19457
Colour: ff00
EndChar

StartChar: uni0424
Encoding: 1060 1060 87
Width: 842
GlyphClass: 2
Flags: W
HStem: 0 24<301 361 481 541> 124 34<232.854 347.477 493.744 609.146> 746 24<301 361 481 541>
VStem: 55 128<214.417 384.57> 361 120<24 147 166.296 584 596.168 746> 659 128<214.417 384.57>
CounterMasks: 1 1c
AnchorPoint: "HalfMark" 421 829.6 basechar 0
AnchorPoint: "DoubleTitlo" 841.5 830.4 basechar 0
AnchorPoint: "Yerok" 625 828.6 basechar 0
AnchorPoint: "Diacritic" 419 830 basechar 0
LayerCount: 3
Fore
SplineSet
541 0 m 1
 301 0 l 1
 301 24 l 1
 361 24 l 1
 361 147 l 1
 337 135 305 124 274 124 c 0
 149 124 55 180 55 304 c 0
 55 421 165 469 253 529 c 0
 295 558 333 584 361 620 c 1
 361 746 l 1
 301 746 l 1
 301 770 l 1
 541 770 l 1
 541 746 l 1
 481 746 l 1
 481 620 l 1
 508 584 546 558 589 529 c 0
 677 469 787 421 787 304 c 0
 787 180 693 124 568 124 c 0
 537 124 504 135 481 147 c 1
 481 24 l 1
 541 24 l 1
 541 0 l 1
550 502 m 0
 525 530 499 557 481 584 c 1
 481 173 l 1
 503 165 529 158 560 158 c 0
 632 158 659 231 659 300 c 0
 659 389 600 446 550 502 c 0
282 158 m 0
 312 158 339 165 361 173 c 1
 361 584 l 1
 343 557 317 530 292 502 c 0
 242 446 183 389 183 300 c 0
 183 231 210 158 282 158 c 0
EndSplineSet
Validated: 19457
Layer: 2
SplineSet
541 0 m 1,0,-1
 301 0 l 1,1,-1
 301 24 l 1,2,-1
 361 24 l 1,3,-1
 361 147 l 1,4,5
 315 124 315 124 274 124 c 0,6,7
 175 124 175 124 115 169.5 c 128,-1,8
 55 215 55 215 55 304 c 0,9,10
 55 332 55 332 64.5 357.5 c 128,-1,11
 74 383 74 383 86 400.5 c 128,-1,12
 98 418 98 418 121.5 438.5 c 128,-1,13
 145 459 145 459 161.5 470 c 128,-1,14
 178 481 178 481 208.5 500.5 c 128,-1,15
 239 520 239 520 253 529 c 0,16,17
 281 548 281 548 295 558.5 c 128,-1,18
 309 569 309 569 328.5 586 c 128,-1,19
 348 603 348 603 361 620 c 1,20,-1
 361 746 l 1,21,-1
 301 746 l 1,22,-1
 301 770 l 1,23,-1
 541 770 l 1,24,-1
 541 746 l 1,25,-1
 481 746 l 1,26,-1
 481 620 l 1,27,28
 509 583 509 583 589 529 c 0,29,30
 603 520 603 520 633.5 500.5 c 128,-1,31
 664 481 664 481 680.5 470 c 128,-1,32
 697 459 697 459 720.5 438.5 c 128,-1,33
 744 418 744 418 756 400.5 c 128,-1,34
 768 383 768 383 777.5 357.5 c 128,-1,35
 787 332 787 332 787 304 c 0,36,37
 787 215 787 215 727 169.5 c 128,-1,38
 667 124 667 124 568 124 c 0,39,40
 525 124 525 124 481 147 c 1,41,-1
 481 24 l 1,42,-1
 541 24 l 1,43,-1
 541 0 l 1,0,-1
550 502 m 0,44,45
 493 565 493 565 481 584 c 1,46,-1
 481 173 l 1,47,48
 522 158 522 158 560 158 c 0,49,50
 610 158 610 158 634.5 200 c 128,-1,51
 659 242 659 242 659 300 c 0,52,53
 659 316 659 316 655.5 332.5 c 128,-1,54
 652 349 652 349 649.5 360.5 c 128,-1,55
 647 372 647 372 637 389 c 128,-1,56
 627 406 627 406 623.5 413 c 128,-1,57
 620 420 620 420 605.5 438 c 128,-1,58
 591 456 591 456 588.5 459 c 128,-1,59
 586 462 586 462 568 481.5 c 128,-1,60
 550 501 550 501 550 502 c 0,44,45
282 158 m 0,61,62
 320 158 320 158 361 173 c 1,63,-1
 361 584 l 1,64,65
 349 565 349 565 292 502 c 0,66,67
 292 501 292 501 274 481.5 c 128,-1,68
 256 462 256 462 253.5 459 c 128,-1,69
 251 456 251 456 236.5 438 c 128,-1,70
 222 420 222 420 218.5 413 c 128,-1,71
 215 406 215 406 205 389 c 128,-1,72
 195 372 195 372 192.5 360.5 c 128,-1,73
 190 349 190 349 186.5 332.5 c 128,-1,74
 183 316 183 316 183 300 c 0,75,76
 183 242 183 242 207.5 200 c 128,-1,77
 232 158 232 158 282 158 c 0,61,62
EndSplineSet
Validated: 19457
Colour: ff00
EndChar

StartChar: uni0425
Encoding: 1061 1061 88
Width: 708
GlyphClass: 2
Flags: W
HStem: 0 24<64 126 155 235 385 463 596 658> 670 105<525.292 598.49> 746 24<50 112 245 323>
VStem: 155 136<136.23 235.139> 627 13<595.551 607.39>
DStem2: 245 746 112 746 0.437221 -0.899354<0 282.214 313.08 370.761 402.064 744.648> 126 24 155 24 0.458943 0.888466<13.3093 123.541 251.251 359.47 526.866 739.787>
AnchorPoint: "HalfMark" 387 829.6 basechar 0
AnchorPoint: "DoubleTitlo" 707.5 830.4 basechar 0
AnchorPoint: "Yerok" 494 827.6 basechar 0
AnchorPoint: "Diacritic" 388 830 basechar 0
LayerCount: 3
Fore
SplineSet
155 187 m 0xd8
 155 228 190 253 224 253 c 0
 231 253 237 252 243 250 c 1
 299 360 l 1
 112 746 l 1
 50 746 l 1
 50 770 l 1
 323 770 l 1
 323 746 l 1
 245 746 l 1
 368 492 l 1
 438 628 l 2
 462 674 495 727 516 746 c 0xb8
 532 761 561 775 601 775 c 0
 616 775 657 773 657 758 c 0
 657 755 656 752 653 749 c 0
 640 735 627 712 627 676 c 0
 627 657 629 634 640 607 c 0
 644 596 634 591 627 600 c 0
 603 631 570 670 527 670 c 0
 488 670 476 646 461 618 c 2
 381 464 l 1
 596 24 l 1
 658 24 l 1
 658 0 l 1
 385 0 l 1
 385 24 l 1
 463 24 l 1
 313 332 l 1
 265 239 l 1
 282 226 291 205 291 184 c 0
 291 143 257 117 223 117 c 0
 216 117 210 115 204 117 c 1
 155 24 l 1
 235 24 l 1
 235 0 l 1
 64 0 l 1
 64 24 l 1
 126 24 l 1
 181 132 l 1
 165 145 155 166 155 187 c 0xd8
EndSplineSet
Validated: 19457
Layer: 2
SplineSet
155 187 m 0,0,1
 155 216 155 216 176 234.5 c 128,-1,2
 197 253 197 253 224 253 c 0,3,4
 234 253 234 253 243 250 c 1,5,-1
 299 360 l 1,6,-1
 112 746 l 1,7,-1
 50 746 l 1,8,-1
 50 770 l 1,9,-1
 323 770 l 1,10,-1
 323 746 l 1,11,-1
 245 746 l 1,12,-1
 368 492 l 1,13,-1
 438 628 l 2,14,15
 485 718 485 718 516 746 c 0,16,17
 547 775 547 775 601 775 c 0,18,19
 657 775 657 775 657 758 c 0,20,21
 657 753 657 753 653 749 c 0,22,23
 627 721 627 721 627 676 c 0,24,25
 627 639 627 639 640 607 c 0,26,27
 643 599 643 599 637.5 596 c 128,-1,28
 632 593 632 593 627 600 c 0,29,30
 573 670 573 670 527 670 c 0,31,32
 509 670 509 670 495.5 661.5 c 128,-1,33
 482 653 482 653 476.5 645 c 128,-1,34
 471 637 471 637 461 618 c 2,35,-1
 381 464 l 1,36,-1
 596 24 l 1,37,-1
 658 24 l 1,38,-1
 658 0 l 1,39,-1
 385 0 l 1,40,-1
 385 24 l 1,41,-1
 463 24 l 1,42,-1
 313 332 l 1,43,-1
 265 239 l 1,44,45
 291 219 291 219 291 184 c 0,46,47
 291 154 291 154 270.5 135.5 c 128,-1,48
 250 117 250 117 223 117 c 2,49,-1
 204 117 l 1,50,-1
 155 24 l 1,51,-1
 235 24 l 1,52,-1
 235 0 l 1,53,-1
 64 0 l 1,54,-1
 64 24 l 1,55,-1
 126 24 l 1,56,-1
 181 132 l 1,57,58
 155 153 155 153 155 187 c 0,0,1
EndSplineSet
Validated: 19457
Colour: ff00
EndChar

StartChar: uni0426
Encoding: 1062 1062 89
Width: 674
GlyphClass: 2
Flags: W
HStem: -177 21G<115 127> 0 24<55 115 235 429> 746 24<55 115 235 295 369 429 549 609>
VStem: 115 120<24 746> 429 120<24 746> 526 107<-137.104 0>
AnchorPoint: "HalfMark" 354 828.6 basechar 0
AnchorPoint: "DoubleTitlo" 674.5 830.4 basechar 0
AnchorPoint: "Yerok" 475 827.6 basechar 0
AnchorPoint: "Diacritic" 326 829 basechar 0
LayerCount: 3
Fore
SplineSet
633 -120 m 1xf4
 586 -162 447 -236 380 -267 c 1
 346 -241 225 -158 174 -131 c 1
 154 -145 136 -161 118 -177 c 1
 112 -173 107 -165 103 -159 c 1
 128 -131 191 -79 231 -52 c 1
 286 -75 416 -167 461 -199 c 1
 477 -190 508 -173 526 -162 c 1
 526 0 l 1xf4
 55 0 l 1
 55 24 l 1
 115 24 l 1
 115 746 l 1
 55 746 l 1
 55 770 l 1
 295 770 l 1
 295 746 l 1
 235 746 l 1
 235 24 l 1
 429 24 l 1
 429 746 l 1
 369 746 l 1
 369 770 l 1
 609 770 l 1
 609 746 l 1
 549 746 l 1
 549 24 l 1xf8
 633 24 l 1
 633 -120 l 1xf4
EndSplineSet
Validated: 19457
Layer: 2
SplineSet
633 -120 m 1,0,1
 601 -149 601 -149 521 -194 c 128,-1,2
 441 -239 441 -239 380 -267 c 1,3,4
 349 -244 349 -244 279 -196.5 c 128,-1,5
 209 -149 209 -149 174 -131 c 1,6,7
 154 -145 154 -145 118 -177 c 1,8,9
 113 -173 113 -173 103 -159 c 1,10,11
 121 -138 121 -138 160.5 -105.5 c 128,-1,12
 200 -73 200 -73 231 -52 c 1,13,14
 288 -76 288 -76 461 -199 c 1,15,16
 517 -167 517 -167 526 -162 c 1,17,-1
 526 0 l 1,18,-1
 55 0 l 1,19,-1
 55 24 l 1,20,-1
 115 24 l 1,21,-1
 115 746 l 1,22,-1
 55 746 l 1,23,-1
 55 770 l 1,24,-1
 295 770 l 1,25,-1
 295 746 l 1,26,-1
 235 746 l 1,27,-1
 235 24 l 1,28,-1
 429 24 l 1,29,-1
 429 746 l 1,30,-1
 369 746 l 1,31,-1
 369 770 l 1,32,-1
 609 770 l 1,33,-1
 609 746 l 1,34,-1
 549 746 l 1,35,-1
 549 24 l 1,36,-1
 633 24 l 1,37,-1
 633 -120 l 1,0,1
EndSplineSet
Validated: 19457
Colour: ff00
EndChar

StartChar: uni0427
Encoding: 1063 1063 90
Width: 668
GlyphClass: 2
Flags: W
HStem: 0 20<373 433 553 613> 746 24<55 115 235 295 373 433 553 613>
VStem: 115 120<398.474 746> 433 120<20 308.433 325 746>
AnchorPoint: "HalfMark" 338 829.6 basechar 0
AnchorPoint: "DoubleTitlo" 667.5 830.4 basechar 0
AnchorPoint: "Yerok" 475 827.6 basechar 0
AnchorPoint: "Diacritic" 326 830 basechar 0
LayerCount: 3
Fore
SplineSet
235 406 m 5
 297 384 375 353 433 325 c 5
 433 746 l 5
 373 746 l 5
 373 770 l 5
 613 770 l 5
 613 746 l 5
 553 746 l 5
 553 20 l 5
 613 20 l 5
 613 0 l 5
 373 0 l 5
 373 20 l 5
 433 20 l 5
 433 298 l 5
 400 315 360 333 319 346 c 4
 252 367 186 375 124 382 c 4
 117 383 115 388 115 393 c 6
 115 746 l 5
 55 746 l 5
 55 770 l 5
 295 770 l 5
 295 746 l 5
 235 746 l 5
 235 406 l 5
EndSplineSet
Validated: 19457
Layer: 2
SplineSet
235 406 m 1,0,1
 349 366 349 366 433 325 c 1,2,-1
 433 746 l 1,3,-1
 373 746 l 1,4,-1
 373 770 l 1,5,-1
 613 770 l 1,6,-1
 613 746 l 1,7,-1
 553 746 l 1,8,-1
 553 20 l 1,9,-1
 613 20 l 1,10,-1
 613 0 l 1,11,-1
 373 0 l 1,12,-1
 373 20 l 1,13,-1
 433 20 l 1,14,-1
 433 298 l 1,15,16
 373 329 373 329 319 346 c 0,17,18
 249 368 249 368 124 382 c 0,19,20
 115 383 115 383 115 393 c 2,21,-1
 115 746 l 1,22,-1
 55 746 l 1,23,-1
 55 770 l 1,24,-1
 295 770 l 1,25,-1
 295 746 l 1,26,-1
 235 746 l 1,27,-1
 235 406 l 1,0,1
EndSplineSet
Validated: 19457
Colour: ff00
EndChar

StartChar: uni0428
Encoding: 1064 1064 91
Width: 970
GlyphClass: 2
Flags: W
HStem: 0 24<55 115 235 425 545 735 855 915> 746 24<55 115 235 295 365 425 545 605 675 735 855 915>
VStem: 115 120<24 746> 425 120<24 746> 735 120<24 746>
CounterMasks: 1 38
AnchorPoint: "HalfMark" 486 828.6 basechar 0
AnchorPoint: "DoubleTitlo" 969.5 828.4 basechar 0
AnchorPoint: "Yerok" 775 827.6 basechar 0
AnchorPoint: "Diacritic" 484 829 basechar 0
LayerCount: 3
Fore
SplineSet
55 24 m 1
 115 24 l 1
 115 746 l 1
 55 746 l 1
 55 770 l 1
 295 770 l 1
 295 746 l 1
 235 746 l 1
 235 24 l 1
 425 24 l 1
 425 746 l 1
 365 746 l 1
 365 770 l 1
 605 770 l 1
 605 746 l 1
 545 746 l 1
 545 24 l 1
 735 24 l 1
 735 746 l 1
 675 746 l 1
 675 770 l 1
 915 770 l 1
 915 746 l 1
 855 746 l 1
 855 24 l 1
 915 24 l 1
 915 0 l 1
 55 0 l 1
 55 24 l 1
EndSplineSet
Validated: 19457
Layer: 2
SplineSet
55 24 m 1,0,-1
 115 24 l 1,1,-1
 115 746 l 1,2,-1
 55 746 l 1,3,-1
 55 770 l 1,4,-1
 295 770 l 1,5,-1
 295 746 l 1,6,-1
 235 746 l 1,7,-1
 235 24 l 1,8,-1
 425 24 l 1,9,-1
 425 746 l 1,10,-1
 365 746 l 1,11,-1
 365 770 l 1,12,-1
 605 770 l 1,13,-1
 605 746 l 1,14,-1
 545 746 l 1,15,-1
 545 24 l 1,16,-1
 735 24 l 1,17,-1
 735 746 l 1,18,-1
 675 746 l 1,19,-1
 675 770 l 1,20,-1
 915 770 l 1,21,-1
 915 746 l 1,22,-1
 855 746 l 1,23,-1
 855 24 l 1,24,-1
 915 24 l 1,25,-1
 915 0 l 1,26,-1
 55 0 l 1,27,-1
 55 24 l 1,0,-1
EndSplineSet
Validated: 19457
Colour: ff00
EndChar

StartChar: uni0429
Encoding: 1065 1065 92
Width: 970
GlyphClass: 2
Flags: W
HStem: 0 24<55 115 235 425 545 735 855 915> 746 24<55 115 235 295 365 425 545 605 675 735 855 915>
VStem: 115 120<24 746> 425 120<-146.762 0 24 746> 735 120<24 746>
CounterMasks: 1 38
AnchorPoint: "HalfMark" 486 828.6 basechar 0
AnchorPoint: "DoubleTitlo" 968.5 831.4 basechar 0
AnchorPoint: "Yerok" 775 827.6 basechar 0
AnchorPoint: "Diacritic" 478 830 basechar 0
LayerCount: 3
Fore
SplineSet
485 -330 m 0
 475 -330 468 -324 465 -315 c 0
 454 -277 399 -230 350 -220 c 0
 341 -218 336 -210 336 -202 c 0
 336 -194 341 -186 350 -184 c 0
 399 -170 425 -125 425 -77 c 2
 425 0 l 1
 55 0 l 1
 55 24 l 1
 115 24 l 1
 115 746 l 1
 55 746 l 1
 55 770 l 1
 295 770 l 1
 295 746 l 1
 235 746 l 1
 235 24 l 1
 425 24 l 1
 425 746 l 1
 365 746 l 1
 365 770 l 1
 605 770 l 1
 605 746 l 1
 545 746 l 1
 545 24 l 1
 735 24 l 1
 735 746 l 1
 675 746 l 1
 675 770 l 1
 915 770 l 1
 915 746 l 1
 855 746 l 1
 855 24 l 1
 915 24 l 1
 915 0 l 1
 545 0 l 1
 545 -77 l 2
 545 -125 571 -170 620 -184 c 0
 629 -186 634 -194 634 -202 c 0
 634 -210 629 -218 620 -220 c 0
 571 -230 516 -277 505 -315 c 0
 502 -324 495 -330 485 -330 c 0
EndSplineSet
Validated: 19457
Layer: 2
SplineSet
485 -330 m 128,-1,1
 470 -330 470 -330 465 -315 c 0,2,3
 457 -286 457 -286 421.5 -256.5 c 128,-1,4
 386 -227 386 -227 350 -220 c 0,5,6
 336 -217 336 -217 336 -202 c 128,-1,7
 336 -187 336 -187 350 -184 c 0,8,9
 386 -174 386 -174 405.5 -144 c 128,-1,10
 425 -114 425 -114 425 -77 c 2,11,-1
 425 0 l 1,12,-1
 55 0 l 1,13,-1
 55 24 l 1,14,-1
 115 24 l 1,15,-1
 115 746 l 1,16,-1
 55 746 l 1,17,-1
 55 770 l 1,18,-1
 295 770 l 1,19,-1
 295 746 l 1,20,-1
 235 746 l 1,21,-1
 235 24 l 1,22,-1
 425 24 l 1,23,-1
 425 746 l 1,24,-1
 365 746 l 1,25,-1
 365 770 l 1,26,-1
 605 770 l 1,27,-1
 605 746 l 1,28,-1
 545 746 l 1,29,-1
 545 24 l 1,30,-1
 735 24 l 1,31,-1
 735 746 l 1,32,-1
 675 746 l 1,33,-1
 675 770 l 1,34,-1
 915 770 l 1,35,-1
 915 746 l 1,36,-1
 855 746 l 1,37,-1
 855 24 l 1,38,-1
 915 24 l 1,39,-1
 915 0 l 1,40,-1
 545 0 l 1,41,-1
 545 -77 l 2,42,43
 545 -114 545 -114 564.5 -144 c 128,-1,44
 584 -174 584 -174 620 -184 c 0,45,46
 634 -187 634 -187 634 -202 c 128,-1,47
 634 -217 634 -217 620 -220 c 0,48,49
 584 -227 584 -227 548.5 -256.5 c 128,-1,50
 513 -286 513 -286 505 -315 c 0,51,0
 500 -330 500 -330 485 -330 c 128,-1,1
EndSplineSet
Validated: 19457
Colour: ff00
EndChar

StartChar: uni042A
Encoding: 1066 1066 93
Width: 682
GlyphClass: 2
Flags: W
HStem: 0 24<50 111 237 448 571 632> 368 24<489 549> 746 24<255.787 373 499 560>
DStem2: 111 24 237 24 0.341116 0.940021<42.9806 408.987 434.277 768.068> 489 368 366 368 0.231875 -0.972745<0 325.118>
AnchorPoint: "HalfMark" 432 829.6 basechar 0
AnchorPoint: "DoubleTitlo" 681.5 830.4 basechar 0
AnchorPoint: "Yerok" 490 827.6 basechar 0
AnchorPoint: "Diacritic" 366 830 basechar 0
LayerCount: 3
Fore
SplineSet
88 770 m 2
 560 770 l 1
 560 746 l 1
 499 746 l 1
 370 392 l 1
 549 392 l 1
 549 368 l 1
 489 368 l 1
 571 24 l 1
 632 24 l 1
 632 0 l 1
 50 0 l 1
 50 24 l 1
 111 24 l 1
 373 746 l 1
 263 746 l 1
 242 714 168 617 151 595 c 0
 147 589 130 593 130 600 c 0
 130 604 130 608 130 612 c 0
 130 663 112 724 81 746 c 0
 77 749 75 754 75 759 c 0
 75 765 78 770 88 770 c 2
366 368 m 1
 362 368 l 1
 237 24 l 1
 448 24 l 1
 366 368 l 1
EndSplineSet
Validated: 19457
Layer: 2
SplineSet
88 770 m 2,0,-1
 560 770 l 1,1,-1
 560 746 l 1,2,-1
 499 746 l 1,3,-1
 370 392 l 1,4,-1
 549 392 l 1,5,-1
 549 368 l 1,6,-1
 489 368 l 1,7,-1
 571 24 l 1,8,-1
 632 24 l 1,9,-1
 632 0 l 1,10,-1
 50 0 l 1,11,-1
 50 24 l 1,12,-1
 111 24 l 1,13,-1
 373 746 l 1,14,-1
 263 746 l 1,15,16
 237 706 237 706 151 595 c 0,17,18
 148 590 148 590 139 592.5 c 128,-1,19
 130 595 130 595 130 600 c 2,20,-1
 130 612 l 2,21,22
 130 652 130 652 116.5 691 c 128,-1,23
 103 730 103 730 81 746 c 0,24,25
 75 751 75 751 75 759 c 0,26,27
 75 770 75 770 88 770 c 2,0,-1
366 368 m 1,28,-1
 362 368 l 1,29,-1
 237 24 l 1,30,-1
 448 24 l 1,31,-1
 366 368 l 1,28,-1
EndSplineSet
Validated: 19457
Colour: ff00
EndChar

StartChar: uni042B
Encoding: 1067 1067 94
Width: 870
GlyphClass: 2
Flags: W
HStem: 0 24<55 115 235 383 503 543 575 635 755 815> 746 24<55 115 235 295 575 635 755 815>
VStem: 115 120<24 421 436.516 746> 383 120<24 351.447> 635 120<24 746>
AnchorPoint: "HalfMark" 486 829.6 basechar 0
AnchorPoint: "DoubleTitlo" 870.5 831.4 basechar 0
AnchorPoint: "Yerok" 675 827.6 basechar 0
AnchorPoint: "Diacritic" 439 830 basechar 0
LayerCount: 3
Fore
SplineSet
55 770 m 1
 295 770 l 1
 295 746 l 1
 235 746 l 1
 235 452 l 1
 270 425 329 394 371 378 c 0
 397 368 458 359 494 359 c 0
 499 359 503 354 503 349 c 2
 503 24 l 1
 543 24 l 1
 543 0 l 1
 55 0 l 1
 55 24 l 1
 115 24 l 1
 115 746 l 1
 55 746 l 1
 55 770 l 1
815 0 m 1
 575 0 l 1
 575 24 l 1
 635 24 l 1
 635 746 l 1
 575 746 l 1
 575 770 l 1
 815 770 l 1
 815 746 l 1
 755 746 l 1
 755 24 l 1
 815 24 l 1
 815 0 l 1
383 340 m 1
 347 360 273 394 235 421 c 1
 235 24 l 1
 383 24 l 1
 383 340 l 1
EndSplineSet
Validated: 19457
Layer: 2
SplineSet
55 770 m 1,0,-1
 295 770 l 1,1,-1
 295 746 l 1,2,-1
 235 746 l 1,3,-1
 235 452 l 1,4,5
 292 408 292 408 371 378 c 0,6,7
 420 359 420 359 494 359 c 0,8,9
 503 359 503 359 503 349 c 2,10,-1
 503 24 l 1,11,-1
 543 24 l 1,12,-1
 543 0 l 1,13,-1
 55 0 l 1,14,-1
 55 24 l 1,15,-1
 115 24 l 1,16,-1
 115 746 l 1,17,-1
 55 746 l 1,18,-1
 55 770 l 1,0,-1
815 0 m 1,19,-1
 575 0 l 1,20,-1
 575 24 l 1,21,-1
 635 24 l 1,22,-1
 635 746 l 1,23,-1
 575 746 l 1,24,-1
 575 770 l 1,25,-1
 815 770 l 1,26,-1
 815 746 l 1,27,-1
 755 746 l 1,28,-1
 755 24 l 1,29,-1
 815 24 l 1,30,-1
 815 0 l 1,19,-1
383 340 m 1,31,32
 372 346 372 346 340 362.5 c 128,-1,33
 308 379 308 379 280 394 c 128,-1,34
 252 409 252 409 235 421 c 1,35,-1
 235 24 l 1,36,-1
 383 24 l 1,37,-1
 383 340 l 1,31,32
EndSplineSet
Validated: 19457
Colour: ff00
EndChar

StartChar: uni042C
Encoding: 1068 1068 95
Width: 598
GlyphClass: 2
Flags: W
HStem: 0 24<55 115 235 383 503 543> 746 24<55 115 235 295>
VStem: 115 120<24 421 436.516 746> 383 120<24 351.447>
AnchorPoint: "HalfMark" 361 830.6 basechar 0
AnchorPoint: "DoubleTitlo" 598.5 830.4 basechar 0
AnchorPoint: "Yerok" 400 829.6 basechar 0
AnchorPoint: "Diacritic" 322 830 basechar 0
LayerCount: 3
Fore
SplineSet
55 770 m 1
 295 770 l 1
 295 746 l 1
 235 746 l 1
 235 452 l 1
 270 425 329 394 371 378 c 0
 397 368 458 359 494 359 c 0
 499 359 503 354 503 349 c 2
 503 24 l 1
 543 24 l 1
 543 0 l 1
 55 0 l 1
 55 24 l 1
 115 24 l 1
 115 746 l 1
 55 746 l 1
 55 770 l 1
383 340 m 1
 347 360 273 394 235 421 c 1
 235 24 l 1
 383 24 l 1
 383 340 l 1
EndSplineSet
Validated: 19457
Layer: 2
SplineSet
55 770 m 1,0,-1
 295 770 l 1,1,-1
 295 746 l 1,2,-1
 235 746 l 1,3,-1
 235 452 l 1,4,5
 292 408 292 408 371 378 c 0,6,7
 420 359 420 359 494 359 c 0,8,9
 503 359 503 359 503 349 c 2,10,-1
 503 24 l 1,11,-1
 543 24 l 1,12,-1
 543 0 l 1,13,-1
 55 0 l 1,14,-1
 55 24 l 1,15,-1
 115 24 l 1,16,-1
 115 746 l 1,17,-1
 55 746 l 1,18,-1
 55 770 l 1,0,-1
383 340 m 1,19,20
 372 346 372 346 340 362.5 c 128,-1,21
 308 379 308 379 280 394 c 128,-1,22
 252 409 252 409 235 421 c 1,23,-1
 235 24 l 1,24,-1
 383 24 l 1,25,-1
 383 340 l 1,19,20
EndSplineSet
Validated: 19457
Colour: ff00
EndChar

StartChar: uni042D
Encoding: 1069 1069 96
Width: 625
GlyphClass: 2
Flags: W
HStem: -1 21G<383 436.5> 666 69<260.461 372.861>
VStem: 481 110<298.383 500.208>
DStem2: 238 488 340 388 0.830658 -0.556783<108.866 286.225>
AnchorPoint: "HalfMark" 380 828.6 basechar 0
AnchorPoint: "DoubleTitlo" 623.5 830.4 basechar 0
AnchorPoint: "Yerok" 450 827.6 basechar 0
AnchorPoint: "Diacritic" 324 829 basechar 0
LayerCount: 3
Fore
SplineSet
476 329 m 1
 480 348 481 368 481 390 c 0
 481 497 465 566 417 630 c 1
 393 647 371 666 334 666 c 0
 290 666 252 651 243 616 c 1
 255 614 253 594 242 594 c 0
 233 594 217 600 209 602 c 0
 171 613 122 623 83 630 c 1
 75 633 81 651 88 651 c 2
 97 650 l 1
 144 697 191 735 286 735 c 0
 318 735 348 727 377 711 c 0
 450 668 521 600 557 528 c 0
 580 483 591 437 591 390 c 0
 591 304 565 224 536 161 c 0
 507 98 463 32 410 -1 c 1
 356 -1 309 15 270 34 c 0
 229 53 191 80 164 110 c 0
 163 111 163 112 163 113 c 0
 163 121 173 132 181 132 c 0
 183 132 185 131 186 129 c 2
 205 113 l 1
 221 98 240 83 259 70 c 0
 269 63 279 58 289 55 c 1
 302 58 313 63 322 69 c 2
 350 86 l 1
 401 146 449 216 470 301 c 1
 427 330 383 359 340 388 c 0
 329 396 320 402 313 405 c 1
 292 394 283 390 269 371 c 1
 246 343 232 316 197 296 c 1
 188 295 179 295 171 295 c 0
 136 295 104 300 68 300 c 0
 65 300 62 300 59 300 c 0
 56 300 55 302 55 304 c 0
 55 308 58 313 59 314 c 2
 91 347 l 2
 127 385 169 433 192 483 c 0
 196 491 205 494 215 494 c 0
 223 494 232 492 238 488 c 0
 318 435 397 382 476 329 c 1
EndSplineSet
Validated: 19457
Layer: 2
SplineSet
476 329 m 1,0,1
 481 353 481 353 481 390 c 0,2,3
 481 472 481 472 466.5 527.5 c 128,-1,4
 452 583 452 583 417 630 c 0,5,6
 416 631 416 631 407.5 637 c 128,-1,7
 399 643 399 643 396.5 644.5 c 128,-1,8
 394 646 394 646 386.5 651 c 128,-1,9
 379 656 379 656 374.5 657.5 c 128,-1,10
 370 659 370 659 363 661.5 c 128,-1,11
 356 664 356 664 349 665 c 128,-1,12
 342 666 342 666 334 666 c 0,13,14
 256 666 256 666 243 616 c 1,15,16
 252 614 252 614 251 604 c 128,-1,17
 250 594 250 594 242 594 c 0,18,19
 241 594 241 594 209 602 c 1,20,21
 160 616 160 616 83 630 c 0,22,23
 77 632 77 632 80 641.5 c 128,-1,24
 83 651 83 651 88 651 c 2,25,-1
 97 650 l 1,26,27
 139 692 139 692 180 713.5 c 128,-1,28
 221 735 221 735 286 735 c 0,29,30
 334 735 334 735 377 711 c 0,31,32
 434 678 434 678 482.5 629 c 128,-1,33
 531 580 531 580 557 528 c 0,34,35
 591 461 591 461 591 390 c 0,36,37
 591 280 591 280 536 161 c 0,38,39
 482 44 482 44 410 -1 c 1,40,41
 342 -1 342 -1 270 34 c 1,42,43
 205 64 205 64 164 110 c 0,44,45
 163 111 163 111 163 113 c 0,46,47
 163 119 163 119 169 125.5 c 128,-1,48
 175 132 175 132 181 132 c 0,49,50
 184 132 184 132 186 129 c 1,51,-1
 205 113 l 1,52,53
 229 91 229 91 259 70 c 0,54,55
 274 60 274 60 289 55 c 1,56,57
 307 59 307 59 322 69 c 2,58,-1
 350 86 l 1,59,60
 444 197 444 197 470 301 c 1,61,62
 448 315 448 315 405 344 c 128,-1,63
 362 373 362 373 340 388 c 0,64,65
 322 401 322 401 313 405 c 1,66,67
 282 389 282 389 269 371 c 0,68,69
 264 364 264 364 253.5 350.5 c 128,-1,70
 243 337 243 337 237 330 c 128,-1,71
 231 323 231 323 220 313 c 128,-1,72
 209 303 209 303 197 296 c 1,73,74
 188 295 188 295 171 295 c 128,-1,75
 154 295 154 295 120 297.5 c 128,-1,76
 86 300 86 300 68 300 c 2,77,-1
 59 300 l 2,78,79
 55 300 55 300 55 304 c 0,80,81
 55 310 55 310 59 314 c 2,82,-1
 91 347 l 1,83,84
 166 426 166 426 192 483 c 0,85,86
 198 494 198 494 215 494 c 0,87,88
 229 494 229 494 238 488 c 0,89,90
 318 435 318 435 476 329 c 1,0,1
EndSplineSet
Validated: 19457
Colour: ff00ff
EndChar

StartChar: uni042E
Encoding: 1070 1070 97
Width: 853
GlyphClass: 2
Flags: W
HStem: -7 25<507 584.107> 0 24<55 115 235 295> 746 24<55 115 235 295> 753 25<602.423 654>
VStem: 115 120<24 398 424 746> 346 128<317.343 437 462 558.892> 486 35<18.9219 132.525> 642 28<632.521 751.815> 694 114<191 405.662>
DStem2: 235 424 235 398 0.94346 0.331486<0 109.033>
AnchorPoint: "HalfMark" 474 828.6 basechar 0
AnchorPoint: "DoubleTitlo" 853 828.4 basechar 0
AnchorPoint: "Yerok" 675 827.6 basechar 0
AnchorPoint: "Diacritic" 477 830 basechar 0
LayerCount: 3
Fore
SplineSet
346 462 m 1x6f80
 346 625 533 778 669 778 c 0
 677 778 682 770 680 762 c 0
 676 743 670 711 670 677 c 0
 670 675 670 672 670 670 c 0
 670 634 723 581 742 552 c 0
 781 492 808 444 808 357 c 0
 808 240 763 135 694 67 c 0
 645 19 585 -7 493 -7 c 0x9f80
 484 -7 478 2 479 11 c 0
 482 31 486 48 486 75 c 0
 486 123 452 155 423 199 c 0
 378 267 346 338 346 437 c 1
 235 398 l 1
 235 24 l 1
 295 24 l 1
 295 0 l 1
 55 0 l 1
 55 24 l 1
 115 24 l 1
 115 746 l 1
 55 746 l 1
 55 770 l 1
 295 770 l 1
 295 746 l 1
 235 746 l 1
 235 424 l 1
 346 462 l 1x6f80
694 208 m 0
 694 286 686 342 670 416 c 0
 654 492 642 529 642 602 c 0
 642 614 642 626 642 638 c 0
 642 685 648 728 654 753 c 1
 550 753 496 668 486 622 c 0
 475 571 474 551 474 523 c 0
 474 516 474 507 474 497 c 0
 474 435 485 352 497 311 c 0
 511 263 521 194 521 129 c 0
 521 88 517 49 507 18 c 1
 583 18 647 44 679 120 c 0
 692 152 694 174 694 208 c 0
EndSplineSet
Validated: 19457
Layer: 2
SplineSet
346 462 m 1,0,1
 346 540 346 540 398.5 615 c 128,-1,2
 451 690 451 690 526 734 c 128,-1,3
 601 778 601 778 669 778 c 0,4,5
 675 778 675 778 678.5 773 c 128,-1,6
 682 768 682 768 680 762 c 0,7,8
 670 714 670 714 670 677 c 2,9,-1
 670 670 l 2,10,11
 670 654 670 654 683 632.5 c 128,-1,12
 696 611 696 611 716.5 585 c 128,-1,13
 737 559 737 559 742 552 c 0,14,15
 776 499 776 499 792 458 c 128,-1,16
 808 417 808 417 808 357 c 0,17,18
 808 271 808 271 777.5 195 c 128,-1,19
 747 119 747 119 694 67 c 0,20,21
 618 -7 618 -7 493 -7 c 0,22,23
 486 -7 486 -7 482 -1.5 c 128,-1,24
 478 4 478 4 479 11 c 0,25,26
 486 58 486 58 486 75 c 128,-1,27
 486 92 486 92 479.5 109.5 c 128,-1,28
 473 127 473 127 466 137.5 c 128,-1,29
 459 148 459 148 444.5 168.5 c 128,-1,30
 430 189 430 189 423 199 c 0,31,32
 346 315 346 315 346 437 c 1,33,-1
 235 398 l 1,34,-1
 235 24 l 1,35,-1
 295 24 l 1,36,-1
 295 0 l 1,37,-1
 55 0 l 1,38,-1
 55 24 l 1,39,-1
 115 24 l 1,40,-1
 115 746 l 1,41,-1
 55 746 l 1,42,-1
 55 770 l 1,43,-1
 295 770 l 1,44,-1
 295 746 l 1,45,-1
 235 746 l 1,46,-1
 235 424 l 1,47,-1
 346 462 l 1,0,1
694 208 m 0,48,49
 694 305 694 305 670 416 c 0,50,51
 667 430 667 430 661 456.5 c 128,-1,52
 655 483 655 483 653 494.5 c 128,-1,53
 651 506 651 506 647.5 525.5 c 128,-1,54
 644 545 644 545 643 563 c 128,-1,55
 642 581 642 581 642 602 c 2,56,-1
 642 638 l 2,57,58
 642 703 642 703 654 753 c 1,59,60
 584 753 584 753 540 710 c 128,-1,61
 496 667 496 667 486 622 c 0,62,63
 474 566 474 566 474 523 c 2,64,-1
 474 497 l 2,65,66
 474 390 474 390 497 311 c 0,67,68
 521 229 521 229 521 129 c 0,69,70
 521 61 521 61 507 18 c 1,71,72
 636 18 636 18 679 120 c 0,73,74
 694 157 694 157 694 208 c 0,48,49
EndSplineSet
Validated: 19457
Colour: ff00
EndChar

StartChar: uni042F
Encoding: 1071 1071 98
Width: 604
GlyphClass: 2
Flags: W
HStem: -0 24<6 54 182 238 331 391 511 571> 390 30<251.887 391> 736 34<240.21 391 511 571>
VStem: 49 108<481.104 654.362> 54 128<24 309.716> 391 120<24 390 420 736>
LayerCount: 3
Fore
SplineSet
254 726 m 0xf4
 244 722 227 714 210 700 c 0
 172 666 157 619 157 563 c 2
 157 550 l 2
 157 495 197 442 244 427 c 0
 254 424 274 420 284 420 c 0
 293 420 296 420 305 420 c 2
 391 420 l 1
 391 736 l 1
 335 736 l 2
 297 736 279 735 254 726 c 0xf4
54 24 m 1xec
 54 220 l 2xec
 54 235 56 265 58 273 c 0
 79 332 122 378 186 398 c 1
 174 402 l 1
 107 422 49 471 49 557 c 0xf4
 49 639 83 686 129 723 c 0
 171 756 228 770 293 770 c 2
 571 770 l 1
 571 736 l 1
 511 736 l 1
 511 24 l 1
 571 24 l 1
 571 -0 l 1
 331 -0 l 1
 331 24 l 1
 391 24 l 1
 391 390 l 1
 308 390 l 2
 235 390 182 326 182 259 c 0
 182 181 182 102 182 24 c 1
 238 24 l 1
 238 -0 l 1
 6 -0 l 1
 6 24 l 1
 54 24 l 1xec
EndSplineSet
Validated: 1
Layer: 2
SplineSet
254 726 m 1,0,1
 230 716 230 716 210 700 c 1,2,3
 157 653 157 653 157 563 c 2,4,-1
 157 550 l 2,5,6
 157 509 157 509 182.5 473.5 c 128,-1,7
 208 438 208 438 244 427 c 0,8,9
 267 420 267 420 284 420 c 2,10,-1
 305 420 l 1,11,-1
 391 420 l 1,12,-1
 391 736 l 1,13,-1
 335 736 l 2,14,15
 282 736 282 736 254 726 c 1,0,1
54 24 m 1,16,-1
 54 220 l 2,17,18
 54 257 54 257 58 273 c 1,19,20
 92 369 92 369 186 398 c 1,21,-1
 174 402 l 1,22,23
 119 418 119 418 84 457 c 128,-1,24
 49 496 49 496 49 557 c 0,25,26
 49 659 49 659 129 723 c 0,27,28
 189 770 189 770 293 770 c 2,29,-1
 571 770 l 1,30,-1
 571 736 l 1,31,-1
 511 736 l 1,32,-1
 511 24 l 1,33,-1
 571 24 l 1,34,-1
 571 -0 l 1,35,-1
 331 -0 l 1,36,-1
 331 24 l 1,37,-1
 391 24 l 1,38,-1
 391 390 l 1,39,-1
 308 390 l 2,40,41
 255 390 255 390 218.5 350.5 c 128,-1,42
 182 311 182 311 182 259 c 2,43,-1
 182 24 l 1,44,-1
 238 24 l 1,45,-1
 238 -0 l 1,46,-1
 6 -0 l 1,47,-1
 6 24 l 1,48,-1
 54 24 l 1,16,-1
EndSplineSet
Validated: 19457
Colour: ff00ff
EndChar

StartChar: uni0430
Encoding: 1072 1072 99
Width: 396
GlyphClass: 2
Flags: W
HStem: -3 71<97.0686 136.29> 420 20G<188 220.5>
VStem: 43 54<68.2784 104.472> 188 109<370.125 436.764>
AnchorPoint: "below" 207 -200 basechar 0
AnchorPoint: "right" 368 536.5 basechar 0
AnchorPoint: "left" 66.7778 535.8 basechar 0
AnchorPoint: "HalfMark" 224.5 539.7 basechar 0
AnchorPoint: "DoubleTitlo" 396.5 536 basechar 0
AnchorPoint: "Yerok" 225 539 basechar 0
AnchorPoint: "Numeral" 190 201 basechar 0
AnchorPoint: "Diacritic" 210 539 basechar 0
LayerCount: 3
Fore
SplineSet
297 434 m 1
 297 292 332 105 356 -3 c 1
 351 -3 345 -3 340 -3 c 0
 310 -3 273 -1 252 3 c 1
 244 35 236 76 229 123 c 1
 213 110 194 92 178 72 c 0
 156 44 148 26 137 3 c 1
 122 0 97 -3 74 -3 c 0
 63 -3 53 -2 44 0 c 1
 43 6 43 11 43 17 c 0
 43 34 46 50 53 72 c 0
 72 138 106 184 144 252 c 0
 166 291 180 328 192 369 c 1
 189 393 188 417 188 440 c 1
 194 440 199 440 205 440 c 0
 236 440 272 438 297 434 c 1
223 157 m 1
 216 208 206 249 200 307 c 1
 190 283 179 262 166 240 c 0
 137 188 116 148 97 102 c 0
 97 99 97 96 97 93 c 0
 97 76 103 74 108 68 c 0
 110 68 117 65 118 65 c 0
 125 65 138 67 146 74 c 1
 150 81 160 91 167 99 c 0
 187 122 206 141 223 157 c 1
EndSplineSet
Validated: 19457
Layer: 2
SplineSet
297 434 m 1,0,1
 297 262 297 262 356 -3 c 1,2,3
 340 -3 l 2,4,5
 284 -3 284 -3 252 3 c 1,6,7
 239 54 239 54 229 123 c 1,8,9
 200 99 200 99 178 72 c 0,10,11
 158 46 158 46 137 3 c 1,12,13
 107 -3 107 -3 74 -3 c 0,14,15
 58 -3 58 -3 44 0 c 1,16,17
 43 6 43 6 43 17 c 0,18,19
 43 41 43 41 53 72 c 0,20,21
 60 95 60 95 71 119.5 c 128,-1,22
 82 144 82 144 91 160 c 128,-1,23
 100 176 100 176 117 205.5 c 128,-1,24
 134 235 134 235 144 252 c 0,25,26
 173 303 173 303 192 369 c 1,27,28
 188 401 188 401 188 440 c 1,29,-1
 205 440 l 2,30,31
 260 440 260 440 297 434 c 1,0,1
223 157 m 1,32,33
 221 175 221 175 212 224.5 c 128,-1,34
 203 274 203 274 200 307 c 1,35,36
 187 275 187 275 166 240 c 1,37,38
 120 157 120 157 97 102 c 1,39,-1
 97 93 l 2,40,41
 97 68 97 68 108 68 c 0,42,43
 109 68 109 68 114 66 c 2,44,-1
 118 65 l 1,45,46
 136 65 136 65 146 74 c 0,47,48
 148 77 148 77 167 99 c 0,49,50
 192 128 192 128 223 157 c 1,32,33
EndSplineSet
Validated: 19457
Position2: "Numeral Kerning-1" dx=250 dy=0 dh=0 dv=0
Colour: ff00
EndChar

StartChar: uni0431
Encoding: 1073 1073 100
Width: 455
GlyphClass: 2
Flags: W
HStem: 0 24<168 298> 413 24<183.865 304.639>
VStem: 61 106<24 167.699 192 410.513>
DStem2: 83 437 185 413 0.0842372 0.996446<-236.885 -15.3225>
AnchorPoint: "below" 207 -200 basechar 0
AnchorPoint: "left" 66.7778 535.8 basechar 0
AnchorPoint: "right" 369 536.2 basechar 0
AnchorPoint: "HalfMark" 238.5 538.7 basechar 0
AnchorPoint: "DoubleTitlo" 455.5 538 basechar 0
AnchorPoint: "Yerok" 275 539 basechar 0
AnchorPoint: "Diacritic" 241 538.7 basechar 0
LayerCount: 3
Fore
SplineSet
83 437 m 1
 374 437 l 2
 383 437 390 432 390 424 c 0
 390 421 390 418 388 415 c 0
 384 406 381 399 378 392 c 2
 372 373 l 2
 370 367 368 361 366 354 c 2
 361 333 l 2
 358 320 341 323 338 333 c 0
 327 364 315 393 295 413 c 1
 185 413 l 1
 179 361 172 240 169 192 c 1
 199 198 l 2
 214 201 229 205 245 209 c 2
 290 222 l 2
 293 223 296 223 299 223 c 0
 313 223 324 215 329 206 c 0
 359 146 386 75 402 0 c 1
 62 0 l 1
 62 36 61 58 61 83 c 0
 61 114 62 149 64 219 c 0
 67 286 77 398 83 437 c 1
167 68 m 0
 167 52 168 38 168 24 c 1
 298 24 l 1
 291 58 272 102 258 126 c 0
 248 141 234 160 226 164 c 0
 218 168 211 169 204 169 c 0
 192 169 180 166 169 164 c 1
 168 133 167 98 167 68 c 0
EndSplineSet
Validated: 19457
Layer: 2
SplineSet
83 437 m 1,0,-1
 374 437 l 2,1,2
 390 437 390 437 390 424 c 0,3,4
 390 418 390 418 388 415 c 0,5,6
 384 406 384 406 378 392 c 1,7,-1
 372 373 l 2,8,9
 368 361 368 361 366 354 c 2,10,-1
 361 333 l 2,11,12
 359 324 359 324 349.5 324.5 c 128,-1,13
 340 325 340 325 338 333 c 0,14,15
 318 390 318 390 295 413 c 1,16,-1
 185 413 l 1,17,18
 180 372 180 372 169 192 c 1,19,-1
 199 198 l 2,20,21
 209 200 209 200 245 209 c 1,22,-1
 290 222 l 2,23,24
 293 223 293 223 299 223 c 0,25,26
 320 223 320 223 329 206 c 0,27,28
 380 105 380 105 402 0 c 1,29,-1
 62 0 l 1,30,31
 62 19 62 19 61.5 45.5 c 128,-1,32
 61 72 61 72 61 83 c 0,33,34
 61 114 61 114 64 219 c 1,35,36
 70 352 70 352 83 437 c 1,0,-1
167 68 m 0,37,38
 167 60 167 60 167.5 45.5 c 128,-1,39
 168 31 168 31 168 24 c 1,40,-1
 298 24 l 1,41,42
 287 76 287 76 258 126 c 1,43,44
 236 159 236 159 226 164 c 128,-1,45
 216 169 216 169 204 169 c 0,46,47
 196 169 196 169 169 164 c 1,48,49
 167 102 167 102 167 68 c 0,37,38
EndSplineSet
Validated: 19457
Colour: ff00
EndChar

StartChar: uni0432
Encoding: 1074 1074 101
Width: 489
GlyphClass: 2
Flags: W
HStem: 0 24<169 320.938> 413 24<175.385 328.998>
VStem: 61 108<24 171 212 412.656>
DStem2: 168 212 168 171 0.635148 0.772391<0 45.4596 66.4128 253.574> 349 232 254 206 0.383966 -0.923347<-25.0932 175.858>
AnchorPoint: "below" 207 -199 basechar 0
AnchorPoint: "left" 66.7778 535.8 basechar 0
AnchorPoint: "right" 369 536.2 basechar 0
AnchorPoint: "HalfMark" 238.5 538.7 basechar 0
AnchorPoint: "DoubleTitlo" 487.5 536 basechar 0
AnchorPoint: "Yerok" 300 539 basechar 0
AnchorPoint: "Diacritic" 236 538.7 basechar 0
AnchorPoint: "Numeral" 233 230 basechar 0
LayerCount: 3
Fore
SplineSet
61 0 m 1
 61 10 61 21 61 35 c 0
 61 87 62 164 64 237 c 0
 66 340 73 435 74 437 c 1
 361 437 l 2
 370 437 373 420 367 413 c 2
 230 247 l 1
 329 247 l 2
 341 247 346 239 349 232 c 2
 433 30 l 2
 435 25 437 19 437 14 c 0
 437 6 434 0 422 0 c 2
 61 0 l 1
254 206 m 1
 254 206 250 218 240 220 c 0
 231 224 210 223 210 223 c 1
 168 171 l 1
 168 112 169 62 169 24 c 1
 316 24 l 2
 326 24 326 33 322 42 c 2
 254 206 l 1
170 309 m 0
 169 278 168 212 168 212 c 1
 326 402 l 2
 328 404 329 406 329 408 c 0
 329 411 326 413 322 413 c 2
 177 413 l 1
 176 406 171 378 170 309 c 0
EndSplineSet
Validated: 19457
Layer: 2
SplineSet
61 0 m 1,0,1
 61 35 l 2,2,3
 61 128 61 128 64 237 c 0,4,5
 68 424 68 424 74 437 c 1,6,-1
 361 437 l 2,7,8
 368 437 368 437 370 427.5 c 128,-1,9
 372 418 372 418 367 413 c 2,10,-1
 230 247 l 1,11,-1
 329 247 l 2,12,13
 343 247 343 247 349 232 c 2,14,-1
 433 30 l 2,15,16
 437 20 437 20 437 14 c 0,17,18
 437 0 437 0 422 0 c 2,19,-1
 61 0 l 1,0,1
254 206 m 2,20,21
 250 218 250 218 240 220 c 2,22,-1
 210 223 l 1,23,-1
 168 171 l 1,24,25
 168 139 168 139 168.5 89.5 c 128,-1,26
 169 40 169 40 169 24 c 1,27,-1
 316 24 l 2,28,29
 330 24 330 24 322 42 c 2,30,-1
 254 206 l 2,20,21
170 309 m 2,31,-1
 168 212 l 1,32,-1
 326 402 l 2,33,34
 329 405 329 405 329 408 c 0,35,36
 329 413 329 413 322 413 c 2,37,-1
 177 413 l 1,38,39
 171 370 171 370 170 309 c 2,31,-1
EndSplineSet
Validated: 19457
Position2: "Numeral Kerning-1" dx=250 dy=0 dh=0 dv=0
Colour: ff00
EndChar

StartChar: uni0433
Encoding: 1075 1075 102
Width: 417
GlyphClass: 2
Flags: W
HStem: -4 21G<142.5 180> 416 25<180.036 269.816> 416 18<180.353 268.508>
VStem: 65 105<3.3905 411.765>
AnchorPoint: "below" 241 -200 basechar 0
AnchorPoint: "left" 66.7778 535.8 basechar 0
AnchorPoint: "right" 369 536.2 basechar 0
AnchorPoint: "HalfMark" 238.5 538.7 basechar 0
AnchorPoint: "DoubleTitlo" 416.5 538 basechar 0
AnchorPoint: "Yerok" 250 539 basechar 0
AnchorPoint: "Diacritic" 225 538.7 basechar 0
AnchorPoint: "Numeral" 222 217 basechar 0
LayerCount: 3
Fore
SplineSet
69 3 m 5xd0
 69 63 65 148 65 215 c 4
 65 295 72 382 77 434 c 5xb0
 160 434 310 441 376 441 c 5
 379 440 381 437 381 433 c 4
 381 427 376 417 372 411 c 4
 356 389 346 369 346 337 c 4
 346 332 347 327 347 322 c 4
 347 313 341 310 336 310 c 4
 332 310 328 311 325 314 c 4
 298 339 279 376 266 416 c 5
 264 416 261 416 258 416 c 4
 236 416 193 413 181 413 c 5
 174 362 170 283 170 203 c 4
 170 126 173 48 180 -4 c 5
 173 -4 166 -4 157 -4 c 4
 128 -4 92 -1 69 3 c 5xd0
EndSplineSet
Validated: 19457
Layer: 2
SplineSet
69 3 m 1,0,1
 69 32 69 32 67 106.5 c 128,-1,2
 65 181 65 181 65 215 c 0,3,4
 65 309 65 309 77 434 c 1,5,6
 121 434 121 434 233 437.5 c 128,-1,7
 345 441 345 441 376 441 c 1,8,9
 381 439 381 439 381 433 c 0,10,11
 381 424 381 424 372 411 c 0,12,13
 346 375 346 375 346 337 c 0,14,15
 346 334 346 334 346.5 329 c 128,-1,16
 347 324 347 324 347 322 c 0,17,18
 347 310 347 310 336 310 c 0,19,20
 329 310 329 310 325 314 c 0,21,22
 288 348 288 348 266 416 c 1,23,-1
 258 416 l 2,24,25
 246 416 246 416 216 414.5 c 128,-1,26
 186 413 186 413 181 413 c 1,27,28
 170 333 170 333 170 203 c 0,29,30
 170 70 170 70 180 -4 c 1,31,-1
 157 -4 l 2,32,33
 109 -4 109 -4 69 3 c 1,0,1
EndSplineSet
Validated: 19457
Position2: "Numeral Kerning-1" dx=250 dy=0 dh=0 dv=0
Colour: ff00
EndChar

StartChar: uni0434
Encoding: 1076 1076 103
Width: 434
GlyphClass: 2
Flags: W
HStem: -173 21G<80 83 347 350.5> 0 24<120 251> 420 20G<173 184.5>
VStem: 72 14<-175.484 -142.856> 90 30<24 67.0211> 173 110<298.715 435.1> 251 109<24 85.5234> 339 16<-172.744 -132.047>
AnchorPoint: "below" 207 -199 basechar 0
AnchorPoint: "left" 66.7778 535.8 basechar 0
AnchorPoint: "right" 369 536.2 basechar 0
AnchorPoint: "HalfMark" 238.5 538.7 basechar 0
AnchorPoint: "DoubleTitlo" 434.5 538 basechar 0
AnchorPoint: "Yerok" 275 538 basechar 0
AnchorPoint: "Diacritic" 227 537.7 basechar 0
AnchorPoint: "Numeral" 230 150 basechar 0
LayerCount: 3
Fore
SplineSet
21 24 m 6xf9
 90 24 l 5
 106 86 155 168 173 233 c 4
 179 255 185 276 189 296 c 5
 181 354 173 407 173 440 c 5
 196 440 260 439 283 434 c 5xfd
 283 380 293 311 305 235 c 4
 318 151 334 94 360 24 c 5xfa
 406 24 l 6
 414 24 418 14 418 4 c 4
 418 -2 417 -8 414 -13 c 4
 406 -27 388 -57 377 -87 c 4
 366 -117 360 -140 355 -168 c 4
 355 -172 352 -173 349 -173 c 4
 345 -173 340 -170 339 -166 c 4
 331 -138 320 -45 307 0 c 5
 116 0 l 5
 114 -6 114 -16 112 -28 c 4
 106 -67 105 -81 98 -119 c 4
 95 -136 89 -157 86 -173 c 4
 86 -175 84 -176 82 -176 c 4
 78 -176 73 -173 72 -170 c 4
 68 -138 59 -103 49 -69 c 4
 40 -40 34 -19 18 0 c 4
 14 4 12 10 12 15 c 4
 12 20 14 24 21 24 c 6xf9
251 24 m 5xfa
 236 71 217 141 202 214 c 5
 187 184 172 161 156 123 c 4
 140 86 128 52 120 24 c 5
 251 24 l 5xfa
EndSplineSet
Validated: 19457
Layer: 2
SplineSet
21 24 m 2,0,-1
 90 24 l 1,1,2
 98 55 98 55 131 128 c 128,-1,3
 164 201 164 201 173 233 c 0,4,5
 186 280 186 280 189 296 c 1,6,7
 173 412 173 412 173 440 c 1,8,9
 255 440 255 440 283 434 c 1,10,11
 283 374 283 374 305 235 c 0,12,13
 322 127 322 127 360 24 c 1,14,-1
 406 24 l 2,15,16
 418 24 418 24 418 4 c 0,17,18
 418 -6 418 -6 414 -13 c 0,19,20
 386 -61 386 -61 377 -87 c 0,21,22
 362 -127 362 -127 355 -168 c 0,23,24
 355 -173 355 -173 349 -173 c 0,25,26
 341 -173 341 -173 339 -166 c 0,27,28
 336 -154 336 -154 325 -89.5 c 128,-1,29
 314 -25 314 -25 307 0 c 1,30,-1
 116 0 l 1,31,32
 115 -3 115 -3 114 -13 c 128,-1,33
 113 -23 113 -23 112 -28 c 2,34,-1
 98 -119 l 2,35,36
 96 -128 96 -128 91.5 -147 c 128,-1,37
 87 -166 87 -166 86 -173 c 0,38,39
 86 -176 86 -176 82 -176 c 0,40,41
 74 -176 74 -176 72 -170 c 1,42,43
 67 -130 67 -130 49 -69 c 0,44,45
 33 -18 33 -18 18 0 c 0,46,47
 12 6 12 6 12 15 c 128,-1,48
 12 24 12 24 21 24 c 2,0,-1
251 24 m 1,49,50
 223 112 223 112 202 214 c 1,51,52
 200 211 200 211 183 178.5 c 128,-1,53
 166 146 166 146 156 123 c 0,54,55
 133 70 133 70 120 24 c 1,56,-1
 251 24 l 1,49,50
EndSplineSet
Validated: 19457
Position2: "Numeral Kerning-1" dx=250 dy=0 dh=0 dv=0
Colour: ff00
EndChar

StartChar: uni0435
Encoding: 1077 1077 104
Width: 332
GlyphClass: 2
Flags: W
HStem: -2 78<150 200.345> 375 68<266.328 286.724>
VStem: 55 93<78.6133 159.816 236 336.466> 70 80<76 159.917>
AnchorPoint: "below" 152 -200 basechar 0
AnchorPoint: "left" 28.2778 536.4 basechar 0
AnchorPoint: "right" 330.5 536.8 basechar 0
AnchorPoint: "HalfMark" 176.5 538.7 basechar 0
AnchorPoint: "DoubleTitlo" 332.5 538 basechar 0
AnchorPoint: "Yerok" 175 539 basechar 0
AnchorPoint: "Numeral" 197 225 basechar 0
AnchorPoint: "Diacritic" 160 539 basechar 0
LayerCount: 3
Fore
SplineSet
70 54 m 0xd0
 70 120 55 183 55 245 c 0
 55 294 60 343 83 370 c 0
 124 419 206 444 266 444 c 0
 273 444 280 444 286 443 c 1
 288 434 288 427 288 420 c 0
 288 403 288 377 271 375 c 0
 231 369 178 354 154 321 c 0
 149 314 148 304 148 294 c 2
 148 236 l 1xe0
 181 256 236 280 273 293 c 1
 274 284 275 271 275 258 c 0
 275 241 274 224 271 213 c 1
 234 200 181 171 150 145 c 1
 150 76 l 1
 194 76 233 98 255 120 c 0
 263 128 269 108 267 99 c 0
 260 62 242 43 209 24 c 0
 182 9 127 -2 92 -2 c 0
 88 -2 84 -2 80 -2 c 0
 78 -2 77 -2 75 -2 c 0
 70 -1 70 24 70 31 c 0
 70 38 70 46 70 54 c 0xd0
EndSplineSet
Validated: 19457
Layer: 2
SplineSet
70 54 m 2,0,1
 70 88 70 88 62.5 151 c 128,-1,2
 55 214 55 214 55 245 c 0,3,4
 55 337 55 337 83 370 c 0,5,6
 112 405 112 405 164.5 424.5 c 128,-1,7
 217 444 217 444 266 444 c 0,8,9
 280 444 280 444 286 443 c 1,10,11
 288 434 288 434 288 420 c 0,12,13
 288 377 288 377 271 375 c 0,14,15
 184 362 184 362 154 321 c 0,16,17
 148 313 148 313 148 294 c 2,18,-1
 148 236 l 1,19,20
 199 267 199 267 273 293 c 1,21,22
 275 275 275 275 275 258 c 0,23,24
 275 228 275 228 271 213 c 1,25,26
 202 189 202 189 150 145 c 1,27,-1
 150 76 l 1,28,29
 211 76 211 76 255 120 c 0,30,31
 263 128 263 128 267 110 c 0,32,33
 268 103 268 103 267 99 c 0,34,35
 255 50 255 50 209 24 c 0,36,37
 162 -2 162 -2 92 -2 c 2,38,-1
 80 -2 l 1,39,-1
 75 -2 l 1,40,41
 70 -1 70 -1 70 31 c 2,42,-1
 70 54 l 2,0,1
EndSplineSet
Validated: 19457
Position2: "Numeral Kerning-1" dx=250 dy=0 dh=0 dv=0
Colour: ff00
EndChar

StartChar: uni0436
Encoding: 1078 1078 105
Width: 751
GlyphClass: 2
Flags: W
HStem: -3 21G<105.5 125.5 361 381.5 632 652.5> 256 181<69.3113 167.363> 374 63<168.007 191.906> 384 53<537.555 597.626>
VStem: 54 113<-1.7688 100.498> 65 103<256 374.444> 310 116<-1.82812 246.72> 319 104<2.74863 251 355 437> 580 112<-1.7688 97.2115>
DStem2: 425 347 428 317 0.844121 0.536153<0 131.003>
AnchorPoint: "below" 369 -200 basechar 0
AnchorPoint: "left" 244.778 537.3 basechar 0
AnchorPoint: "right" 547 537.7 basechar 0
AnchorPoint: "HalfMark" 367.5 538.7 basechar 0
AnchorPoint: "DoubleTitlo" 752 540 basechar 0
AnchorPoint: "Yerok" 575 539 basechar 0
AnchorPoint: "Diacritic" 369 538.7 basechar 0
LayerCount: 3
Fore
SplineSet
310 0 m 1xa280
 310 58 314 157 319 256 c 1xc180
 261 224 214 175 182 107 c 0
 168 79 167 51 167 24 c 0
 167 16 167 8 167 0 c 1
 152 -2 135 -3 116 -3 c 0
 95 -3 72 -2 55 0 c 1
 54 4 54 8 54 12 c 0
 54 64 73 105 103 143 c 0
 145 195 272 269 319 296 c 1
 319 301 l 1
 281 323 223 359 192 374 c 0
 190 375 188 374 186 374 c 0xa980
 178 374 168 369 168 355 c 0
 168 330 171 308 171 293 c 0
 171 273 170 261 170 256 c 1
 144 256 88 246 66 239 c 1
 68 256 69 273 69 291 c 0
 69 332 65 374 65 413 c 0
 65 427 85 437 104 437 c 2
 104 437 109 437 116 437 c 0xc580
 158 437 201 429 214 424 c 0
 245 412 290 375 322 355 c 1
 324 386 324 418 324 437 c 1
 428 437 l 1
 428 408 426 370 425 347 c 1
 465 374 523 408 557 427 c 0
 568 433 587 437 602 437 c 0
 617 437 628 434 644 434 c 0
 652 434 668 435 674 436 c 0
 677 436 680 438 683 438 c 0
 690 438 692 432 688 425 c 0
 669 400 654 362 654 316 c 0
 654 309 654 301 655 295 c 1
 654 292 651 292 650 293 c 0
 635 303 624 316 615 331 c 0
 602 354 594 384 553 384 c 0
 551 384 548 384 546 384 c 0x9580
 537 384 527 379 518 374 c 0
 489 357 460 340 428 317 c 1
 467 297 510 279 554 243 c 0
 616 193 635 157 670 98 c 0
 690 62 692 21 692 17 c 0
 692 14 693 11 693 8 c 0
 693 5 692 2 692 0 c 1
 679 -2 662 -3 643 -3 c 0
 621 -3 598 -2 580 0 c 1
 580 70 561 100 528 151 c 0
 502 192 454 229 423 251 c 1
 423 198 l 2xa580
 423 120 423 42 426 0 c 1
 410 -2 391 -3 372 -3 c 0
 350 -3 327 -2 310 0 c 1xa280
EndSplineSet
Validated: 19457
Layer: 2
SplineSet
310 0 m 1,0,1
 310 78 310 78 319 256 c 1,2,3
 229 206 229 206 182 107 c 0,4,5
 167 77 167 77 167 24 c 2,6,7
 167 0 l 1,8,9
 144 -3 144 -3 116 -3 c 0,10,11
 80 -3 80 -3 55 0 c 1,12,13
 54 4 54 4 54 12 c 0,14,15
 54 81 54 81 103 143 c 1,16,17
 147 197 147 197 319 296 c 1,18,-1
 319 301 l 1,19,20
 198 371 198 371 192 374 c 1,21,22
 186 374 l 2,23,24
 168 374 168 374 168 355 c 0,25,26
 168 341 168 341 169.5 320 c 128,-1,27
 171 299 171 299 171 293 c 0,28,29
 171 281 171 281 170.5 269 c 128,-1,30
 170 257 170 257 170 256 c 1,31,32
 119 256 119 256 66 239 c 1,33,34
 69 264 69 264 69 291 c 0,35,36
 69 312 69 312 67 353 c 128,-1,37
 65 394 65 394 65 413 c 0,38,39
 65 423 65 423 77 430 c 128,-1,40
 89 437 89 437 104 437 c 2,41,-1
 116 437 l 2,42,43
 180 437 180 437 214 424 c 0,44,45
 228 419 228 419 247 406.5 c 128,-1,46
 266 394 266 394 288.5 378 c 128,-1,47
 311 362 311 362 322 355 c 1,48,49
 324 386 324 386 324 437 c 1,50,-1
 428 437 l 1,51,52
 428 416 428 416 425 347 c 1,53,54
 479 383 479 383 557 427 c 0,55,56
 575 437 575 437 602 437 c 0,57,58
 609 437 609 437 622.5 435.5 c 128,-1,59
 636 434 636 434 644 434 c 0,60,61
 662 434 662 434 674 436 c 0,62,63
 676 436 676 436 679 437 c 128,-1,64
 682 438 682 438 683 438 c 0,65,66
 695 438 695 438 688 425 c 1,67,68
 654 380 654 380 654 316 c 0,69,70
 654 301 654 301 655 295 c 1,71,72
 654 293 654 293 652.5 292.5 c 128,-1,73
 651 292 651 292 650 293 c 0,74,75
 630 307 630 307 615 331 c 0,76,77
 614 333 614 333 608 344.5 c 128,-1,78
 602 356 602 356 599 360 c 128,-1,79
 596 364 596 364 589 371.5 c 128,-1,80
 582 379 582 379 573.5 381.5 c 128,-1,81
 565 384 565 384 553 384 c 2,82,-1
 546 384 l 2,83,84
 536 384 536 384 518 374 c 0,85,86
 460 340 460 340 428 317 c 1,87,88
 433 315 433 315 456.5 303 c 128,-1,89
 480 291 480 291 490.5 285.5 c 128,-1,90
 501 280 501 280 520 268 c 128,-1,91
 539 256 539 256 554 243 c 0,92,93
 583 219 583 219 605.5 193 c 128,-1,94
 628 167 628 167 636.5 153.5 c 128,-1,95
 645 140 645 140 670 98 c 1,96,97
 692 58 692 58 692 17 c 0,98,99
 692 16 692 16 692.5 13 c 128,-1,100
 693 10 693 10 693 8 c 128,-1,101
 693 6 693 6 692.5 3.5 c 128,-1,102
 692 1 692 1 692 0 c 0,103,104
 672 -3 672 -3 643 -3 c 0,105,106
 607 -3 607 -3 580 0 c 1,107,108
 580 48 580 48 568.5 77 c 128,-1,109
 557 106 557 106 528 151 c 0,110,111
 499 197 499 197 423 251 c 1,112,-1
 423 198 l 2,113,114
 423 42 423 42 426 0 c 1,115,116
 402 -3 402 -3 372 -3 c 0,117,118
 336 -3 336 -3 310 0 c 1,0,1
EndSplineSet
Validated: 19457
Colour: ff00
EndChar

StartChar: uni0437
Encoding: 1079 1079 106
Width: 602
GlyphClass: 2
Flags: W
HStem: -224 43<304.332 411.544> -163 85<85.2702 211.34> 424 22<247.486 349.665>
VStem: 52 110<249.818 355.209> 421 109<249.942 375.348> 465 100<-129.568 37.89>
AnchorPoint: "below" 313 -200 basechar 0
AnchorPoint: "left" 106.778 535.8 basechar 0
AnchorPoint: "right" 495 536.2 basechar 0
AnchorPoint: "HalfMark" 303.5 538.7 basechar 0
AnchorPoint: "DoubleTitlo" 602 538 basechar 0
AnchorPoint: "Yerok" 425 538 basechar 0
AnchorPoint: "Diacritic" 304 538.7 basechar 0
AnchorPoint: "Numeral" 308 110 basechar 0
LayerCount: 3
Fore
SplineSet
108 248 m 0xf8
 106 248 104 248 102 248 c 0
 83 248 52 252 52 252 c 1
 52 254 52 257 52 259 c 0
 52 303 64 338 72 352 c 0
 76 360 86 373 90 378 c 0
 132 425 206 446 296 446 c 0
 309 446 322 446 335 446 c 0
 390 446 439 443 486 403 c 0
 522 372 530 328 530 295 c 0xf8
 530 285 530 276 528 268 c 1
 526 247 502 217 479 209 c 0
 469 206 460 205 451 205 c 0
 442 205 434 206 427 206 c 0
 424 206 421 205 418 205 c 1
 408 200 408 193 405 189 c 1
 449 169 500 144 524 110 c 0
 554 67 565 12 565 -48 c 0
 565 -112 534 -166 500 -188 c 0
 471 -206 429 -224 384 -224 c 0
 360 -224 342 -217 322 -210 c 1
 298 -200 274 -190 251 -180 c 0
 229 -170 198 -163 166 -163 c 0
 108 -163 74 -188 43 -218 c 0
 40 -222 37 -223 34 -223 c 0
 28 -223 18 -207 18 -200 c 0
 18 -184 28 -157 43 -133 c 0
 62 -101 98 -78 145 -78 c 0
 157 -78 168 -80 178 -82 c 0
 196 -86 221 -107 230 -113 c 0
 260 -135 289 -181 348 -181 c 0
 388 -181 427 -154 443 -130 c 0
 457 -110 465 -77 465 -45 c 0xf4
 465 8 449 37 420 67 c 0
 403 84 382 95 370 101 c 0
 359 106 346 113 334 113 c 0
 328 113 322 111 317 106 c 1
 294 71 l 2
 285 57 277 45 272 34 c 1
 269 33 265 33 262 33 c 0
 245 33 227 40 215 45 c 0
 197 53 173 67 167 85 c 1
 178 112 193 140 208 162 c 1
 225 185 240 207 261 225 c 0
 265 229 271 232 279 230 c 0
 308 224 340 214 368 204 c 1
 385 228 410 262 419 289 c 0
 421 296 422 304 421 313 c 0
 418 380 365 424 296 424 c 0
 258 424 227 405 206 385 c 0
 181 362 162 317 162 255 c 0
 162 250 128 249 108 248 c 0xf8
EndSplineSet
Validated: 19457
Layer: 2
SplineSet
108 248 m 1,0,1
 102 248 l 1,2,3
 52 252 l 1,4,5
 52 259 l 2,6,7
 52 317 52 317 72 352 c 0,8,9
 77 361 77 361 90 378 c 1,10,11
 151 446 151 446 296 446 c 2,12,13
 335 446 l 2,14,15
 385 446 385 446 419.5 438 c 128,-1,16
 454 430 454 430 486 403 c 0,17,18
 530 365 530 365 530 295 c 0,19,20
 530 276 530 276 528 268 c 0,21,22
 526 252 526 252 511 233.5 c 128,-1,23
 496 215 496 215 479 209 c 0,24,25
 466 205 466 205 451 205 c 0,26,27
 446 205 446 205 438 205.5 c 128,-1,28
 430 206 430 206 427 206 c 0,29,30
 426 206 426 206 423 205.5 c 128,-1,31
 420 205 420 205 418 205 c 1,32,33
 415 203 415 203 412.5 201 c 128,-1,34
 410 199 410 199 409 197 c 128,-1,35
 408 195 408 195 407 192.5 c 128,-1,36
 406 190 406 190 405 189 c 1,37,38
 498 147 498 147 524 110 c 0,39,40
 565 51 565 51 565 -48 c 0,41,42
 565 -94 565 -94 546 -132 c 128,-1,43
 527 -170 527 -170 500 -188 c 1,44,45
 442 -224 442 -224 384 -224 c 0,46,47
 362 -224 362 -224 322 -210 c 1,48,49
 274 -190 274 -190 251 -180 c 0,50,51
 214 -163 214 -163 166 -163 c 0,52,53
 100 -163 100 -163 43 -218 c 0,54,55
 39 -223 39 -223 34 -223 c 0,56,57
 30 -223 30 -223 24 -214.5 c 128,-1,58
 18 -206 18 -206 18 -200 c 0,59,60
 18 -173 18 -173 43 -133 c 0,61,62
 76 -78 76 -78 145 -78 c 0,63,64
 158 -78 158 -78 178 -82 c 0,65,66
 184 -83 184 -83 192.5 -87.5 c 128,-1,67
 201 -92 201 -92 207 -96.5 c 128,-1,68
 213 -101 213 -101 220.5 -106.5 c 128,-1,69
 228 -112 228 -112 230 -113 c 0,70,71
 235 -117 235 -117 257.5 -138.5 c 128,-1,72
 280 -160 280 -160 300.5 -170.5 c 128,-1,73
 321 -181 321 -181 348 -181 c 0,74,75
 376 -181 376 -181 403 -165.5 c 128,-1,76
 430 -150 430 -150 443 -130 c 0,77,78
 465 -99 465 -99 465 -45 c 0,79,80
 465 20 465 20 420 67 c 0,81,82
 402 85 402 85 370 101 c 0,83,84
 344 113 344 113 334 113 c 128,-1,85
 324 113 324 113 317 106 c 1,86,-1
 294 71 l 2,87,88
 276 43 276 43 272 34 c 1,89,90
 269 33 269 33 262 33 c 0,91,92
 244 33 244 33 215 45 c 0,93,94
 174 63 174 63 167 85 c 1,95,96
 184 127 184 127 208 162 c 1,97,98
 243 210 243 210 261 225 c 1,99,100
 269 233 269 233 279 230 c 0,101,102
 318 222 318 222 368 204 c 1,103,104
 411 264 411 264 419 289 c 0,105,106
 422 301 422 301 421 313 c 0,107,108
 419 363 419 363 383.5 393.5 c 128,-1,109
 348 424 348 424 296 424 c 0,110,111
 247 424 247 424 206 385 c 1,112,113
 162 345 162 345 162 255 c 0,114,115
 162 251 162 251 108 248 c 1,0,1
EndSplineSet
Validated: 19457
Position2: "Numeral Kerning-1" dx=250 dy=0 dh=0 dv=0
Colour: ff00
EndChar

StartChar: uni0438
Encoding: 1080 1080 107
Width: 485
GlyphClass: 2
Flags: W
HStem: -4 21G<110.5 129.5 366.5 389> 423 20G<163.5 179.5 408.5 424>
VStem: 67 105<-2.73306 229 257 375.644> 75 106<259.818 430.826> 316 105
DStem2: 174 257 174 229 0.918484 0.395458<0 144.789>
AnchorPoint: "below" 244 -200 basechar 0
AnchorPoint: "left" 101.778 535.8 basechar 0
AnchorPoint: "right" 404 536.2 basechar 0
AnchorPoint: "HalfMark" 259.5 538.7 basechar 0
AnchorPoint: "DoubleTitlo" 485 539 basechar 0
AnchorPoint: "Yerok" 300 539 basechar 0
AnchorPoint: "Numeral" 245 210 basechar 0
AnchorPoint: "Diacritic" 259 539 basechar 0
LayerCount: 3
Fore
SplineSet
172 -0 m 1xe8
 154 -3 139 -4 120 -4 c 0
 101 -4 84 -3 69 -0 c 1
 68 15 67 65 67 104 c 0xe8
 67 211 70 274 75 367 c 0
 76 394 78 415 79 430 c 1
 107 439 146 442 181 443 c 1xd8
 178 385 176 317 174 257 c 1
 318 319 l 1
 319 358 320 401 324 431 c 1
 352 439 391 442 426 442 c 1
 422 356 421 302 421 210 c 2
 421 198 l 2
 421 140 421 42 426 -0 c 1
 417 -1 393 -4 385 -4 c 2
 371 -4 l 2
 362 -4 329 -1 320 -0 c 1
 316 46 316 108 316 163 c 2
 316 227 l 2
 316 249 316 270 317 291 c 1
 174 229 l 1
 172 210 172 129 172 91 c 0
 172 58 172 24 172 -0 c 1xe8
EndSplineSet
Validated: 19457
Layer: 2
SplineSet
172 -0 m 1,0,1
 148 -4 148 -4 120 -4 c 0,2,3
 89 -4 89 -4 69 0 c 1,4,5
 67 30 67 30 67 104 c 0,6,7
 67 218 67 218 75 367 c 0,8,9
 75 374 75 374 79 430 c 1,10,11
 113 441 113 441 181 443 c 1,12,13
 179 399 179 399 174 257 c 1,14,-1
 318 319 l 1,15,16
 320 402 320 402 324 431 c 1,17,18
 363 442 363 442 426 442 c 1,19,20
 421 334 421 334 421 210 c 2,21,-1
 421 198 l 2,22,23
 421 42 421 42 426 0 c 1,24,25
 390 -4 390 -4 385 -4 c 2,26,-1
 371 -4 l 2,27,28
 356 -4 356 -4 320 0 c 1,29,30
 316 46 316 46 316 163 c 2,31,-1
 316 227 l 2,32,33
 316 270 316 270 317 291 c 1,34,-1
 174 229 l 1,35,36
 172 210 172 210 172 91 c 2,37,38
 172 -0 l 1,0,1
EndSplineSet
Validated: 19457
Position2: "Numeral Kerning-1" dx=250 dy=0 dh=0 dv=0
Colour: ff00
EndChar

